<svg width="412" height="297" viewBox="0 0 412 297" fill="none" xmlns="http://www.w3.org/2000/svg">
<path d="M135 103C159.853 103 180 90.6878 180 75.5C180 60.3122 159.853 48 135 48C110.147 48 90 60.3122 90 75.5C90 90.6878 110.147 103 135 103Z" fill="#B9F1B9" stroke="#22AA22" stroke-width="1.65"/>
<path d="M117.517 66.9385V70H116.486V62.1797H119.37C120.226 62.1797 120.896 62.3981 121.379 62.835C121.866 63.2718 122.109 63.8501 122.109 64.5698C122.109 65.3289 121.871 65.9144 121.395 66.3262C120.922 66.7344 120.244 66.9385 119.359 66.9385H117.517ZM117.517 66.0952H119.37C119.922 66.0952 120.344 65.9663 120.638 65.7085C120.931 65.4471 121.078 65.0711 121.078 64.5806C121.078 64.1151 120.931 63.7427 120.638 63.4634C120.344 63.1841 119.941 63.0391 119.429 63.0283H117.517V66.0952ZM122.931 67.0405C122.931 66.4712 123.042 65.9591 123.264 65.5044C123.49 65.0496 123.801 64.6987 124.199 64.4517C124.6 64.2046 125.056 64.0811 125.568 64.0811C126.36 64.0811 126.999 64.355 127.486 64.9028C127.976 65.4507 128.222 66.1794 128.222 67.0889V67.1587C128.222 67.7244 128.112 68.2329 127.894 68.6841C127.679 69.1317 127.369 69.4808 126.965 69.7314C126.564 69.9821 126.102 70.1074 125.579 70.1074C124.791 70.1074 124.152 69.8335 123.662 69.2856C123.175 68.7378 122.931 68.0127 122.931 67.1104V67.0405ZM123.93 67.1587C123.93 67.8032 124.079 68.3206 124.376 68.7109C124.677 69.1012 125.078 69.2964 125.579 69.2964C126.084 69.2964 126.485 69.0994 126.782 68.7056C127.079 68.3081 127.228 67.7531 127.228 67.0405C127.228 66.4032 127.076 65.8875 126.771 65.4937C126.471 65.0962 126.07 64.8975 125.568 64.8975C125.078 64.8975 124.682 65.0926 124.381 65.4829C124.081 65.8732 123.93 66.4318 123.93 67.1587ZM132.852 68.4585C132.852 68.1899 132.75 67.9823 132.545 67.8354C132.345 67.6851 131.992 67.5562 131.487 67.4487C130.986 67.3413 130.587 67.2124 130.29 67.062C129.996 66.9116 129.778 66.7326 129.634 66.5249C129.495 66.3172 129.425 66.0701 129.425 65.7837C129.425 65.3075 129.625 64.9046 130.026 64.5752C130.431 64.2458 130.947 64.0811 131.573 64.0811C132.232 64.0811 132.766 64.2511 133.174 64.5913C133.586 64.9315 133.792 65.3665 133.792 65.8965H132.792C132.792 65.6243 132.676 65.3898 132.443 65.1929C132.214 64.9959 131.924 64.8975 131.573 64.8975C131.212 64.8975 130.929 64.9762 130.725 65.1338C130.521 65.2913 130.418 65.4972 130.418 65.7515C130.418 65.9914 130.513 66.1722 130.703 66.2939C130.893 66.4157 131.235 66.5321 131.729 66.6431C132.227 66.7541 132.63 66.8866 132.938 67.0405C133.245 67.1945 133.473 67.3807 133.62 67.5991C133.77 67.814 133.845 68.0771 133.845 68.3887C133.845 68.9079 133.638 69.325 133.222 69.6401C132.807 69.9517 132.268 70.1074 131.605 70.1074C131.14 70.1074 130.728 70.0251 130.37 69.8604C130.012 69.6956 129.731 69.4665 129.527 69.1729C129.326 68.8757 129.226 68.5552 129.226 68.2114H130.22C130.238 68.5444 130.37 68.8094 130.617 69.0063C130.868 69.1997 131.197 69.2964 131.605 69.2964C131.981 69.2964 132.282 69.2212 132.508 69.0708C132.737 68.9168 132.852 68.7127 132.852 68.4585ZM136.219 70H135.226V64.1885H136.219V70ZM135.145 62.647C135.145 62.4858 135.193 62.3498 135.29 62.2388C135.39 62.1278 135.537 62.0723 135.73 62.0723C135.924 62.0723 136.071 62.1278 136.171 62.2388C136.271 62.3498 136.321 62.4858 136.321 62.647C136.321 62.8081 136.271 62.9424 136.171 63.0498C136.071 63.1572 135.924 63.2109 135.73 63.2109C135.537 63.2109 135.39 63.1572 135.29 63.0498C135.193 62.9424 135.145 62.8081 135.145 62.647ZM139.163 62.7812V64.1885H140.248V64.9565H139.163V68.5605C139.163 68.7933 139.211 68.9688 139.308 69.0869C139.404 69.2015 139.569 69.2588 139.802 69.2588C139.916 69.2588 140.074 69.2373 140.274 69.1943V70C140.013 70.0716 139.759 70.1074 139.512 70.1074C139.068 70.1074 138.733 69.9731 138.507 69.7046C138.282 69.436 138.169 69.0547 138.169 68.5605V64.9565H137.111V64.1885H138.169V62.7812H139.163ZM142.493 70H141.499V64.1885H142.493V70ZM141.418 62.647C141.418 62.4858 141.467 62.3498 141.563 62.2388C141.664 62.1278 141.811 62.0723 142.004 62.0723C142.197 62.0723 142.344 62.1278 142.444 62.2388C142.545 62.3498 142.595 62.4858 142.595 62.647C142.595 62.8081 142.545 62.9424 142.444 63.0498C142.344 63.1572 142.197 63.2109 142.004 63.2109C141.811 63.2109 141.664 63.1572 141.563 63.0498C141.467 62.9424 141.418 62.8081 141.418 62.647ZM146.005 68.6519L147.445 64.1885H148.46L146.376 70H145.619L143.513 64.1885H144.528L146.005 68.6519ZM151.752 70.1074C150.965 70.1074 150.324 69.8496 149.83 69.334C149.335 68.8148 149.088 68.1219 149.088 67.2554V67.0728C149.088 66.4963 149.198 65.9824 149.416 65.5312C149.638 65.0765 149.946 64.722 150.34 64.4678C150.737 64.21 151.167 64.0811 151.629 64.0811C152.384 64.0811 152.972 64.3299 153.391 64.8276C153.81 65.3254 154.019 66.0379 154.019 66.9653V67.3789H150.082C150.096 67.9518 150.263 68.4155 150.582 68.77C150.904 69.1209 151.312 69.2964 151.806 69.2964C152.157 69.2964 152.454 69.2248 152.698 69.0815C152.941 68.9383 153.154 68.7485 153.337 68.5122L153.944 68.9849C153.457 69.7332 152.726 70.1074 151.752 70.1074ZM151.629 64.8975C151.228 64.8975 150.891 65.0443 150.619 65.3379C150.347 65.6279 150.179 66.0361 150.114 66.5625H153.025V66.4873C152.997 65.9824 152.861 65.5921 152.617 65.3164C152.374 65.0371 152.044 64.8975 151.629 64.8975ZM118.35 82.2964C118.704 82.2964 119.014 82.189 119.279 81.9741C119.544 81.7593 119.691 81.4907 119.719 81.1685H120.659C120.641 81.5015 120.527 81.8184 120.315 82.1191C120.104 82.4199 119.821 82.6598 119.467 82.8389C119.116 83.0179 118.743 83.1074 118.35 83.1074C117.558 83.1074 116.928 82.8442 116.459 82.3179C115.993 81.7879 115.761 81.0646 115.761 80.1479V79.9814C115.761 79.4157 115.865 78.9126 116.072 78.4722C116.28 78.0317 116.577 77.6898 116.964 77.4463C117.354 77.2028 117.814 77.0811 118.344 77.0811C118.996 77.0811 119.537 77.2762 119.966 77.6665C120.4 78.0568 120.631 78.5635 120.659 79.1865H119.719C119.691 78.8105 119.547 78.5026 119.29 78.2627C119.035 78.0192 118.72 77.8975 118.344 77.8975C117.839 77.8975 117.447 78.0801 117.168 78.4453C116.892 78.807 116.754 79.3315 116.754 80.019V80.207C116.754 80.8766 116.892 81.3923 117.168 81.7539C117.444 82.1156 117.838 82.2964 118.35 82.2964ZM121.513 80.0405C121.513 79.4712 121.624 78.9591 121.846 78.5044C122.072 78.0496 122.383 77.6987 122.781 77.4517C123.182 77.2046 123.638 77.0811 124.15 77.0811C124.942 77.0811 125.581 77.355 126.068 77.9028C126.558 78.4507 126.804 79.1794 126.804 80.0889V80.1587C126.804 80.7244 126.694 81.2329 126.476 81.6841C126.261 82.1317 125.951 82.4808 125.547 82.7314C125.146 82.9821 124.684 83.1074 124.161 83.1074C123.373 83.1074 122.734 82.8335 122.244 82.2856C121.757 81.7378 121.513 81.0127 121.513 80.1104V80.0405ZM122.512 80.1587C122.512 80.8032 122.661 81.3206 122.958 81.7109C123.259 82.1012 123.66 82.2964 124.161 82.2964C124.666 82.2964 125.067 82.0994 125.364 81.7056C125.661 81.3081 125.81 80.7531 125.81 80.0405C125.81 79.4032 125.658 78.8875 125.354 78.4937C125.053 78.0962 124.652 77.8975 124.15 77.8975C123.66 77.8975 123.264 78.0926 122.963 78.4829C122.663 78.8732 122.512 79.4318 122.512 80.1587ZM128.99 77.1885L129.022 77.9189C129.466 77.3604 130.046 77.0811 130.762 77.0811C131.99 77.0811 132.61 77.7739 132.621 79.1597V83H131.627V79.1543C131.623 78.7354 131.527 78.4256 131.337 78.2251C131.151 78.0246 130.859 77.9243 130.461 77.9243C130.139 77.9243 129.856 78.0103 129.613 78.1821C129.369 78.354 129.18 78.5796 129.043 78.8589V83H128.05V77.1885H128.99ZM136.45 82.2964C136.805 82.2964 137.114 82.189 137.379 81.9741C137.644 81.7593 137.791 81.4907 137.82 81.1685H138.76C138.742 81.5015 138.627 81.8184 138.416 82.1191C138.205 82.4199 137.922 82.6598 137.567 82.8389C137.216 83.0179 136.844 83.1074 136.45 83.1074C135.659 83.1074 135.029 82.8442 134.56 82.3179C134.094 81.7879 133.861 81.0646 133.861 80.1479V79.9814C133.861 79.4157 133.965 78.9126 134.173 78.4722C134.381 78.0317 134.678 77.6898 135.064 77.4463C135.455 77.2028 135.915 77.0811 136.445 77.0811C137.097 77.0811 137.637 77.2762 138.067 77.6665C138.5 78.0568 138.731 78.5635 138.76 79.1865H137.82C137.791 78.8105 137.648 78.5026 137.39 78.2627C137.136 78.0192 136.821 77.8975 136.445 77.8975C135.94 77.8975 135.548 78.0801 135.269 78.4453C134.993 78.807 134.855 79.3315 134.855 80.019V80.207C134.855 80.8766 134.993 81.3923 135.269 81.7539C135.544 82.1156 135.938 82.2964 136.45 82.2964ZM142.289 83.1074C141.501 83.1074 140.86 82.8496 140.366 82.334C139.872 81.8148 139.625 81.1219 139.625 80.2554V80.0728C139.625 79.4963 139.734 78.9824 139.952 78.5312C140.174 78.0765 140.482 77.722 140.876 77.4678C141.273 77.21 141.703 77.0811 142.165 77.0811C142.921 77.0811 143.508 77.3299 143.927 77.8276C144.346 78.3254 144.555 79.0379 144.555 79.9653V80.3789H140.618C140.632 80.9518 140.799 81.4155 141.118 81.77C141.44 82.1209 141.848 82.2964 142.342 82.2964C142.693 82.2964 142.99 82.2248 143.234 82.0815C143.477 81.9383 143.69 81.7485 143.873 81.5122L144.48 81.9849C143.993 82.7332 143.263 83.1074 142.289 83.1074ZM142.165 77.8975C141.764 77.8975 141.427 78.0443 141.155 78.3379C140.883 78.6279 140.715 79.0361 140.65 79.5625H143.562V79.4873C143.533 78.9824 143.397 78.5921 143.153 78.3164C142.91 78.0371 142.58 77.8975 142.165 77.8975ZM150.619 80.1587C150.619 81.0431 150.417 81.7557 150.012 82.2964C149.608 82.8371 149.06 83.1074 148.369 83.1074C147.663 83.1074 147.108 82.8836 146.704 82.436V85.2344H145.71V77.1885H146.618L146.666 77.833C147.071 77.3317 147.633 77.0811 148.353 77.0811C149.051 77.0811 149.602 77.3442 150.007 77.8706C150.415 78.397 150.619 79.1292 150.619 80.0674V80.1587ZM149.625 80.0459C149.625 79.3906 149.486 78.8732 149.207 78.4937C148.927 78.1141 148.544 77.9243 148.057 77.9243C147.456 77.9243 147.004 78.1911 146.704 78.7246V81.5015C147.001 82.0314 147.456 82.2964 148.068 82.2964C148.544 82.2964 148.922 82.1084 149.201 81.7324C149.484 81.3529 149.625 80.7907 149.625 80.0459ZM153.235 75.7812V77.1885H154.32V77.9565H153.235V81.5605C153.235 81.7933 153.283 81.9688 153.38 82.0869C153.477 82.2015 153.641 82.2588 153.874 82.2588C153.989 82.2588 154.146 82.2373 154.347 82.1943V83C154.085 83.0716 153.831 83.1074 153.584 83.1074C153.14 83.1074 152.805 82.9731 152.58 82.7046C152.354 82.436 152.241 82.0547 152.241 81.5605V77.9565H151.183V77.1885H152.241V75.7812H153.235Z" fill="black"/>
<path d="M179 136H89V191H179V136Z" fill="#F0EEC0" stroke="#F3F033" stroke-width="2.75"/>
<path d="M123.161 159H122.125L118.188 152.974V159H117.151V151.18H118.188L122.135 157.233V151.18H123.161V159ZM127.249 159.107C126.461 159.107 125.82 158.85 125.326 158.334C124.832 157.815 124.584 157.122 124.584 156.255V156.073C124.584 155.496 124.694 154.982 124.912 154.531C125.134 154.076 125.442 153.722 125.836 153.468C126.233 153.21 126.663 153.081 127.125 153.081C127.881 153.081 128.468 153.33 128.887 153.828C129.306 154.325 129.515 155.038 129.515 155.965V156.379H125.578C125.592 156.952 125.759 157.416 126.078 157.77C126.4 158.121 126.808 158.296 127.302 158.296C127.653 158.296 127.95 158.225 128.194 158.082C128.437 157.938 128.65 157.749 128.833 157.512L129.44 157.985C128.953 158.733 128.222 159.107 127.249 159.107ZM127.125 153.897C126.724 153.897 126.387 154.044 126.115 154.338C125.843 154.628 125.675 155.036 125.61 155.562H128.521V155.487C128.493 154.982 128.357 154.592 128.113 154.316C127.87 154.037 127.54 153.897 127.125 153.897ZM134.258 158.425C133.871 158.88 133.304 159.107 132.555 159.107C131.936 159.107 131.463 158.928 131.137 158.57C130.815 158.209 130.652 157.675 130.648 156.97V153.188H131.642V156.943C131.642 157.824 132 158.264 132.716 158.264C133.475 158.264 133.98 157.981 134.231 157.416V153.188H135.225V159H134.279L134.258 158.425ZM138.087 151.781V153.188H139.172V153.957H138.087V157.561C138.087 157.793 138.136 157.969 138.232 158.087C138.329 158.201 138.494 158.259 138.727 158.259C138.841 158.259 138.999 158.237 139.199 158.194V159C138.938 159.072 138.684 159.107 138.437 159.107C137.993 159.107 137.658 158.973 137.432 158.705C137.207 158.436 137.094 158.055 137.094 157.561V153.957H136.036V153.188H137.094V151.781H138.087ZM143.147 154.08C142.997 154.055 142.834 154.042 142.658 154.042C142.007 154.042 141.564 154.32 141.332 154.875V159H140.338V153.188H141.305L141.321 153.86C141.647 153.341 142.109 153.081 142.707 153.081C142.9 153.081 143.047 153.106 143.147 153.156V154.08ZM147.438 159C147.381 158.885 147.335 158.681 147.299 158.388C146.837 158.868 146.285 159.107 145.645 159.107C145.072 159.107 144.601 158.946 144.232 158.624C143.867 158.298 143.684 157.886 143.684 157.389C143.684 156.784 143.913 156.314 144.372 155.981C144.833 155.645 145.482 155.477 146.316 155.477H147.283V155.02C147.283 154.673 147.179 154.397 146.971 154.193C146.764 153.985 146.457 153.881 146.053 153.881C145.698 153.881 145.401 153.971 145.161 154.15C144.921 154.329 144.801 154.546 144.801 154.8H143.802C143.802 154.51 143.904 154.23 144.108 153.962C144.316 153.69 144.595 153.475 144.946 153.317C145.301 153.16 145.689 153.081 146.112 153.081C146.781 153.081 147.306 153.249 147.686 153.586C148.065 153.919 148.262 154.379 148.276 154.966V157.641C148.276 158.175 148.344 158.599 148.48 158.914V159H147.438ZM145.79 158.243C146.101 158.243 146.396 158.162 146.676 158.001C146.955 157.84 147.157 157.63 147.283 157.373V156.18H146.504C145.286 156.18 144.678 156.536 144.678 157.249C144.678 157.561 144.782 157.804 144.989 157.979C145.197 158.155 145.464 158.243 145.79 158.243ZM150.914 159H149.92V150.75H150.914V159ZM117.35 171.296C117.704 171.296 118.014 171.189 118.279 170.974C118.544 170.759 118.691 170.491 118.719 170.168H119.659C119.641 170.501 119.527 170.818 119.315 171.119C119.104 171.42 118.821 171.66 118.467 171.839C118.116 172.018 117.743 172.107 117.35 172.107C116.558 172.107 115.928 171.844 115.459 171.318C114.993 170.788 114.761 170.065 114.761 169.148V168.981C114.761 168.416 114.865 167.913 115.072 167.472C115.28 167.032 115.577 166.69 115.964 166.446C116.354 166.203 116.814 166.081 117.344 166.081C117.996 166.081 118.537 166.276 118.966 166.667C119.4 167.057 119.631 167.563 119.659 168.187H118.719C118.691 167.811 118.547 167.503 118.29 167.263C118.035 167.019 117.72 166.897 117.344 166.897C116.839 166.897 116.447 167.08 116.168 167.445C115.892 167.807 115.754 168.332 115.754 169.019V169.207C115.754 169.877 115.892 170.392 116.168 170.754C116.444 171.116 116.838 171.296 117.35 171.296ZM120.513 169.041C120.513 168.471 120.624 167.959 120.846 167.504C121.072 167.05 121.383 166.699 121.781 166.452C122.182 166.205 122.638 166.081 123.15 166.081C123.942 166.081 124.581 166.355 125.068 166.903C125.558 167.451 125.804 168.179 125.804 169.089V169.159C125.804 169.724 125.694 170.233 125.476 170.684C125.261 171.132 124.951 171.481 124.547 171.731C124.146 171.982 123.684 172.107 123.161 172.107C122.373 172.107 121.734 171.833 121.244 171.286C120.757 170.738 120.513 170.013 120.513 169.11V169.041ZM121.512 169.159C121.512 169.803 121.661 170.321 121.958 170.711C122.259 171.101 122.66 171.296 123.161 171.296C123.666 171.296 124.067 171.099 124.364 170.706C124.661 170.308 124.81 169.753 124.81 169.041C124.81 168.403 124.658 167.888 124.354 167.494C124.053 167.096 123.652 166.897 123.15 166.897C122.66 166.897 122.264 167.093 121.963 167.483C121.663 167.873 121.512 168.432 121.512 169.159ZM127.99 166.188L128.022 166.919C128.466 166.36 129.046 166.081 129.762 166.081C130.99 166.081 131.61 166.774 131.621 168.16V172H130.627V168.154C130.623 167.735 130.527 167.426 130.337 167.225C130.151 167.025 129.859 166.924 129.461 166.924C129.139 166.924 128.856 167.01 128.613 167.182C128.369 167.354 128.18 167.58 128.043 167.859V172H127.05V166.188H127.99ZM135.45 171.296C135.805 171.296 136.114 171.189 136.379 170.974C136.644 170.759 136.791 170.491 136.82 170.168H137.76C137.742 170.501 137.627 170.818 137.416 171.119C137.205 171.42 136.922 171.66 136.567 171.839C136.216 172.018 135.844 172.107 135.45 172.107C134.659 172.107 134.029 171.844 133.56 171.318C133.094 170.788 132.861 170.065 132.861 169.148V168.981C132.861 168.416 132.965 167.913 133.173 167.472C133.381 167.032 133.678 166.69 134.064 166.446C134.455 166.203 134.915 166.081 135.445 166.081C136.097 166.081 136.637 166.276 137.067 166.667C137.5 167.057 137.731 167.563 137.76 168.187H136.82C136.791 167.811 136.648 167.503 136.39 167.263C136.136 167.019 135.821 166.897 135.445 166.897C134.94 166.897 134.548 167.08 134.269 167.445C133.993 167.807 133.855 168.332 133.855 169.019V169.207C133.855 169.877 133.993 170.392 134.269 170.754C134.544 171.116 134.938 171.296 135.45 171.296ZM141.289 172.107C140.501 172.107 139.86 171.85 139.366 171.334C138.872 170.815 138.625 170.122 138.625 169.255V169.073C138.625 168.496 138.734 167.982 138.952 167.531C139.174 167.076 139.482 166.722 139.876 166.468C140.273 166.21 140.703 166.081 141.165 166.081C141.921 166.081 142.508 166.33 142.927 166.828C143.346 167.325 143.555 168.038 143.555 168.965V169.379H139.618C139.632 169.952 139.799 170.416 140.118 170.77C140.44 171.121 140.848 171.296 141.342 171.296C141.693 171.296 141.99 171.225 142.234 171.082C142.477 170.938 142.69 170.749 142.873 170.512L143.48 170.985C142.993 171.733 142.263 172.107 141.289 172.107ZM141.165 166.897C140.764 166.897 140.427 167.044 140.155 167.338C139.883 167.628 139.715 168.036 139.65 168.562H142.562V168.487C142.533 167.982 142.397 167.592 142.153 167.316C141.91 167.037 141.58 166.897 141.165 166.897ZM149.619 169.159C149.619 170.043 149.417 170.756 149.012 171.296C148.608 171.837 148.06 172.107 147.369 172.107C146.663 172.107 146.108 171.884 145.704 171.436V174.234H144.71V166.188H145.618L145.666 166.833C146.071 166.332 146.633 166.081 147.353 166.081C148.051 166.081 148.602 166.344 149.007 166.871C149.415 167.397 149.619 168.129 149.619 169.067V169.159ZM148.625 169.046C148.625 168.391 148.486 167.873 148.207 167.494C147.927 167.114 147.544 166.924 147.057 166.924C146.456 166.924 146.004 167.191 145.704 167.725V170.501C146.001 171.031 146.456 171.296 147.068 171.296C147.544 171.296 147.922 171.108 148.201 170.732C148.484 170.353 148.625 169.791 148.625 169.046ZM152.235 164.781V166.188H153.32V166.957H152.235V170.561C152.235 170.793 152.283 170.969 152.38 171.087C152.477 171.201 152.641 171.259 152.874 171.259C152.989 171.259 153.146 171.237 153.347 171.194V172C153.085 172.072 152.831 172.107 152.584 172.107C152.14 172.107 151.805 171.973 151.58 171.705C151.354 171.436 151.241 171.055 151.241 170.561V166.957H150.183V166.188H151.241V164.781H152.235Z" fill="black"/>
<path d="M134.65 135.568L134.369 103.368" stroke="#808080" stroke-width="3"/>
<path d="M246.824 0.103248C246.443 0.0810489 246.108 0.112498 245.745 0.109415C245.722 0.109415 245.697 0.103248 245.674 0.103248C138.116 -2.34053 25.0633 38.6451 34.8337 117.948C34.8722 118.269 34.9936 118.554 35.082 118.853C34.9409 119.673 34.9409 120.532 35.2447 121.466C41.1423 139.564 32.0904 155.474 9.43479 166.568C8.39653 167.075 7.6009 167.658 6.9059 168.265C4.6159 169.252 2.80834 170.765 1.83403 172.596C-2.41589 180.594 0.81269 188.735 10.5596 194.299C12.1659 195.213 14.027 195.836 15.9634 196.171C22.2551 198.451 28.8336 199.966 35.665 201.025C34.2609 205.991 34.9512 211.013 38.5993 215.742C31.7875 224.447 36.3093 234.051 49.7578 239.292C50.5167 239.59 51.2738 239.812 52.0186 239.984C54.3011 241.766 54.5212 244.628 53.6804 247.381C53.4199 248.223 53.387 249.065 53.4848 249.886C53.4256 250.631 53.4613 251.389 53.6804 252.153C57.2259 264.346 73.1102 271.079 91.2855 271.295C92.2645 271.308 93.1673 271.242 94.0194 271.129C94.8602 271.154 95.7414 271.123 96.6508 271.026C125.84 267.922 159.074 269.657 170.037 290.678C172.23 294.877 178.087 296.302 183.335 295.747C185.104 296.618 187.433 297.113 190.368 296.978C243.26 294.554 295.687 289.516 348.205 284.894C350.063 284.731 351.672 284.337 353.061 283.779C359.428 282.476 364.571 277.805 360.459 272.769C325.368 229.87 396.505 183.069 410.006 141.857C410.302 140.966 410.307 140.141 410.187 139.355C424.457 71.6685 353.028 6.37519 246.824 0.103248ZM387.785 136.337C387.647 136.963 387.628 137.562 387.68 138.138C373.014 182.234 308.697 224.864 334.16 271.036C286.333 275.294 238.538 279.666 190.362 281.876C190.02 281.892 189.722 281.952 189.395 281.986C172.176 256.857 132.112 252.351 92.4714 256.287C92.0755 256.256 91.7077 256.199 91.2827 256.194C86.7694 256.137 84.4126 255.83 80.8906 254.421C81.1991 254.484 79.0812 253.375 79.1 253.394C78.7972 253.194 78.6081 253.075 78.4699 252.996C78.4699 252.936 78.3486 252.758 77.9037 252.285C77.2332 251.58 76.7385 250.588 76.3275 249.467C78.3711 240.211 74.3629 232.17 62.5339 226.252C61.5831 225.779 60.5185 225.513 59.4181 225.338C59.0768 225.15 58.7448 224.968 58.3865 224.731C58.4513 224.749 58.3912 224.656 58.1861 224.439C58.1861 224.248 58.1664 224.186 58.1335 224.204C58.2745 223.804 58.41 223.403 58.6253 223.014C58.63 222.999 60.3473 221.252 60.9153 220.725C62.5028 219.256 62.8282 217.475 62.3288 215.762C62.801 214.071 62.4652 212.305 60.9153 210.833C56.5582 206.694 57.415 203.171 60.9153 198.819C65.928 192.59 56.8987 186.904 48.9001 187.486C48.8164 187.48 48.7421 187.461 48.6612 187.452C40.5469 186.75 32.7035 185.194 25.6718 182.439C25.1677 182.244 24.673 182.125 24.1793 181.978C23.8275 181.643 23.5012 181.301 23.2068 180.948C23.157 180.851 23.1184 180.766 23.0498 180.628C22.9924 180.453 22.952 180.337 22.9134 180.224C22.8937 179.877 22.9087 179.535 22.9322 179.188C22.9708 179.094 23.0451 178.877 23.1429 178.543C52.4052 163.55 64.9743 142.943 57.8542 118.856C57.8683 118.554 57.9162 118.272 57.8777 117.951C49.0948 46.6677 150.234 13.0455 245.668 15.2118C245.969 15.2179 246.236 15.1834 246.527 15.1772C246.633 15.1834 246.718 15.205 246.823 15.2118C337.426 20.5637 400.694 78.5022 387.785 136.337Z" fill="black" fill-opacity="0.9"/>
<path d="M310.65 134.568L310.369 102.368" stroke="#808080" stroke-width="3"/>
<path d="M266 161.5L284 134H338L356 161.5L338 189H284L266 161.5Z" fill="#F797E2" stroke="#8E1392" stroke-width="2.75"/>
<path d="M311 186.708C333.368 186.708 351.5 175.422 351.5 161.5C351.5 147.578 333.368 136.292 311 136.292C288.632 136.292 270.5 147.578 270.5 161.5C270.5 175.422 288.632 186.708 311 186.708Z" fill="#F797E2" stroke="#8E1392" stroke-width="1.65"/>
<path d="M263 78H179" stroke="#808080" stroke-width="3" stroke-dasharray="20 10"/>
<path d="M266 77.5L284 50H338L356 77.5L338 105H284L266 77.5Z" fill="#EB8989" stroke="#E04848" stroke-width="1.65"/>
<path d="M296.321 75H295.284L291.347 68.9736V75H290.311V67.1797H291.347L295.295 73.2329V67.1797H296.321V75ZM300.408 75.1074C299.62 75.1074 298.979 74.8496 298.485 74.334C297.991 73.8148 297.744 73.1219 297.744 72.2554V72.0728C297.744 71.4963 297.853 70.9824 298.072 70.5312C298.294 70.0765 298.602 69.722 298.996 69.4678C299.393 69.21 299.823 69.0811 300.285 69.0811C301.04 69.0811 301.627 69.3299 302.046 69.8276C302.465 70.3254 302.675 71.0379 302.675 71.9653V72.3789H298.738C298.752 72.9518 298.919 73.4155 299.237 73.77C299.56 74.1209 299.968 74.2964 300.462 74.2964C300.813 74.2964 301.11 74.2248 301.354 74.0815C301.597 73.9383 301.81 73.7485 301.993 73.5122L302.6 73.9849C302.113 74.7332 301.382 75.1074 300.408 75.1074ZM300.285 69.8975C299.884 69.8975 299.547 70.0443 299.275 70.3379C299.003 70.6279 298.834 71.0361 298.77 71.5625H301.681V71.4873C301.653 70.9824 301.516 70.5921 301.273 70.3164C301.029 70.0371 300.7 69.8975 300.285 69.8975ZM303.593 72.0459C303.593 71.14 303.803 70.4202 304.222 69.8867C304.641 69.3496 305.196 69.0811 305.887 69.0811C306.596 69.0811 307.149 69.3317 307.546 69.833L307.595 69.1885H308.502V74.8604C308.502 75.6123 308.279 76.2049 307.831 76.6382C307.387 77.0715 306.789 77.2881 306.037 77.2881C305.618 77.2881 305.208 77.1986 304.807 77.0195C304.406 76.8405 304.1 76.5952 303.889 76.2837L304.404 75.6875C304.83 76.2139 305.351 76.4771 305.967 76.4771C306.451 76.4771 306.827 76.341 307.095 76.0688C307.367 75.7967 307.503 75.4136 307.503 74.9194V74.4199C307.106 74.8783 306.563 75.1074 305.876 75.1074C305.196 75.1074 304.644 74.8335 304.222 74.2856C303.803 73.7378 303.593 72.9912 303.593 72.0459ZM304.592 72.1587C304.592 72.814 304.727 73.3296 304.995 73.7056C305.264 74.078 305.64 74.2642 306.123 74.2642C306.75 74.2642 307.21 73.9795 307.503 73.4102V70.7568C307.199 70.2018 306.743 69.9243 306.134 69.9243C305.65 69.9243 305.273 70.1123 305 70.4883C304.728 70.8643 304.592 71.4211 304.592 72.1587ZM313.594 75C313.537 74.8854 313.49 74.6813 313.455 74.3877C312.993 74.8675 312.441 75.1074 311.8 75.1074C311.227 75.1074 310.757 74.9463 310.388 74.624C310.022 74.2982 309.84 73.8864 309.84 73.3887C309.84 72.7835 310.069 72.3145 310.527 71.9814C310.989 71.6449 311.637 71.4766 312.472 71.4766H313.438V71.02C313.438 70.6727 313.335 70.397 313.127 70.1929C312.919 69.9852 312.613 69.8813 312.208 69.8813C311.854 69.8813 311.557 69.9709 311.317 70.1499C311.077 70.3289 310.957 70.5456 310.957 70.7998H309.958C309.958 70.5098 310.06 70.2305 310.264 69.9619C310.472 69.6898 310.751 69.4749 311.102 69.3174C311.457 69.1598 311.845 69.0811 312.268 69.0811C312.937 69.0811 313.462 69.2493 313.841 69.5859C314.221 69.9189 314.418 70.3791 314.432 70.9663V73.6411C314.432 74.1746 314.5 74.599 314.636 74.9141V75H313.594ZM311.945 74.2427C312.257 74.2427 312.552 74.1621 312.832 74.001C313.111 73.8398 313.313 73.6304 313.438 73.3726V72.1802H312.66C311.442 72.1802 310.833 72.5365 310.833 73.249C310.833 73.5605 310.937 73.804 311.145 73.9795C311.353 74.1549 311.619 74.2427 311.945 74.2427ZM317.338 67.7812V69.1885H318.423V69.9565H317.338V73.5605C317.338 73.7933 317.386 73.9688 317.483 74.0869C317.58 74.2015 317.744 74.2588 317.977 74.2588C318.092 74.2588 318.249 74.2373 318.45 74.1943V75C318.188 75.0716 317.934 75.1074 317.687 75.1074C317.243 75.1074 316.908 74.9731 316.683 74.7046C316.457 74.436 316.344 74.0547 316.344 73.5605V69.9565H315.286V69.1885H316.344V67.7812H317.338ZM320.668 75H319.674V69.1885H320.668V75ZM319.594 67.647C319.594 67.4858 319.642 67.3498 319.739 67.2388C319.839 67.1278 319.986 67.0723 320.179 67.0723C320.373 67.0723 320.519 67.1278 320.62 67.2388C320.72 67.3498 320.77 67.4858 320.77 67.647C320.77 67.8081 320.72 67.9424 320.62 68.0498C320.519 68.1572 320.373 68.2109 320.179 68.2109C319.986 68.2109 319.839 68.1572 319.739 68.0498C319.642 67.9424 319.594 67.8081 319.594 67.647ZM324.181 73.6519L325.62 69.1885H326.635L324.551 75H323.794L321.688 69.1885H322.704L324.181 73.6519ZM329.928 75.1074C329.14 75.1074 328.499 74.8496 328.005 74.334C327.511 73.8148 327.264 73.1219 327.264 72.2554V72.0728C327.264 71.4963 327.373 70.9824 327.591 70.5312C327.813 70.0765 328.121 69.722 328.515 69.4678C328.913 69.21 329.342 69.0811 329.804 69.0811C330.56 69.0811 331.147 69.3299 331.566 69.8276C331.985 70.3254 332.194 71.0379 332.194 71.9653V72.3789H328.257C328.272 72.9518 328.438 73.4155 328.757 73.77C329.079 74.1209 329.487 74.2964 329.981 74.2964C330.332 74.2964 330.63 74.2248 330.873 74.0815C331.117 73.9383 331.33 73.7485 331.512 73.5122L332.119 73.9849C331.632 74.7332 330.902 75.1074 329.928 75.1074ZM329.804 69.8975C329.403 69.8975 329.067 70.0443 328.794 70.3379C328.522 70.6279 328.354 71.0361 328.29 71.5625H331.201V71.4873C331.172 70.9824 331.036 70.5921 330.792 70.3164C330.549 70.0371 330.22 69.8975 329.804 69.8975ZM294.35 87.2964C294.704 87.2964 295.014 87.189 295.279 86.9741C295.544 86.7593 295.691 86.4907 295.719 86.1685H296.659C296.641 86.5015 296.527 86.8184 296.315 87.1191C296.104 87.4199 295.821 87.6598 295.467 87.8389C295.116 88.0179 294.743 88.1074 294.35 88.1074C293.558 88.1074 292.928 87.8442 292.459 87.3179C291.993 86.7879 291.761 86.0646 291.761 85.1479V84.9814C291.761 84.4157 291.865 83.9126 292.072 83.4722C292.28 83.0317 292.577 82.6898 292.964 82.4463C293.354 82.2028 293.814 82.0811 294.344 82.0811C294.996 82.0811 295.537 82.2762 295.966 82.6665C296.4 83.0568 296.631 83.5635 296.659 84.1865H295.719C295.691 83.8105 295.547 83.5026 295.29 83.2627C295.035 83.0192 294.72 82.8975 294.344 82.8975C293.839 82.8975 293.447 83.0801 293.168 83.4453C292.892 83.807 292.754 84.3315 292.754 85.019V85.207C292.754 85.8766 292.892 86.3923 293.168 86.7539C293.444 87.1156 293.838 87.2964 294.35 87.2964ZM297.513 85.0405C297.513 84.4712 297.624 83.9591 297.846 83.5044C298.072 83.0496 298.383 82.6987 298.781 82.4517C299.182 82.2046 299.638 82.0811 300.15 82.0811C300.942 82.0811 301.581 82.355 302.068 82.9028C302.558 83.4507 302.804 84.1794 302.804 85.0889V85.1587C302.804 85.7244 302.694 86.2329 302.476 86.6841C302.261 87.1317 301.951 87.4808 301.547 87.7314C301.146 87.9821 300.684 88.1074 300.161 88.1074C299.373 88.1074 298.734 87.8335 298.244 87.2856C297.757 86.7378 297.513 86.0127 297.513 85.1104V85.0405ZM298.512 85.1587C298.512 85.8032 298.661 86.3206 298.958 86.7109C299.259 87.1012 299.66 87.2964 300.161 87.2964C300.666 87.2964 301.067 87.0994 301.364 86.7056C301.661 86.3081 301.81 85.7531 301.81 85.0405C301.81 84.4032 301.658 83.8875 301.354 83.4937C301.053 83.0962 300.652 82.8975 300.15 82.8975C299.66 82.8975 299.264 83.0926 298.963 83.4829C298.663 83.8732 298.512 84.4318 298.512 85.1587ZM304.99 82.1885L305.022 82.9189C305.466 82.3604 306.046 82.0811 306.762 82.0811C307.99 82.0811 308.61 82.7739 308.621 84.1597V88H307.627V84.1543C307.623 83.7354 307.527 83.4256 307.337 83.2251C307.151 83.0246 306.859 82.9243 306.461 82.9243C306.139 82.9243 305.856 83.0103 305.613 83.1821C305.369 83.354 305.18 83.5796 305.043 83.8589V88H304.05V82.1885H304.99ZM312.45 87.2964C312.805 87.2964 313.114 87.189 313.379 86.9741C313.644 86.7593 313.791 86.4907 313.82 86.1685H314.76C314.742 86.5015 314.627 86.8184 314.416 87.1191C314.205 87.4199 313.922 87.6598 313.567 87.8389C313.216 88.0179 312.844 88.1074 312.45 88.1074C311.659 88.1074 311.029 87.8442 310.56 87.3179C310.094 86.7879 309.861 86.0646 309.861 85.1479V84.9814C309.861 84.4157 309.965 83.9126 310.173 83.4722C310.381 83.0317 310.678 82.6898 311.064 82.4463C311.455 82.2028 311.915 82.0811 312.445 82.0811C313.097 82.0811 313.637 82.2762 314.067 82.6665C314.5 83.0568 314.731 83.5635 314.76 84.1865H313.82C313.791 83.8105 313.648 83.5026 313.39 83.2627C313.136 83.0192 312.821 82.8975 312.445 82.8975C311.94 82.8975 311.548 83.0801 311.269 83.4453C310.993 83.807 310.855 84.3315 310.855 85.019V85.207C310.855 85.8766 310.993 86.3923 311.269 86.7539C311.544 87.1156 311.938 87.2964 312.45 87.2964ZM318.289 88.1074C317.501 88.1074 316.86 87.8496 316.366 87.334C315.872 86.8148 315.625 86.1219 315.625 85.2554V85.0728C315.625 84.4963 315.734 83.9824 315.952 83.5312C316.174 83.0765 316.482 82.722 316.876 82.4678C317.273 82.21 317.703 82.0811 318.165 82.0811C318.921 82.0811 319.508 82.3299 319.927 82.8276C320.346 83.3254 320.555 84.0379 320.555 84.9653V85.3789H316.618C316.632 85.9518 316.799 86.4155 317.118 86.77C317.44 87.1209 317.848 87.2964 318.342 87.2964C318.693 87.2964 318.99 87.2248 319.234 87.0815C319.477 86.9383 319.69 86.7485 319.873 86.5122L320.48 86.9849C319.993 87.7332 319.263 88.1074 318.289 88.1074ZM318.165 82.8975C317.764 82.8975 317.427 83.0443 317.155 83.3379C316.883 83.6279 316.715 84.0361 316.65 84.5625H319.562V84.4873C319.533 83.9824 319.397 83.5921 319.153 83.3164C318.91 83.0371 318.58 82.8975 318.165 82.8975ZM326.619 85.1587C326.619 86.0431 326.417 86.7557 326.012 87.2964C325.608 87.8371 325.06 88.1074 324.369 88.1074C323.663 88.1074 323.108 87.8836 322.704 87.436V90.2344H321.71V82.1885H322.618L322.666 82.833C323.071 82.3317 323.633 82.0811 324.353 82.0811C325.051 82.0811 325.602 82.3442 326.007 82.8706C326.415 83.397 326.619 84.1292 326.619 85.0674V85.1587ZM325.625 85.0459C325.625 84.3906 325.486 83.8732 325.207 83.4937C324.927 83.1141 324.544 82.9243 324.057 82.9243C323.456 82.9243 323.004 83.1911 322.704 83.7246V86.5015C323.001 87.0314 323.456 87.2964 324.068 87.2964C324.544 87.2964 324.922 87.1084 325.201 86.7324C325.484 86.3529 325.625 85.7907 325.625 85.0459ZM329.235 80.7812V82.1885H330.32V82.9565H329.235V86.5605C329.235 86.7933 329.283 86.9688 329.38 87.0869C329.477 87.2015 329.641 87.2588 329.874 87.2588C329.989 87.2588 330.146 87.2373 330.347 87.1943V88C330.085 88.0716 329.831 88.1074 329.584 88.1074C329.14 88.1074 328.805 87.9731 328.58 87.7046C328.354 87.436 328.241 87.0547 328.241 86.5605V82.9565H327.183V82.1885H328.241V80.7812H329.235Z" fill="black"/>
<path d="M288.688 154.959H285.412L284.676 157H283.613L286.599 149.18H287.501L290.493 157H289.435L288.688 154.959ZM285.724 154.11H288.382L287.05 150.453L285.724 154.11ZM292.325 151.188L292.352 151.833C292.778 151.332 293.352 151.081 294.076 151.081C294.889 151.081 295.442 151.393 295.735 152.016C295.929 151.736 296.179 151.511 296.487 151.339C296.799 151.167 297.166 151.081 297.588 151.081C298.863 151.081 299.511 151.756 299.533 153.106V157H298.539V153.165C298.539 152.75 298.444 152.44 298.254 152.236C298.065 152.028 297.746 151.924 297.298 151.924C296.93 151.924 296.623 152.035 296.38 152.257C296.136 152.476 295.995 152.771 295.956 153.144V157H294.957V153.192C294.957 152.347 294.543 151.924 293.716 151.924C293.064 151.924 292.618 152.202 292.378 152.757V157H291.385V151.188H292.325ZM305.957 154.159C305.957 155.047 305.752 155.761 305.344 156.302C304.936 156.839 304.388 157.107 303.701 157.107C302.967 157.107 302.399 156.848 301.998 156.329L301.95 157H301.037V148.75H302.03V151.828C302.431 151.33 302.985 151.081 303.69 151.081C304.395 151.081 304.949 151.348 305.35 151.881C305.754 152.415 305.957 153.145 305.957 154.073V154.159ZM304.963 154.046C304.963 153.369 304.832 152.846 304.571 152.478C304.309 152.109 303.933 151.924 303.443 151.924C302.788 151.924 302.317 152.229 302.03 152.837V155.351C302.335 155.96 302.809 156.264 303.454 156.264C303.93 156.264 304.3 156.08 304.565 155.711C304.83 155.342 304.963 154.787 304.963 154.046ZM308.293 157H307.299V151.188H308.293V157ZM307.219 149.647C307.219 149.486 307.267 149.35 307.364 149.239C307.464 149.128 307.611 149.072 307.804 149.072C307.998 149.072 308.144 149.128 308.245 149.239C308.345 149.35 308.395 149.486 308.395 149.647C308.395 149.808 308.345 149.942 308.245 150.05C308.144 150.157 307.998 150.211 307.804 150.211C307.611 150.211 307.464 150.157 307.364 150.05C307.267 149.942 307.219 149.808 307.219 149.647ZM311.806 155.652L313.245 151.188H314.26L312.176 157H311.419L309.313 151.188H310.329L311.806 155.652ZM318.718 157C318.661 156.885 318.614 156.681 318.579 156.388C318.117 156.868 317.565 157.107 316.924 157.107C316.351 157.107 315.881 156.946 315.512 156.624C315.146 156.298 314.964 155.886 314.964 155.389C314.964 154.784 315.193 154.314 315.651 153.981C316.113 153.645 316.761 153.477 317.596 153.477H318.562V153.02C318.562 152.673 318.459 152.397 318.251 152.193C318.043 151.985 317.737 151.881 317.333 151.881C316.978 151.881 316.681 151.971 316.441 152.15C316.201 152.329 316.081 152.546 316.081 152.8H315.082C315.082 152.51 315.184 152.23 315.388 151.962C315.596 151.69 315.875 151.475 316.226 151.317C316.581 151.16 316.969 151.081 317.392 151.081C318.061 151.081 318.586 151.249 318.965 151.586C319.345 151.919 319.542 152.379 319.556 152.966V155.641C319.556 156.175 319.624 156.599 319.76 156.914V157H318.718ZM317.069 156.243C317.381 156.243 317.676 156.162 317.956 156.001C318.235 155.84 318.437 155.63 318.562 155.373V154.18H317.784C316.566 154.18 315.958 154.536 315.958 155.249C315.958 155.561 316.061 155.804 316.269 155.979C316.477 156.155 316.743 156.243 317.069 156.243ZM322.193 157H321.2V148.75H322.193V157ZM326.2 157.107C325.412 157.107 324.771 156.85 324.277 156.334C323.783 155.815 323.536 155.122 323.536 154.255V154.073C323.536 153.496 323.645 152.982 323.864 152.531C324.086 152.076 324.394 151.722 324.788 151.468C325.185 151.21 325.615 151.081 326.077 151.081C326.832 151.081 327.419 151.33 327.838 151.828C328.257 152.325 328.467 153.038 328.467 153.965V154.379H324.53C324.544 154.952 324.711 155.416 325.029 155.77C325.352 156.121 325.76 156.296 326.254 156.296C326.605 156.296 326.902 156.225 327.146 156.082C327.389 155.938 327.602 155.749 327.785 155.512L328.392 155.985C327.905 156.733 327.174 157.107 326.2 157.107ZM326.077 151.897C325.676 151.897 325.339 152.044 325.067 152.338C324.795 152.628 324.626 153.036 324.562 153.562H327.473V153.487C327.444 152.982 327.308 152.592 327.065 152.316C326.821 152.037 326.492 151.897 326.077 151.897ZM330.562 151.188L330.594 151.919C331.038 151.36 331.618 151.081 332.334 151.081C333.562 151.081 334.182 151.774 334.192 153.16V157H333.199V153.154C333.195 152.735 333.098 152.426 332.909 152.225C332.722 152.025 332.431 151.924 332.033 151.924C331.711 151.924 331.428 152.01 331.185 152.182C330.941 152.354 330.751 152.58 330.615 152.859V157H329.622V151.188H330.562ZM337.039 149.781V151.188H338.124V151.957H337.039V155.561C337.039 155.793 337.087 155.969 337.184 156.087C337.281 156.201 337.445 156.259 337.678 156.259C337.793 156.259 337.95 156.237 338.151 156.194V157C337.889 157.072 337.635 157.107 337.388 157.107C336.944 157.107 336.609 156.973 336.384 156.705C336.158 156.436 336.045 156.055 336.045 155.561V151.957H334.987V151.188H336.045V149.781H337.039ZM294.35 169.296C294.704 169.296 295.014 169.189 295.279 168.974C295.544 168.759 295.691 168.491 295.719 168.168H296.659C296.641 168.501 296.527 168.818 296.315 169.119C296.104 169.42 295.821 169.66 295.467 169.839C295.116 170.018 294.743 170.107 294.35 170.107C293.558 170.107 292.928 169.844 292.459 169.318C291.993 168.788 291.761 168.065 291.761 167.148V166.981C291.761 166.416 291.865 165.913 292.072 165.472C292.28 165.032 292.577 164.69 292.964 164.446C293.354 164.203 293.814 164.081 294.344 164.081C294.996 164.081 295.537 164.276 295.966 164.667C296.4 165.057 296.631 165.563 296.659 166.187H295.719C295.691 165.811 295.547 165.503 295.29 165.263C295.035 165.019 294.72 164.897 294.344 164.897C293.839 164.897 293.447 165.08 293.168 165.445C292.892 165.807 292.754 166.332 292.754 167.019V167.207C292.754 167.877 292.892 168.392 293.168 168.754C293.444 169.116 293.838 169.296 294.35 169.296ZM297.513 167.041C297.513 166.471 297.624 165.959 297.846 165.504C298.072 165.05 298.383 164.699 298.781 164.452C299.182 164.205 299.638 164.081 300.15 164.081C300.942 164.081 301.581 164.355 302.068 164.903C302.558 165.451 302.804 166.179 302.804 167.089V167.159C302.804 167.724 302.694 168.233 302.476 168.684C302.261 169.132 301.951 169.481 301.547 169.731C301.146 169.982 300.684 170.107 300.161 170.107C299.373 170.107 298.734 169.833 298.244 169.286C297.757 168.738 297.513 168.013 297.513 167.11V167.041ZM298.512 167.159C298.512 167.803 298.661 168.321 298.958 168.711C299.259 169.101 299.66 169.296 300.161 169.296C300.666 169.296 301.067 169.099 301.364 168.706C301.661 168.308 301.81 167.753 301.81 167.041C301.81 166.403 301.658 165.888 301.354 165.494C301.053 165.096 300.652 164.897 300.15 164.897C299.66 164.897 299.264 165.093 298.963 165.483C298.663 165.873 298.512 166.432 298.512 167.159ZM304.99 164.188L305.022 164.919C305.466 164.36 306.046 164.081 306.762 164.081C307.99 164.081 308.61 164.774 308.621 166.16V170H307.627V166.154C307.623 165.735 307.527 165.426 307.337 165.225C307.151 165.025 306.859 164.924 306.461 164.924C306.139 164.924 305.856 165.01 305.613 165.182C305.369 165.354 305.18 165.58 305.043 165.859V170H304.05V164.188H304.99ZM312.45 169.296C312.805 169.296 313.114 169.189 313.379 168.974C313.644 168.759 313.791 168.491 313.82 168.168H314.76C314.742 168.501 314.627 168.818 314.416 169.119C314.205 169.42 313.922 169.66 313.567 169.839C313.216 170.018 312.844 170.107 312.45 170.107C311.659 170.107 311.029 169.844 310.56 169.318C310.094 168.788 309.861 168.065 309.861 167.148V166.981C309.861 166.416 309.965 165.913 310.173 165.472C310.381 165.032 310.678 164.69 311.064 164.446C311.455 164.203 311.915 164.081 312.445 164.081C313.097 164.081 313.637 164.276 314.067 164.667C314.5 165.057 314.731 165.563 314.76 166.187H313.82C313.791 165.811 313.648 165.503 313.39 165.263C313.136 165.019 312.821 164.897 312.445 164.897C311.94 164.897 311.548 165.08 311.269 165.445C310.993 165.807 310.855 166.332 310.855 167.019V167.207C310.855 167.877 310.993 168.392 311.269 168.754C311.544 169.116 311.938 169.296 312.45 169.296ZM318.289 170.107C317.501 170.107 316.86 169.85 316.366 169.334C315.872 168.815 315.625 168.122 315.625 167.255V167.073C315.625 166.496 315.734 165.982 315.952 165.531C316.174 165.076 316.482 164.722 316.876 164.468C317.273 164.21 317.703 164.081 318.165 164.081C318.921 164.081 319.508 164.33 319.927 164.828C320.346 165.325 320.555 166.038 320.555 166.965V167.379H316.618C316.632 167.952 316.799 168.416 317.118 168.77C317.44 169.121 317.848 169.296 318.342 169.296C318.693 169.296 318.99 169.225 319.234 169.082C319.477 168.938 319.69 168.749 319.873 168.512L320.48 168.985C319.993 169.733 319.263 170.107 318.289 170.107ZM318.165 164.897C317.764 164.897 317.427 165.044 317.155 165.338C316.883 165.628 316.715 166.036 316.65 166.562H319.562V166.487C319.533 165.982 319.397 165.592 319.153 165.316C318.91 165.037 318.58 164.897 318.165 164.897ZM326.619 167.159C326.619 168.043 326.417 168.756 326.012 169.296C325.608 169.837 325.06 170.107 324.369 170.107C323.663 170.107 323.108 169.884 322.704 169.436V172.234H321.71V164.188H322.618L322.666 164.833C323.071 164.332 323.633 164.081 324.353 164.081C325.051 164.081 325.602 164.344 326.007 164.871C326.415 165.397 326.619 166.129 326.619 167.067V167.159ZM325.625 167.046C325.625 166.391 325.486 165.873 325.207 165.494C324.927 165.114 324.544 164.924 324.057 164.924C323.456 164.924 323.004 165.191 322.704 165.725V168.501C323.001 169.031 323.456 169.296 324.068 169.296C324.544 169.296 324.922 169.108 325.201 168.732C325.484 168.353 325.625 167.791 325.625 167.046ZM329.235 162.781V164.188H330.32V164.957H329.235V168.561C329.235 168.793 329.283 168.969 329.38 169.087C329.477 169.201 329.641 169.259 329.874 169.259C329.989 169.259 330.146 169.237 330.347 169.194V170C330.085 170.072 329.831 170.107 329.584 170.107C329.14 170.107 328.805 169.973 328.58 169.705C328.354 169.436 328.241 169.055 328.241 168.561V164.957H327.183V164.188H328.241V162.781H329.235Z" fill="black"/>
</svg>
