<?xml version="1.0" standalone="no"?>
<svg id="CAMSVG" xmlns="http://www.w3.org/2000/svg" height="1400px" width="2400px"><rect id="background" x="0" y="0" width="100%" height="100%" fill="white"></rect><marker id="arrowRight" markerWidth="30" markerHeight="15" refX="30" refY="7.5" orient="auto" markerUnits="userSpaceOnUse"><polygon points="30 0, 30 15, 0 7.5" fill="#8c8c8c"></polygon></marker><marker id="arrowLeft" markerWidth="30" markerHeight="15" refX="0" refY="7.5" orient="auto" markerUnits="userSpaceOnUse"><polygon points="0 0, 30 7.5, 0 15" fill="#8c8c8c"></polygon></marker><g><line class="connector" id="897a2eb1-1cce-4dab-8115-f1dc5df8d630" transform="translate(332,430.6666564941406) scale(1,1) " x1="-51.06905866848082" y1="-25.197068594140323" x2="-175.93094133151916" y2="-86.8029314058597" stroke="#808080" stroke-width="3" stroke-linecap="butt"></line><line transform="translate(332,430.6666564941406) " class="outer-connector" id="897a2eb1-1cce-4dab-8115-f1dc5df8d630" x1="0" y1="0" x2="-193.86664101443708" y2="-95.65226340800422" stroke="rgba(255, 255, 255, 0)" stroke-width="30"></line></g><g><line class="connector" id="e7e8ff54-f257-482c-a4c2-e467e1a73c5a" transform="translate(332,430.6666564941406) scale(1,1) " x1="-58.90371903613516" y1="-9.300587216231866" x2="-169.0962809638648" y2="-26.69941278376813" stroke="#808080" stroke-width="3" stroke-linecap="butt"></line><line transform="translate(332,430.6666564941406) " class="outer-connector" id="e7e8ff54-f257-482c-a4c2-e467e1a73c5a" x1="0" y1="0" x2="-188.8515402704462" y2="-29.81866425322835" stroke="rgba(255, 255, 255, 0)" stroke-width="30"></line></g><g><line class="connector" id="6660bc2f-cdf5-41e9-9212-50928422daff" transform="translate(332,430.6666564941406) scale(1,1) " x1="-59.03636329241443" y1="8.727114573661263" x2="-170.96363670758555" y2="25.272885426338732" stroke="#808080" stroke-width="3" stroke-linecap="butt"></line><line transform="translate(332,430.6666564941406) " class="outer-connector" id="6660bc2f-cdf5-41e9-9212-50928422daff" x1="0" y1="0" x2="-190.74862869513294" y2="28.197623372323996" stroke="rgba(255, 255, 255, 0)" stroke-width="30"></line></g><g><line class="connector" id="6a156309-efe9-4b91-a768-4e84805790e5" transform="translate(332,430.6666564941406) scale(1,1) " x1="-52.011056798516464" y1="23.987858092419234" x2="-179.98894320148355" y2="83.01214190758078" stroke="#808080" stroke-width="3" stroke-linecap="butt"></line><line transform="translate(332,430.6666564941406) " class="outer-connector" id="6a156309-efe9-4b91-a768-4e84805790e5" x1="0" y1="0" x2="-198.1504214002724" y2="91.38834090443598" stroke="rgba(255, 255, 255, 0)" stroke-width="30"></line></g><g><line class="connector" id="fc709b41-8eaa-4a95-9a01-1d60985a2e4b" transform="translate(488,466.6666564941406) scale(1,1) " x1="-57.71732509769716" y1="-13.319382714853193" x2="-98.28267490230283" y2="-22.680617285146813" stroke="#808080" stroke-width="3" stroke-linecap="butt"></line><line transform="translate(488,466.6666564941406) " class="outer-connector" id="fc709b41-8eaa-4a95-9a01-1d60985a2e4b" x1="0" y1="0" x2="-117.77049881619523" y2="-27.17780741912198" stroke="rgba(255, 255, 255, 0)" stroke-width="30"></line></g><g><line class="connector" id="3e6905b3-3f03-4995-b069-6621d8b86fff" transform="translate(487,616.6666564941406) scale(1,1) " x1="0.2666696289383517" y1="-40.00044434075248" x2="0.7333303710616551" y2="-109.9995556592475" stroke="#808080" stroke-width="3" stroke-linecap="butt"></line><line transform="translate(487,616.6666564941406) " class="outer-connector" id="3e6905b3-3f03-4995-b069-6621d8b86fff" x1="0" y1="0" x2="0.8666607415307882" y2="-129.99911122961734" stroke="rgba(255, 255, 255, 0)" stroke-width="30"></line></g><g><line class="connector" id="41a11062-a5da-416c-a19f-ac3abe481de1" transform="translate(332,744.6666564941406) scale(1,1) " x1="41.15071781242881" y1="-33.98252825800572" x2="113.8492821875712" y2="-94.01747174199427" stroke="#808080" stroke-width="3" stroke-linecap="butt"></line><line transform="translate(332,744.6666564941406) " class="outer-connector" id="41a11062-a5da-416c-a19f-ac3abe481de1" x1="0" y1="0" x2="129.27064100586983" y2="-106.75252934678282" stroke="rgba(255, 255, 255, 0)" stroke-width="30"></line></g><g><line class="connector" id="a670a8b4-eca6-4c78-805e-18186d4d690c" transform="translate(492,748.6666564941406) scale(1,1) " x1="-1.5156909219620787" y1="-40.01424033979888" x2="-3.484309078037921" y2="-91.98575966020113" stroke="#808080" stroke-width="3" stroke-linecap="butt"></line><line transform="translate(492,748.6666564941406) " class="outer-connector" id="a670a8b4-eca6-4c78-805e-18186d4d690c" x1="0" y1="0" x2="-4.241341933939003" y2="-111.9714270559897" stroke="rgba(255, 255, 255, 0)" stroke-width="30"></line></g><g><line class="connector" id="e392a0d0-7452-46af-b595-1f27d1dad511" transform="translate(646,742.6666564941406) scale(1,1) " x1="-42.103650322838995" y1="-33.365156859608256" x2="-116.89634967716101" y2="-92.63484314039174" stroke="#808080" stroke-width="3" stroke-linecap="butt"></line><line transform="translate(646,742.6666564941406) " class="outer-connector" id="e392a0d0-7452-46af-b595-1f27d1dad511" x1="0" y1="0" x2="-132.57126720741118" y2="-105.05647590021263" stroke="rgba(255, 255, 255, 0)" stroke-width="30"></line></g><g><line class="connector" id="8f30306b-c8fa-4670-a872-7ae43e32b80f" transform="translate(656,432.6666564941406) scale(1,1) " x1="-58.22495827641205" y1="11.783622508321487" x2="-109.77504172358795" y2="22.216377491678514" stroke="#808080" stroke-width="3" stroke-linecap="butt"></line><line transform="translate(656,432.6666564941406) " class="outer-connector" id="8f30306b-c8fa-4670-a872-7ae43e32b80f" x1="0" y1="0" x2="-129.37762834664613" y2="26.183567641583146" stroke="rgba(255, 255, 255, 0)" stroke-width="30"></line></g><g><line class="connector" id="c5f195bc-7256-4c9b-9319-3dba470cdda4" transform="translate(488,466.6666564941406) scale(1,1) " x1="-0.23809734668148994" y1="-40.00035424249039" x2="-0.7619026533185079" y2="-127.9996457575096" stroke="#808080" stroke-width="9" stroke-dasharray="20,10"></line><line transform="translate(488,466.6666564941406) " class="outer-connector" id="c5f195bc-7256-4c9b-9319-3dba470cdda4" x1="0" y1="0" x2="-0.8809481634436552" y2="-147.99929145853437" stroke="rgba(255, 255, 255, 0)" stroke-width="30"></line></g><g><line class="connector" id="5a887e82-776d-49ca-a64d-2f69507bc0ab" transform="translate(365,195.66665649414062) scale(1,1) " x1="40.63134444159231" y1="34.303512110524665" x2="81.36865555840767" y2="68.69648788947534" stroke="#808080" stroke-width="3" stroke-linecap="butt"></line><line transform="translate(365,195.66665649414062) " class="outer-connector" id="5a887e82-776d-49ca-a64d-2f69507bc0ab" x1="0" y1="0" x2="96.65062593019805" y2="81.59847926893771" stroke="rgba(255, 255, 255, 0)" stroke-width="30"></line></g><g><line class="connector" id="36d7e84a-d58f-48ad-a007-a4006e654486" transform="translate(592,194.66665649414062) scale(1,1) " x1="-36.741456146894905" y1="36.39153751692449" x2="-68.25854385310508" y2="67.60846248307553" stroke="#808080" stroke-width="3" stroke-linecap="butt"></line><line transform="translate(592,194.66665649414062) " class="outer-connector" id="36d7e84a-d58f-48ad-a007-a4006e654486" x1="0" y1="0" x2="-82.4681825460578" y2="81.6827712837144" stroke="rgba(255, 255, 255, 0)" stroke-width="30"></line></g><g><line class="connector" id="4d41eead-11b3-4576-91f8-253aa15498e9" transform="translate(482,195.66665649414062) scale(1,1) " x1="1.942877432178444" y1="40.023275102875886" x2="3.0571225678215637" y2="62.97672489712412" stroke="#808080" stroke-width="3" stroke-linecap="butt"></line><line transform="translate(482,195.66665649414062) " class="outer-connector" id="4d41eead-11b3-4576-91f8-253aa15498e9" x1="0" y1="0" x2="4.026854444932475" y2="82.95320156560885" stroke="rgba(255, 255, 255, 0)" stroke-width="30"></line></g><g><line class="connector" id="0a0fd66a-f893-48d5-9575-c4a4913a1ea7" transform="translate(850,349.6666564941406) scale(1,1) " x1="-52.96387390929351" y1="22.659801724079184" x2="-141.0361260907065" y2="60.34019827592082" stroke="#808080" stroke-width="3" stroke-linecap="butt"></line><line transform="translate(850,349.6666564941406) " class="outer-connector" id="0a0fd66a-f893-48d5-9575-c4a4913a1ea7" x1="0" y1="0" x2="-159.42392567352866" y2="68.20714345826227" stroke="rgba(255, 255, 255, 0)" stroke-width="30"></line></g><g><line class="connector" id="c9b21853-1703-43e4-b1f7-2d027cfb6f5e" transform="translate(848,443.6666564941406) scale(1,1) " x1="-59.85274799668605" y1="-3.4290636873101388" x2="-132.14725200331392" y2="-7.570936312689862" stroke="#808080" stroke-width="3" stroke-linecap="butt"></line><line transform="translate(848,443.6666564941406) " class="outer-connector" id="c9b21853-1703-43e4-b1f7-2d027cfb6f5e" x1="0" y1="0" x2="-152.11450923516014" y2="-8.714893758264385" stroke="rgba(255, 255, 255, 0)" stroke-width="30"></line></g><g><line class="connector" id="e19a033c-1838-4c28-a580-4913a448824e" transform="translate(656,432.6666564941406) scale(1,1) " x1="14.042034087338987" y1="-40.62159860980208" x2="41.957965912661" y2="-121.37840139019794" stroke="#808080" stroke-width="6" stroke-linecap="butt"></line><line transform="translate(656,432.6666564941406) " class="outer-connector" id="e19a033c-1838-4c28-a580-4913a448824e" x1="0" y1="0" x2="48.492161453680396" y2="-140.2808956338612" stroke="rgba(255, 255, 255, 0)" stroke-width="30"></line></g><g><line class="connector" id="950c8a7b-da3d-46f0-af94-9c9fbfa307c0" transform="translate(487,298.6666564941406) scale(1,1) " x1="59.31307927704481" y1="-7.381183198921131" x2="165.6869207229552" y2="-20.618816801078868" stroke="#808080" stroke-width="6" stroke-dasharray="20,10"></line><line transform="translate(487,298.6666564941406) " class="outer-connector" id="950c8a7b-da3d-46f0-af94-9c9fbfa307c0" x1="0" y1="0" x2="185.53383234153154" y2="-23.08865469139059" stroke="rgba(255, 255, 255, 0)" stroke-width="30"></line></g><g transform="translate(488,466.6666564941406) scale(0.45)"><rect id="d2938eb8-54d3-4655-b926-0358d37a1824" class="node" x="-100" y="-60" width="200" height="120" transform="translate(0,0)" fill="#F0EEC0" stroke="#F3F033" stroke-width="5"></rect><text id="d2938eb8-54d3-4655-b926-0358d37a1824" class="noselect node" x="0" fill="black" alignment-baseline="center" text-anchor="middle" font-size="20px" y="0">Freiheit</text></g><g transform="translate(105,318.6666564941406) scale(0.45)"><rect id="d09e3c9c-1d1d-4577-a0c5-7276c9ce1a98" class="node" x="-100" y="-60" width="200" height="120" transform="translate(0,0)" fill="#F0EEC0" stroke="#F3F033" stroke-width="5"></rect><text id="d09e3c9c-1d1d-4577-a0c5-7276c9ce1a98" class="noselect node" x="0" fill="black" alignment-baseline="center" text-anchor="middle" font-size="20px" y="0">Meinung</text></g><g transform="translate(104,394.6666564941406) scale(0.45)"><rect id="5790ea77-e8ee-4a36-bd04-26260fa18278" class="node" x="-100" y="-60" width="200" height="120" transform="translate(0,0)" fill="#F0EEC0" stroke="#F3F033" stroke-width="5"></rect><text id="5790ea77-e8ee-4a36-bd04-26260fa18278" class="noselect node" x="0" fill="black" alignment-baseline="center" text-anchor="middle" font-size="20px" y="0">Bewegung</text></g><g transform="translate(102,464.6666564941406) scale(0.45)"><rect id="b14fc8b6-aa2d-44b1-9d1c-4fb48c3f0b94" class="node" x="-100" y="-60" width="200" height="120" transform="translate(0,0)" fill="#F0EEC0" stroke="#F3F033" stroke-width="5"></rect><text id="b14fc8b6-aa2d-44b1-9d1c-4fb48c3f0b94" class="noselect node" x="0" fill="black" alignment-baseline="center" text-anchor="middle" font-size="20px" y="-20"> <tspan dy="1.1em" x="0">Interaktion</tspan> /  <tspan dy="1.1em" x="0">Beziehungen</tspan></text></g><g transform="translate(850,349.6666564941406) scale(0.45)"><ellipse id="821b747f-bc6f-4492-a743-9167a865d1b1" class="node" null="cy" rx="100" ry="70" transform="translate(0,0)" fill="#B9F1B9" stroke="#22AA22" stroke-width="6" opacity="1"></ellipse><text id="821b747f-bc6f-4492-a743-9167a865d1b1" class="noselect node" x="0" fill="black" alignment-baseline="center" text-anchor="middle" font-size="20px" y="0">Spontanität</text></g><g transform="translate(712,270.6666564941406) scale(0.45)"><g><polygon id="da8ad873-e700-45dd-a3aa-f877c73d9739" class="node" points="-100,0 -60,-60 60,-60 100,0 60,60 -60,60" transform="translate(0,0)" fill="rgb(247, 151, 226)" stroke="rgb(142, 19, 146)" stroke-width="5"></polygon><ellipse id="da8ad873-e700-45dd-a3aa-f877c73d9739" class="node" null="cy" rx="90" ry="55" transform="translate(0,0)" fill="rgb(247, 151, 226)" stroke="rgb(142, 19, 146)" stroke-width="3"></ellipse></g><text id="da8ad873-e700-45dd-a3aa-f877c73d9739" class="noselect node" x="0" fill="black" alignment-baseline="center" text-anchor="middle" font-size="20px" y="-20">zur  <tspan dy="1.1em" x="0">Verfügung</tspan>  <tspan dy="1.1em" x="0">stehende</tspan>  <tspan dy="1.1em" x="0">Ressourcen</tspan></text></g><g transform="translate(492,748.6666564941406) scale(0.45)"><ellipse id="1cfc97e0-62f5-45e3-9fe5-cb59ffd1695d" class="node" null="cy" rx="100" ry="70" transform="translate(0,0)" fill="#B9F1B9" stroke="#22AA22" stroke-width="9" opacity="1"></ellipse><text id="1cfc97e0-62f5-45e3-9fe5-cb59ffd1695d" class="noselect node" x="0" fill="black" alignment-baseline="center" text-anchor="middle" font-size="20px" y="-20">Auswahl-  <tspan dy="1.1em" x="0">möglichkeiten</tspan></text></g><g transform="translate(332,744.6666564941406) scale(0.45)"><ellipse id="4307d942-f38b-447b-ab28-695000425acc" class="node" null="cy" rx="100" ry="70" transform="translate(0,0)" fill="#B9F1B9" stroke="#22AA22" stroke-width="9" opacity="1"></ellipse><text id="4307d942-f38b-447b-ab28-695000425acc" class="noselect node" x="0" fill="black" alignment-baseline="center" text-anchor="middle" font-size="20px" y="-20"> <tspan dy="1.1em" x="0">Selbstbestimmt</tspan>  <tspan dy="1.1em" x="0">Handeln</tspan></text></g><g transform="translate(332,430.6666564941406) scale(0.45)"><rect id="a62d1db9-6afb-4b63-81e8-9b7b0679604f" class="node" x="-100" y="-60" width="200" height="120" transform="translate(0,0)" fill="#F0EEC0" stroke="#F3F033" stroke-width="5"></rect><text id="a62d1db9-6afb-4b63-81e8-9b7b0679604f" class="noselect node" x="0" fill="black" alignment-baseline="center" text-anchor="middle" font-size="20px" y="0">Arten von Freiheit</text></g><g transform="translate(646,742.6666564941406) scale(0.45)"><ellipse id="cb2ef898-2367-4be1-a6e3-23d87cac1d80" class="node" null="cy" rx="100" ry="70" transform="translate(0,0)" fill="#B9F1B9" stroke="#22AA22" stroke-width="6" opacity="1"></ellipse><text id="cb2ef898-2367-4be1-a6e3-23d87cac1d80" class="noselect node" x="0" fill="black" alignment-baseline="center" text-anchor="middle" font-size="20px" y="-20">freie  <tspan dy="1.1em" x="0">Wahl</tspan> des  <tspan dy="1.1em" x="0">Aufenthaltsortes</tspan></text></g><g transform="translate(100,537.6666564941406) scale(0.45)"><rect id="f24a6f77-5255-44f0-bd72-117ef9ce2a95" class="node" x="-100" y="-60" width="200" height="120" transform="translate(0,0)" fill="#F0EEC0" stroke="#F3F033" stroke-width="5"></rect><text id="f24a6f77-5255-44f0-bd72-117ef9ce2a95" class="noselect node" x="0" fill="black" alignment-baseline="center" text-anchor="middle" font-size="20px" y="0">Entscheidungen</text></g><g transform="translate(487,616.6666564941406) scale(0.45)"><rect id="ca4cce63-26ee-4460-a188-0aab5610dfeb" class="node" x="-100" y="-60" width="200" height="120" transform="translate(0,0)" fill="#F0EEC0" stroke="#F3F033" stroke-width="5"></rect><text id="ca4cce63-26ee-4460-a188-0aab5610dfeb" class="noselect node" x="0" fill="black" alignment-baseline="center" text-anchor="middle" font-size="20px" y="0">Bestandteile</text></g><g transform="translate(656,432.6666564941406) scale(0.45)"><rect id="294d6173-e94b-415a-9256-b8537b0c0fa6" class="node" x="-100" y="-60" width="200" height="120" transform="translate(0,0)" fill="#F0EEC0" stroke="#F3F033" stroke-width="5"></rect><text id="294d6173-e94b-415a-9256-b8537b0c0fa6" class="noselect node" x="0" fill="black" alignment-baseline="center" text-anchor="middle" font-size="20px" y="0">ermöglicht</text></g><g transform="translate(848,443.6666564941406) scale(0.45)"><ellipse id="fd3fefc5-c255-4715-8273-58e3c9927705" class="node" null="cy" rx="100" ry="70" transform="translate(0,0)" fill="#B9F1B9" stroke="#22AA22" stroke-width="6" opacity="1"></ellipse><text id="fd3fefc5-c255-4715-8273-58e3c9927705" class="noselect node" x="0" fill="black" alignment-baseline="center" text-anchor="middle" font-size="20px" y="0">Individualität</text></g><g transform="translate(487,298.6666564941406) scale(0.45)"><polygon id="d0f89799-db68-4fdf-8ba4-c05114d6db61" class="node" points="-100,0 -60,-60 60,-60 100,0 60,60 -60,60" transform="translate(0,0)" fill="#EB8989" stroke="#E04848" stroke-width="6"></polygon><text id="d0f89799-db68-4fdf-8ba4-c05114d6db61" class="noselect node" x="0" fill="black" alignment-baseline="center" text-anchor="middle" font-size="20px" y="0">Einschränkungen</text></g><g transform="translate(365,195.66665649414062) scale(0.45)"><polygon id="8c501ce0-18dc-4e98-8c84-a3e8724eb108" class="node" points="-100,0 -60,-60 60,-60 100,0 60,60 -60,60" transform="translate(0,0)" fill="#EB8989" stroke="#E04848" stroke-width="9"></polygon><text id="8c501ce0-18dc-4e98-8c84-a3e8724eb108" class="noselect node" x="0" fill="black" alignment-baseline="center" text-anchor="middle" font-size="20px" y="0">Gefängnis</text></g><g transform="translate(592,194.66665649414062) scale(0.45)"><polygon id="dfd0695e-3245-41bf-b3e8-3618b24df35a" class="node" points="-100,0 -60,-60 60,-60 100,0 60,60 -60,60" transform="translate(0,0)" fill="#EB8989" stroke="#E04848" stroke-width="9"></polygon><text id="dfd0695e-3245-41bf-b3e8-3618b24df35a" class="noselect node" x="0" fill="black" alignment-baseline="center" text-anchor="middle" font-size="20px" y="0">Armut</text></g><g transform="translate(482,195.66665649414062) scale(0.45)"><polygon id="854c4348-487a-4cc6-a88f-bddccae7cbe4" class="node" points="-100,0 -60,-60 60,-60 100,0 60,60 -60,60" transform="translate(0,0)" fill="#EB8989" stroke="#E04848" stroke-width="9"></polygon><text id="854c4348-487a-4cc6-a88f-bddccae7cbe4" class="noselect node" x="0" fill="black" alignment-baseline="center" text-anchor="middle" font-size="20px" y="-20">Zensur /  <tspan dy="1.1em" x="0">unterdrückende</tspan>  <tspan dy="1.1em" x="0">Politik</tspan></text></g></svg>