<?xml version="1.0" standalone="no"?>
<svg id="CAMSVG" xmlns="http://www.w3.org/2000/svg" height="1400px" width="2400px"><rect id="background" x="0" y="0" width="100%" height="100%" fill="white"></rect><marker id="arrowRight" markerWidth="30" markerHeight="15" refX="30" refY="7.5" orient="auto" markerUnits="userSpaceOnUse"><polygon points="30 0, 30 15, 0 7.5" fill="#8c8c8c"></polygon></marker><marker id="arrowLeft" markerWidth="30" markerHeight="15" refX="0" refY="7.5" orient="auto" markerUnits="userSpaceOnUse"><polygon points="0 0, 30 7.5, 0 15" fill="#8c8c8c"></polygon></marker><g><line class="connector" id="bcd49110-1631-41ae-92e3-bae4b920ccf5" transform="translate(513,197.20001220703125) scale(1,1) " x1="-59.46763819977974" y1="-6.504272928100908" x2="-68.53236180022026" y2="-7.49572707189909" stroke="#808080" stroke-width="3" stroke-linecap="butt"></line><line transform="translate(513,197.20001220703125) " class="outer-connector" id="bcd49110-1631-41ae-92e3-bae4b920ccf5" x1="0" y1="0" x2="-88.41379563530778" y2="-9.670258897611786" stroke="rgba(255, 255, 255, 0)" stroke-width="30"></line></g><g><line class="connector" id="f6fc82bf-fa88-41a8-8138-d74049b89473" transform="translate(385,183.20001220703125) scale(1,1) " x1="-45.155209431953736" y1="31.11535439848914" x2="-73.84479056804626" y2="50.88464560151088" stroke="#808080" stroke-width="3" stroke-linecap="butt"></line><line transform="translate(385,183.20001220703125) " class="outer-connector" id="f6fc82bf-fa88-41a8-8138-d74049b89473" x1="0" y1="0" x2="-90.31350569481744" y2="62.232835856933036" stroke="rgba(255, 255, 255, 0)" stroke-width="30"></line></g><g><line class="connector" id="76c2b4ec-535c-4c2e-84a8-1768ffe91588" transform="translate(516,280.20001220703125) scale(1,1) " x1="-43.622234553652476" y1="-32.30043321911672" x2="-87.37776544634751" y2="-64.69956678088327" stroke="#808080" stroke-width="3" stroke-linecap="butt"></line><line transform="translate(516,280.20001220703125) " class="outer-connector" id="76c2b4ec-535c-4c2e-84a8-1768ffe91588" x1="0" y1="0" x2="-103.4510825985566" y2="-76.60118329816787" stroke="rgba(255, 255, 255, 0)" stroke-width="30"></line></g><g><line class="connector" id="04e14bb0-2c0b-4423-a03d-7411731e9bc6" transform="translate(374,373.20001220703125) scale(1,1) " x1="46.18667629841277" y1="-30.249020392622445" x2="95.81332370158724" y2="-62.750979607377545" stroke="#808080" stroke-width="3" stroke-linecap="butt"></line><line transform="translate(374,373.20001220703125) " class="outer-connector" id="04e14bb0-2c0b-4423-a03d-7411731e9bc6" x1="0" y1="0" x2="112.5444085028074" y2="-73.70866190676821" stroke="rgba(255, 255, 255, 0)" stroke-width="30"></line></g><g><line class="connector" id="31500202-46f5-4578-9f6d-983f9c33a4bd" transform="translate(265,451.20001220703125) scale(1,1) " x1="44.36055396625075" y1="-31.744249627225305" x2="64.63944603374925" y2="-46.255750372774685" stroke="#808080" stroke-width="3" stroke-linecap="butt"></line><line transform="translate(265,451.20001220703125) " class="outer-connector" id="31500202-46f5-4578-9f6d-983f9c33a4bd" x1="0" y1="0" x2="80.90402715169962" y2="-57.894624934243765" stroke="rgba(255, 255, 255, 0)" stroke-width="30"></line></g><g><line class="connector" id="013bed16-db73-4957-9aec-e3958944c71c" transform="translate(266,265.20001220703125) scale(1,1) " x1="-57.75214256585814" y1="-13.220369984955477" x2="-108.24785743414186" y2="-24.779630015044518" stroke="#808080" stroke-width="3" stroke-linecap="butt"></line><line transform="translate(266,265.20001220703125) " class="outer-connector" id="013bed16-db73-4957-9aec-e3958944c71c" x1="0" y1="0" x2="-127.74356872203002" y2="-29.242503683356265" stroke="rgba(255, 255, 255, 0)" stroke-width="30"></line></g><g><line class="connector" id="11b57cc2-3f75-4c30-90e6-cc99f34c6913" transform="translate(266,265.20001220703125) scale(1,1) " x1="-45.48403484505533" y1="30.845494894922577" x2="-41.51596515494467" y2="28.15450510507742" stroke="#808080" stroke-width="3" stroke-linecap="butt"></line><line transform="translate(266,265.20001220703125) " class="outer-connector" id="11b57cc2-3f75-4c30-90e6-cc99f34c6913" x1="0" y1="0" x2="-58.06863715152107" y2="39.37988036712348" stroke="rgba(255, 255, 255, 0)" stroke-width="30"></line></g><g><line class="connector" id="a88f1ea4-59cb-48d6-b86b-40f90e77f3b9" transform="translate(397,480.20001220703125) scale(1,1) " x1="23.8875056113504" y1="-40.14706825437041" x2="95.11249438864962" y2="-159.85293174562958" stroke="#808080" stroke-width="3" stroke-linecap="butt"></line><line transform="translate(397,480.20001220703125) " class="outer-connector" id="a88f1ea4-59cb-48d6-b86b-40f90e77f3b9" x1="0" y1="0" x2="105.33914973666529" y2="-177.04058779271472" stroke="rgba(255, 255, 255, 0)" stroke-width="30"></line></g><g><line class="connector" id="cf0f88c6-ec32-40e0-b246-9cbb790aad2a" transform="translate(513,197.20001220703125) scale(1,1) " x1="1.446252108351847" y1="40.012974997734425" x2="1.5537478916481535" y2="42.987025002265575" stroke="#808080" stroke-width="3" stroke-linecap="butt"></line><line transform="translate(513,197.20001220703125) " class="outer-connector" id="cf0f88c6-ec32-40e0-b246-9cbb790aad2a" x1="0" y1="0" x2="2.2761677162760265" y2="62.973973483636726" stroke="rgba(255, 255, 255, 0)" stroke-width="30"></line></g><g><line class="connector" id="f88e910b-4e94-4d64-8a3c-389076b1a0fa" transform="translate(765,221.20001220703125) scale(1,1) " x1="-59.59527726079603" y1="-5.675740691504384" x2="-192.40472273920398" y2="-18.324259308495616" stroke="#808080" stroke-width="3" stroke-linecap="butt"></line><line transform="translate(765,221.20001220703125) " class="outer-connector" id="f88e910b-4e94-4d64-8a3c-389076b1a0fa" x1="0" y1="0" x2="-212.31463219108304" y2="-20.220441161055525" stroke="rgba(255, 255, 255, 0)" stroke-width="30"></line></g><g><line class="connector" id="172aee83-03dd-4d36-bcfd-8577e294fd7c" transform="translate(610,414.20001220703125) scale(1,1) " x1="-27.68569084032202" y1="-39.466835878756925" x2="-66.31430915967799" y2="-94.53316412124308" stroke="#808080" stroke-width="3" stroke-linecap="butt"></line><line transform="translate(610,414.20001220703125) " class="outer-connector" id="172aee83-03dd-4d36-bcfd-8577e294fd7c" x1="0" y1="0" x2="-77.79995133207184" y2="-110.90631360103858" stroke="rgba(255, 255, 255, 0)" stroke-width="30"></line></g><g><line class="connector" id="d0c2ed13-bd21-42b2-b990-0be7ad3a20db" transform="translate(374,373.20001220703125) scale(1,1) " x1="8.675901453860087" y1="40.361802415783885" x2="14.32409854613991" y2="66.6381975842161" stroke="#808080" stroke-width="3" stroke-linecap="butt"></line><line transform="translate(374,373.20001220703125) " class="outer-connector" id="d0c2ed13-bd21-42b2-b990-0be7ad3a20db" x1="0" y1="0" x2="18.52715939361292" y2="86.19156761376445" stroke="rgba(255, 255, 255, 0)" stroke-width="30"></line></g><g><line class="connector" id="663aac3b-a620-436a-af4f-a3807f44ea40" transform="translate(482,533.2000122070312) scale(1,1) " x1="38.30804701698478" y1="-35.61451246110303" x2="89.69195298301521" y2="-83.38548753889695" stroke="#808080" stroke-width="3" stroke-linecap="butt"></line><line transform="translate(482,533.2000122070312) " class="outer-connector" id="663aac3b-a620-436a-af4f-a3807f44ea40" x1="0" y1="0" x2="104.33966863234625" y2="-97.00328568163438" stroke="rgba(255, 255, 255, 0)" stroke-width="30"></line></g><g><line class="connector" id="0361e52c-4809-471d-b537-248dc4218af1" transform="translate(648,262.20001220703125) scale(1,1) " x1="32.082792951651506" y1="38.2525608269691" x2="45.9172070483485" y2="54.747439173030905" stroke="#808080" stroke-width="3" stroke-linecap="butt"></line><line transform="translate(648,262.20001220703125) " class="outer-connector" id="0361e52c-4809-471d-b537-248dc4218af1" x1="0" y1="0" x2="58.76945228787792" y2="70.07127003554675" stroke="rgba(255, 255, 255, 0)" stroke-width="30"></line></g><g><line class="connector" id="f6e07ce1-7880-4b56-bfb2-098784716f95" transform="translate(610,414.20001220703125) scale(1,1) " x1="55.07595785074732" y1="19.22770126150351" x2="113.92404214925268" y2="39.77229873849651" stroke="#808080" stroke-width="3" stroke-linecap="butt"></line><line transform="translate(610,414.20001220703125) " class="outer-connector" id="f6e07ce1-7880-4b56-bfb2-098784716f95" x1="0" y1="0" x2="132.80642905603494" y2="46.364374640864284" stroke="rgba(255, 255, 255, 0)" stroke-width="30"></line></g><g><line class="connector" id="1772343b-4bd1-4789-807c-0512559a358e" transform="translate(516,280.20001220703125) scale(1,1) " x1="59.17755229122259" y1="-8.069666221530353" x2="72.82244770877742" y2="-9.930333778469647" stroke="#808080" stroke-width="3" stroke-linecap="butt"></line><line transform="translate(516,280.20001220703125) " class="outer-connector" id="1772343b-4bd1-4789-807c-0512559a358e" x1="0" y1="0" x2="92.6390510696634" y2="-12.632597873135916" stroke="rgba(255, 255, 255, 0)" stroke-width="30"></line></g><g transform="translate(482,533.2000122070312) scale(0.45)"><rect id="e54765ce-a577-4baf-8064-616e44fb9eb3" class="node" x="-100" y="-60" width="200" height="120" transform="translate(0,0)" fill="#F0EEC0" stroke="#F3F033" stroke-width="5"></rect><text id="e54765ce-a577-4baf-8064-616e44fb9eb3" class="noselect node" x="0" fill="black" alignment-baseline="center" text-anchor="middle" font-size="20px" y="0">Freiheit</text></g><g transform="translate(516,280.20001220703125) scale(0.45)"><rect id="3e3795cd-cd05-4422-bbb9-498ad2345e3f" class="node" x="-100" y="-60" width="200" height="120" transform="translate(0,0)" fill="#F0EEC0" stroke="#F3F033" stroke-width="5"></rect><text id="3e3795cd-cd05-4422-bbb9-498ad2345e3f" class="noselect node" x="0" fill="black" alignment-baseline="center" text-anchor="middle" font-size="20px" y="0">fdf</text></g><g transform="translate(610,414.20001220703125) scale(0.45)"><rect id="60180f97-c2c4-4bff-8a99-f23061fc60f4" class="node" x="-100" y="-60" width="200" height="120" transform="translate(0,0)" fill="#F0EEC0" stroke="#F3F033" stroke-width="5"></rect><text id="60180f97-c2c4-4bff-8a99-f23061fc60f4" class="noselect node" x="0" fill="black" alignment-baseline="center" text-anchor="middle" font-size="20px" y="0">dfdf.</text></g><g transform="translate(374,373.20001220703125) scale(0.45)"><rect id="707d1676-b9e1-4a79-9562-73e75fcf1acb" class="node" x="-100" y="-60" width="200" height="120" transform="translate(0,0)" fill="#F0EEC0" stroke="#F3F033" stroke-width="5"></rect><text id="707d1676-b9e1-4a79-9562-73e75fcf1acb" class="noselect node" x="0" fill="black" alignment-baseline="center" text-anchor="middle" font-size="20px" y="0">dfdf</text></g><g transform="translate(385,183.20001220703125) scale(0.45)"><rect id="18ba195b-514d-4be0-990b-e9e18b576806" class="node" x="-100" y="-60" width="200" height="120" transform="translate(0,0)" fill="#F0EEC0" stroke="#F3F033" stroke-width="5"></rect><text id="18ba195b-514d-4be0-990b-e9e18b576806" class="noselect node" x="0" fill="black" alignment-baseline="center" text-anchor="middle" font-size="20px" y="0">.-a,dsföjsadfjadsfl</text></g><g transform="translate(648,262.20001220703125) scale(0.45)"><rect id="2a99e00b-e7b5-4aca-b0e3-f994e4d16332" class="node" x="-100" y="-60" width="200" height="120" transform="translate(0,0)" fill="#F0EEC0" stroke="#F3F033" stroke-width="5"></rect><text id="2a99e00b-e7b5-4aca-b0e3-f994e4d16332" class="noselect node" x="0" fill="black" alignment-baseline="center" text-anchor="middle" font-size="20px" y="0">asnfjnsdfasdf</text></g><g transform="translate(179,324.20001220703125) scale(0.45)"><rect id="9addb841-50b0-42b6-b353-57d5d7fe88f3" class="node" x="-100" y="-60" width="200" height="120" transform="translate(0,0)" fill="#F0EEC0" stroke="#F3F033" stroke-width="5"></rect><text id="9addb841-50b0-42b6-b353-57d5d7fe88f3" class="noselect node" x="0" fill="black" alignment-baseline="center" text-anchor="middle" font-size="20px" y="0">,md.,ms.,fmaf</text></g><g transform="translate(265,451.20001220703125) scale(0.45)"><rect id="ea7e3567-d337-4898-866b-cfa8c4cacb45" class="node" x="-100" y="-60" width="200" height="120" transform="translate(0,0)" fill="#F0EEC0" stroke="#F3F033" stroke-width="5"></rect><text id="ea7e3567-d337-4898-866b-cfa8c4cacb45" class="noselect node" x="0" fill="black" alignment-baseline="center" text-anchor="middle" font-size="20px" y="0">,smf,.sdmf.,sdf</text></g><g transform="translate(779,473.20001220703125) scale(0.45)"><rect id="49cf30be-197e-4142-983e-a39587eb385c" class="node" x="-100" y="-60" width="200" height="120" transform="translate(0,0)" fill="#F0EEC0" stroke="#F3F033" stroke-width="5"></rect><text id="49cf30be-197e-4142-983e-a39587eb385c" class="noselect node" x="0" fill="black" alignment-baseline="center" text-anchor="middle" font-size="20px" y="0">saldf.,dsamf,</text></g><g transform="translate(726,355.20001220703125) scale(0.45)"><rect id="93530e8e-841b-49fe-87c5-dec2a15a08f6" class="node" x="-100" y="-60" width="200" height="120" transform="translate(0,0)" fill="#F0EEC0" stroke="#F3F033" stroke-width="5"></rect><text id="93530e8e-841b-49fe-87c5-dec2a15a08f6" class="noselect node" x="0" fill="black" alignment-baseline="center" text-anchor="middle" font-size="20px" y="0">lsdfmsadf.,</text></g><g transform="translate(397,480.20001220703125) scale(0.45)"><rect id="20b8dec0-fb92-49d2-a037-403bd6ba6e67" class="node" x="-100" y="-60" width="200" height="120" transform="translate(0,0)" fill="#F0EEC0" stroke="#F3F033" stroke-width="5"></rect><text id="20b8dec0-fb92-49d2-a037-403bd6ba6e67" class="noselect node" x="0" fill="black" alignment-baseline="center" text-anchor="middle" font-size="20px" y="0">samf.,dsamf</text></g><g transform="translate(266,265.20001220703125) scale(0.45)"><rect id="15a947a3-4611-4887-b90c-9bd0393c1325" class="node" x="-100" y="-60" width="200" height="120" transform="translate(0,0)" fill="#F0EEC0" stroke="#F3F033" stroke-width="5"></rect><text id="15a947a3-4611-4887-b90c-9bd0393c1325" class="noselect node" x="0" fill="black" alignment-baseline="center" text-anchor="middle" font-size="20px" y="0">sd fsa d,mm,</text></g><g transform="translate(513,197.20001220703125) scale(0.45)"><rect id="002985b5-609f-4db7-a615-2211968dc7bf" class="node" x="-100" y="-60" width="200" height="120" transform="translate(0,0)" fill="#F0EEC0" stroke="#F3F033" stroke-width="5"></rect><text id="002985b5-609f-4db7-a615-2211968dc7bf" class="noselect node" x="0" fill="black" alignment-baseline="center" text-anchor="middle" font-size="20px" y="0">sd .a sfd </text></g><g transform="translate(765,221.20001220703125) scale(0.45)"><rect id="e880268e-20d2-4160-8dff-1e248b54896a" class="node" x="-100" y="-60" width="200" height="120" transform="translate(0,0)" fill="#F0EEC0" stroke="#F3F033" stroke-width="5"></rect><text id="e880268e-20d2-4160-8dff-1e248b54896a" class="noselect node" x="0" fill="black" alignment-baseline="center" text-anchor="middle" font-size="20px" y="0">sad,fmasd.,f</text></g><g transform="translate(100,227.20001220703125) scale(0.45)"><rect id="6431776a-6988-4b43-85d8-682765d6fefc" class="node" x="-100" y="-60" width="200" height="120" transform="translate(0,0)" fill="#F0EEC0" stroke="#F3F033" stroke-width="5"></rect><text id="6431776a-6988-4b43-85d8-682765d6fefc" class="noselect node" x="0" fill="black" alignment-baseline="center" text-anchor="middle" font-size="20px" y="0">dfd</text></g></svg>