<?xml version="1.0" standalone="no"?>
<svg id="CAMSVG" xmlns="http://www.w3.org/2000/svg" height="1400px" width="2400px"><rect id="background" x="0" y="0" width="100%" height="100%" fill="white"></rect><marker id="arrowRight" markerWidth="30" markerHeight="15" refX="30" refY="7.5" orient="auto" markerUnits="userSpaceOnUse"><polygon points="30 0, 30 15, 0 7.5" fill="#8c8c8c"></polygon></marker><marker id="arrowLeft" markerWidth="30" markerHeight="15" refX="0" refY="7.5" orient="auto" markerUnits="userSpaceOnUse"><polygon points="0 0, 30 7.5, 0 15" fill="#8c8c8c"></polygon></marker><g><line class="connector" id="73249826-2c02-499b-bbc4-f5ec15ab52a0" transform="translate(490,333) scale(1,1) " x1="25.929999001157544" y1="39.82106989463481" x2="86.07000099884245" y2="132.1789301053652" stroke="#808080" stroke-width="9" stroke-dasharray="20,10"></line><line transform="translate(490,333) " class="outer-connector" id="73249826-2c02-499b-bbc4-f5ec15ab52a0" x1="0" y1="0" x2="96.98346442759109" y2="148.93889179951492" stroke="rgba(255, 255, 255, 0)" stroke-width="30"></line></g><g><line class="connector" id="c284594c-f749-4fd8-af5e-a8786ef96767" transform="translate(270,581) scale(1,1) " x1="33.493067664204354" y1="-37.755821730557635" x2="186.50693233579565" y2="-210.2441782694424" stroke="#808080" stroke-width="6" stroke-linecap="butt"></line><line transform="translate(270,581) " class="outer-connector" id="c284594c-f749-4fd8-af5e-a8786ef96767" x1="0" y1="0" x2="199.7792243069663" y2="-225.20567103694387" stroke="rgba(255, 255, 255, 0)" stroke-width="30"></line></g><g><line class="connector" id="87906c4c-d522-418f-a3ab-b3d675804144" transform="translate(260,427) scale(1,1) " x1="53.49678883909054" y1="-21.863905003802223" x2="176.50321116090944" y2="-72.13609499619777" stroke="#808080" stroke-width="6" stroke-linecap="butt"></line><line transform="translate(260,427) " class="outer-connector" id="87906c4c-d522-418f-a3ab-b3d675804144" x1="0" y1="0" x2="195.01671361797946" y2="-79.70248295691334" stroke="rgba(255, 255, 255, 0)" stroke-width="30"></line></g><g><line class="connector" id="f14e3282-14a9-4b26-bfc2-09ebb90732d1" transform="translate(100,403) scale(1,1) " x1="58.59275450577484" y1="-10.516648244626255" x2="331.40724549422515" y2="-59.48335175537375" stroke="#808080" stroke-width="3" stroke-linecap="butt"></line><line transform="translate(100,403) " class="outer-connector" id="f14e3282-14a9-4b26-bfc2-09ebb90732d1" x1="0" y1="0" x2="351.09266963410283" y2="-63.01663301124923" stroke="rgba(255, 255, 255, 0)" stroke-width="30"></line></g><g><line class="connector" id="77fe9e7b-b485-47bc-8568-6768f1c0b105" transform="translate(260,427) scale(1,1) " x1="2.6000806578209357" y1="40.04124213044237" x2="7.399919342179072" y2="113.95875786955762" stroke="#808080" stroke-width="3" stroke-linecap="butt"></line><line transform="translate(260,427) " class="outer-connector" id="77fe9e7b-b485-47bc-8568-6768f1c0b105" x1="0" y1="0" x2="8.695891241665834" y2="133.9167251216537" stroke="rgba(255, 255, 255, 0)" stroke-width="30"></line></g><g><line class="connector" id="5c58791a-db47-4aaf-85a7-223fb72f41bb" transform="translate(152,270) scale(1,1) " x1="-15.892896179706549" y1="40.6491383057879" x2="-36.10710382029347" y2="92.35086169421213" stroke="#808080" stroke-width="3" stroke-linecap="butt"></line><line transform="translate(152,270) " class="outer-connector" id="5c58791a-db47-4aaf-85a7-223fb72f41bb" x1="0" y1="0" x2="-43.389809848320986" y2="110.97778288128251" stroke="rgba(255, 255, 255, 0)" stroke-width="30"></line></g><g><line class="connector" id="9f405e6c-0ac3-4a40-80a4-79be60fb69f4" transform="translate(490,333) scale(1,1) " x1="54.23319362343643" y1="-20.691379093278957" x2="443.7668063765636" y2="-169.30862090672105" stroke="#808080" stroke-width="9" stroke-linecap="butt"></line><line transform="translate(490,333) " class="outer-connector" id="9f405e6c-0ac3-4a40-80a4-79be60fb69f4" x1="0" y1="0" x2="462.45299223893744" y2="-176.4378886052171" stroke="rgba(255, 255, 255, 0)" stroke-width="30"></line></g><g><line class="connector" id="eb040f32-9c92-4358-adbf-71461eccfa02" transform="translate(490,333) scale(1,1) " x1="27.32531398467103" y1="-39.5453301765736" x2="133.67468601532897" y2="-193.45466982342637" stroke="#808080" stroke-width="6" stroke-linecap="butt"></line><line transform="translate(490,333) " class="outer-connector" id="eb040f32-9c92-4358-adbf-71461eccfa02" x1="0" y1="0" x2="145.04419249522113" y2="-209.90867609556844" stroke="rgba(255, 255, 255, 0)" stroke-width="30"></line></g><g><line class="connector" id="3e490dd2-bfbb-40b3-82ce-ca212fdb0872" transform="translate(988,143) scale(1,1) " x1="-59.27837044526991" y1="-7.563708988565598" x2="-277.7216295547301" y2="-35.43629101143441" stroke="#808080" stroke-width="3" stroke-linecap="butt"></line><line transform="translate(988,143) " class="outer-connector" id="3e490dd2-bfbb-40b3-82ce-ca212fdb0872" x1="0" y1="0" x2="-297.56078244453323" y2="-37.96769627630543" stroke="rgba(255, 255, 255, 0)" stroke-width="30"></line></g><g><line class="connector" id="dfdc3398-278b-400e-8916-f3eb43d62ccd" transform="translate(490,333) scale(1,1) " x1="58.816291020427634" y1="-9.658980343530638" x2="282.1837089795723" y2="-46.341019656469356" stroke="#808080" stroke-width="3" stroke-linecap="butt"></line><line transform="translate(490,333) " class="outer-connector" id="dfdc3398-278b-400e-8916-f3eb43d62ccd" x1="0" y1="0" x2="301.919352697224" y2="-49.58206378605438" stroke="rgba(255, 255, 255, 0)" stroke-width="30"></line></g><g><line class="connector" id="d9aac7d6-5292-4f01-aa5b-6ec4abd0c5d7" transform="translate(490,333) scale(1,1) " x1="55.309857662584214" y1="18.79461182709172" x2="253.69014233741578" y2="86.20538817290827" stroke="#808080" stroke-width="3" stroke-linecap="butt"></line><line transform="translate(490,333) " class="outer-connector" id="d9aac7d6-5292-4f01-aa5b-6ec4abd0c5d7" x1="0" y1="0" x2="272.62671758308295" y2="92.64014675153304" stroke="rgba(255, 255, 255, 0)" stroke-width="30"></line></g><g><line class="connector" id="7be15fa3-e790-4655-a5f8-28e985553561" transform="translate(799,438) scale(1,1) " x1="25.55515772529973" y1="-39.8876800474255" x2="163.4448422747003" y2="-255.11231995257452" stroke="#808080" stroke-width="3" stroke-linecap="butt"></line><line transform="translate(799,438) " class="outer-connector" id="7be15fa3-e790-4655-a5f8-28e985553561" x1="0" y1="0" x2="174.23401449829842" y2="-271.9525623121589" stroke="rgba(255, 255, 255, 0)" stroke-width="30"></line></g><g><line class="connector" id="53fa5c03-e557-4a0e-8e6a-2e7e33a1361f" transform="translate(799,438) scale(1,1) " x1="8.014036791254464" y1="-40.32062260599902" x2="23.98596320874554" y2="-120.679377394001" stroke="#808080" stroke-width="3" stroke-linecap="butt"></line><line transform="translate(799,438) " class="outer-connector" id="53fa5c03-e557-4a0e-8e6a-2e7e33a1361f" x1="0" y1="0" x2="27.884852288333047" y2="-140.29566307567563" stroke="rgba(255, 255, 255, 0)" stroke-width="30"></line></g><g transform="translate(490,333) scale(0.45)"><rect id="6190c41a-b972-4cad-aa86-f3a3fda9f244" class="node" x="-100" y="-60" width="200" height="120" transform="translate(0,0)" fill="#F0EEC0" stroke="#F3F033" stroke-width="5"></rect><text id="6190c41a-b972-4cad-aa86-f3a3fda9f244" class="noselect node" x="0" fill="black" alignment-baseline="center" text-anchor="middle" font-size="20px" y="0">Freiheit</text></g><g transform="translate(988,143) scale(0.45)"><ellipse id="87091d31-af39-4d1f-91b4-a5f0a7042ea4" class="node" null="cy" rx="100" ry="70" transform="translate(0,0)" fill="#B9F1B9" stroke="#22AA22" stroke-width="9" opacity="1"></ellipse><text id="87091d31-af39-4d1f-91b4-a5f0a7042ea4" class="noselect node" x="0" fill="black" alignment-baseline="center" text-anchor="middle" font-size="20px" y="0">Sicherheit</text></g><g transform="translate(651,100) scale(0.45)"><g><polygon id="3f2499fe-a280-490b-a979-df497d02be90" class="node" points="-100,0 -60,-60 60,-60 100,0 60,60 -60,60" transform="translate(0,0)" fill="rgb(247, 151, 226)" stroke="rgb(142, 19, 146)" stroke-width="5"></polygon><ellipse id="3f2499fe-a280-490b-a979-df497d02be90" class="node" null="cy" rx="90" ry="55" transform="translate(0,0)" fill="rgb(247, 151, 226)" stroke="rgb(142, 19, 146)" stroke-width="3"></ellipse></g><text id="3f2499fe-a280-490b-a979-df497d02be90" class="noselect node" x="0" fill="black" alignment-baseline="center" text-anchor="middle" font-size="20px" y="0">Privilegien</text></g><g transform="translate(799,438) scale(0.45)"><ellipse id="8db2b08f-b704-4af1-95f0-6f942b70ca8d" class="node" null="cy" rx="100" ry="70" transform="translate(0,0)" fill="#B9F1B9" stroke="#22AA22" stroke-width="9" opacity="1"></ellipse><text id="8db2b08f-b704-4af1-95f0-6f942b70ca8d" class="noselect node" x="0" fill="black" alignment-baseline="center" text-anchor="middle" font-size="20px" y="0">Glück</text></g><g transform="translate(100,403) scale(0.45)"><g><polygon id="567e5329-d61f-499c-a9ea-cb4e85a5a422" class="node" points="-100,0 -60,-60 60,-60 100,0 60,60 -60,60" transform="translate(0,0)" fill="rgb(247, 151, 226)" stroke="rgb(142, 19, 146)" stroke-width="5"></polygon><ellipse id="567e5329-d61f-499c-a9ea-cb4e85a5a422" class="node" null="cy" rx="90" ry="55" transform="translate(0,0)" fill="rgb(247, 151, 226)" stroke="rgb(142, 19, 146)" stroke-width="3"></ellipse></g><text id="567e5329-d61f-499c-a9ea-cb4e85a5a422" class="noselect node" x="0" fill="black" alignment-baseline="center" text-anchor="middle" font-size="20px" y="-20"> <tspan dy="1.1em" x="0">Entfaltungsspielraum</tspan></text></g><g transform="translate(270,581) scale(0.45)"><ellipse id="2f32432b-4b6b-4d14-92f7-8eb04cda4f5f" class="node" null="cy" rx="100" ry="70" transform="translate(0,0)" fill="#B9F1B9" stroke="#22AA22" stroke-width="9" opacity="1"></ellipse><text id="2f32432b-4b6b-4d14-92f7-8eb04cda4f5f" class="noselect node" x="0" fill="black" alignment-baseline="center" text-anchor="middle" font-size="20px" y="-20"> <tspan dy="1.1em" x="0">Entscheidungsfreiheit</tspan>  <tspan dy="1.1em" x="0"></tspan></text></g><g transform="translate(260,427) scale(0.45)"><polygon id="11592f1a-d9a0-41a9-80d9-bda8a9f10490" class="node" points="-100,0 -60,-60 60,-60 100,0 60,60 -60,60" transform="translate(0,0)" fill="#EB8989" stroke="#E04848" stroke-width="9"></polygon><text id="11592f1a-d9a0-41a9-80d9-bda8a9f10490" class="noselect node" x="0" fill="black" alignment-baseline="center" text-anchor="middle" font-size="20px" y="0">Überforderung</text></g><g transform="translate(831,277) scale(0.45)"><ellipse id="f088d014-60de-4253-b4ca-e3e1e5d8c915" class="node" null="cy" rx="100" ry="70" transform="translate(0,0)" fill="#B9F1B9" stroke="#22AA22" stroke-width="9" opacity="1"></ellipse><text id="f088d014-60de-4253-b4ca-e3e1e5d8c915" class="noselect node" x="0" fill="black" alignment-baseline="center" text-anchor="middle" font-size="20px" y="0">Gefühl</text></g><g transform="translate(602,505) scale(0.45)"><polygon id="34ddcab0-4793-4bd3-965a-403280c49e39" class="node" points="-100,0 -60,-60 60,-60 100,0 60,60 -60,60" transform="translate(0,0)" fill="#EB8989" stroke="#E04848" stroke-width="9"></polygon><text id="34ddcab0-4793-4bd3-965a-403280c49e39" class="noselect node" x="0" fill="black" alignment-baseline="center" text-anchor="middle" font-size="20px" y="0">Manipulation</text></g><g transform="translate(152,270) scale(0.45)"><polygon id="9ce20b84-a454-48a1-a3de-2e5e77188ee6" class="node" points="-100,0 -60,-60 60,-60 100,0 60,60 -60,60" transform="translate(0,0)" fill="#EB8989" stroke="#E04848" stroke-width="9"></polygon><text id="9ce20b84-a454-48a1-a3de-2e5e77188ee6" class="noselect node" x="0" fill="black" alignment-baseline="center" text-anchor="middle" font-size="20px" y="0">Haltlosigkeit</text></g></svg>