<?xml version="1.0" standalone="no"?>
<svg id="CAMSVG" xmlns="http://www.w3.org/2000/svg" height="1400px" width="2400px"><rect id="background" x="0" y="0" width="100%" height="100%" fill="white"></rect><marker id="arrowRight" markerWidth="30" markerHeight="15" refX="30" refY="7.5" orient="auto" markerUnits="userSpaceOnUse"><polygon points="30 0, 30 15, 0 7.5" fill="#8c8c8c"></polygon></marker><marker id="arrowLeft" markerWidth="30" markerHeight="15" refX="0" refY="7.5" orient="auto" markerUnits="userSpaceOnUse"><polygon points="0 0, 30 7.5, 0 15" fill="#8c8c8c"></polygon></marker><g><line class="connector" id="5698c776-6434-4830-b666-29b2bb3f072d" transform="translate(100,452.20001220703125) scale(1,1) " x1="40.52304138197858" y1="34.36910918711212" x2="99.07696472153704" y2="84.03088470937224" stroke="#808080" stroke-width="3" stroke-linecap="butt"></line><line transform="translate(100,452.20001220703125) " class="outer-connector" id="5698c776-6434-4830-b666-29b2bb3f072d" x1="0" y1="0" x2="114.3297611162209" y2="96.96735262539627" stroke="rgba(255, 255, 255, 0)" stroke-width="30"></line></g><g><line class="connector" id="8cb90f6b-f454-41ad-adb4-f6b02a59c86b" transform="translate(297,370.20001220703125) scale(1,1) " x1="-53.28792428844259" y1="22.18076036371722" x2="-143.71207571155742" y2="59.81923963628279" stroke="#808080" stroke-width="3" stroke-linecap="butt"></line><line transform="translate(297,370.20001220703125) " class="outer-connector" id="8cb90f6b-f454-41ad-adb4-f6b02a59c86b" x1="0" y1="0" x2="-162.17638597539954" y2="67.50489162427799" stroke="rgba(255, 255, 255, 0)" stroke-width="30"></line></g><g><line class="connector" id="773d2b22-ff20-434f-912d-2f96eb332618" transform="translate(297,370.20001220703125) scale(1,1) " x1="21.455001860059472" y1="40.42246727257581" x2="47.54499813994053" y2="89.57753272742418" stroke="#808080" stroke-width="3" stroke-linecap="butt"></line><line transform="translate(297,370.20001220703125) " class="outer-connector" id="773d2b22-ff20-434f-912d-2f96eb332618" x1="0" y1="0" x2="56.921478217927074" y2="107.2433647584133" stroke="rgba(255, 255, 255, 0)" stroke-width="30"></line></g><g><line class="connector" id="a538d3e3-7ecc-45f4-9bf2-0d1fdcb258eb" transform="translate(422,241.20001220703125) scale(1,1) " x1="-35.71464502068497" y1="36.85751366134689" x2="-89.28535497931503" y2="92.14248633865311" stroke="#808080" stroke-width="3" stroke-linecap="butt"></line><line transform="translate(422,241.20001220703125) " class="outer-connector" id="a538d3e3-7ecc-45f4-9bf2-0d1fdcb258eb" x1="0" y1="0" x2="-103.20305411466391" y2="106.50555184633318" stroke="rgba(255, 255, 255, 0)" stroke-width="30"></line></g><g><line class="connector" id="440982da-03ad-4a3e-bf0d-b729314f7480" transform="translate(594,286.20001220703125) scale(1,1) " x1="-57.10515684541803" y1="-14.940302663045415" x2="-114.89484315458196" y2="-30.05969733695459" stroke="#808080" stroke-width="3" stroke-linecap="butt"></line><line transform="translate(594,286.20001220703125) " class="outer-connector" id="440982da-03ad-4a3e-bf0d-b729314f7480" x1="0" y1="0" x2="-134.2435998857434" y2="-35.121872063130546" stroke="rgba(255, 255, 255, 0)" stroke-width="30"></line></g><g><line class="connector" id="25d7e855-ef45-4aa1-af4c-499a337d8b5b" transform="translate(366,500.20001220703125) scale(1,1) " x1="44.5885402861084" y1="-31.567108167156388" x2="68.4114597138916" y2="-48.432891832843616" stroke="#808080" stroke-width="3" stroke-linecap="butt"></line><line transform="translate(366,500.20001220703125) " class="outer-connector" id="25d7e855-ef45-4aa1-af4c-499a337d8b5b" x1="0" y1="0" x2="84.73478782867463" y2="-59.98923032118559" stroke="rgba(255, 255, 255, 0)" stroke-width="30"></line></g><g><line class="connector" id="de4dee1e-88a5-4077-982e-3c1c82a09333" transform="translate(478,601.2000122070312) scale(1,1) " x1="-39.05171119220362" y1="-35.216275271540766" x2="-72.94828880779637" y2="-65.78372472845925" stroke="#808080" stroke-width="3" stroke-linecap="butt"></line><line transform="translate(478,601.2000122070312) " class="outer-connector" id="de4dee1e-88a5-4077-982e-3c1c82a09333" x1="0" y1="0" x2="-87.80097644951489" y2="-79.17766626250896" stroke="rgba(255, 255, 255, 0)" stroke-width="30"></line></g><g><line class="connector" id="1cd7e353-3a16-4ddc-836c-9f25b4f26e40" transform="translate(239.60000610351562,570.6000061035156) scale(1,1) " x1="30.15904508838639" y1="38.84390246256243" x2="71.24094880809798" y2="91.75610364095317" stroke="#808080" stroke-width="3" stroke-linecap="butt"></line><line transform="translate(239.60000610351562,570.6000061035156) " class="outer-connector" id="1cd7e353-3a16-4ddc-836c-9f25b4f26e40" x1="0" y1="0" x2="83.50635712051778" y2="107.55356416249344" stroke="rgba(255, 255, 255, 0)" stroke-width="30"></line></g><g><line class="connector" id="d1acf25c-318b-4308-91fa-bb1e94eb550d" transform="translate(427,809.2000122070312) scale(1,1) " x1="-30.786194743584716" y1="-38.66173293380406" x2="-55.21380525641529" y2="-69.33826706619595" stroke="#808080" stroke-width="3" stroke-linecap="butt"></line><line transform="translate(427,809.2000122070312) " class="outer-connector" id="d1acf25c-318b-4308-91fa-bb1e94eb550d" x1="0" y1="0" x2="-67.67234089180937" y2="-84.98386995715596" stroke="rgba(255, 255, 255, 0)" stroke-width="30"></line></g><g><line class="connector" id="34268fe4-831f-4404-8555-768cdb9a9964" transform="translate(427,809.2000122070312) scale(1,1) " x1="42.67532291338607" y1="-32.9763858876165" x2="89.32467708661395" y2="-69.0236141123835" stroke="#808080" stroke-width="3" stroke-linecap="butt"></line><line transform="translate(427,809.2000122070312) " class="outer-connector" id="34268fe4-831f-4404-8555-768cdb9a9964" x1="0" y1="0" x2="105.15037711445729" y2="-81.2525641338988" stroke="rgba(255, 255, 255, 0)" stroke-width="30"></line></g><g><line class="connector" id="d52476cf-e486-44c6-8f1b-87d6f4f2a54a" transform="translate(478,601.2000122070312) scale(1,1) " x1="29.765956447528612" y1="38.95298004244484" x2="51.2340435524714" y2="67.04701995755515" stroke="#808080" stroke-width="3" stroke-linecap="butt"></line><line transform="translate(478,601.2000122070312) " class="outer-connector" id="d52476cf-e486-44c6-8f1b-87d6f4f2a54a" x1="0" y1="0" x2="63.37748028064533" y2="82.9384309845482" stroke="rgba(255, 255, 255, 0)" stroke-width="30"></line></g><g><line class="connector" id="1854fe64-f614-4645-a087-c8d7bbe05588" transform="translate(701,592.2000122070312) scale(1,1) " x1="-41.60411060426746" y1="33.69346985556872" x2="-100.39588939573251" y2="81.30653014443128" stroke="#808080" stroke-width="3" stroke-linecap="butt"></line><line transform="translate(701,592.2000122070312) " class="outer-connector" id="1854fe64-f614-4645-a087-c8d7bbe05588" x1="0" y1="0" x2="-115.93823758188113" y2="93.89364311208683" stroke="rgba(255, 255, 255, 0)" stroke-width="30"></line></g><g><line class="connector" id="65409e01-dd65-42a3-8af5-3dedea0ec65a" transform="translate(648,451.20001220703125) scale(1,1) " x1="-39.5784980406135" y1="34.92220415348251" x2="-130.4215019593865" y2="115.0777958465175" stroke="#808080" stroke-width="3" stroke-linecap="butt"></line><line transform="translate(648,451.20001220703125) " class="outer-connector" id="65409e01-dd65-42a3-8af5-3dedea0ec65a" x1="0" y1="0" x2="-145.41825906668834" y2="128.31022858825443" stroke="rgba(255, 255, 255, 0)" stroke-width="30"></line></g><g><line class="connector" id="6628938a-cf4d-408e-9d93-edb29ce23928" transform="translate(780,349.20001220703125) scale(1,1) " x1="-42.67532291338607" y1="32.9763858876165" x2="-89.32467708661395" y2="69.0236141123835" stroke="#808080" stroke-width="3" stroke-linecap="butt"></line><line transform="translate(780,349.20001220703125) " class="outer-connector" id="6628938a-cf4d-408e-9d93-edb29ce23928" x1="0" y1="0" x2="-105.15037711445729" y2="81.2525641338988" stroke="rgba(255, 255, 255, 0)" stroke-width="30"></line></g><g><line class="connector" id="bb5ab307-06b0-4274-8fb2-3f64dacb1032" transform="translate(559,707.2000122070312) scale(1,1) " x1="59.979419162917004" y1="-1.2829822280837864" x2="127.020580837083" y2="-2.717017771916214" stroke="#808080" stroke-width="3" stroke-linecap="butt"></line><line transform="translate(559,707.2000122070312) " class="outer-connector" id="bb5ab307-06b0-4274-8fb2-3f64dacb1032" x1="0" y1="0" x2="147.0160069254712" y2="-3.1447274208656943" stroke="rgba(255, 255, 255, 0)" stroke-width="30"></line></g><g><line class="connector" id="7ab5c28a-8dc5-48c1-99e7-34c102db4d04" transform="translate(559,707.2000122070312) scale(1,1) " x1="22.11016736876895" y1="40.35982932394331" x2="40.889832631231066" y2="74.64017067605668" stroke="#808080" stroke-width="3" stroke-linecap="butt"></line><line transform="translate(559,707.2000122070312) " class="outer-connector" id="7ab5c28a-8dc5-48c1-99e7-34c102db4d04" x1="0" y1="0" x2="50.498918711759885" y2="92.18056590241882" stroke="rgba(255, 255, 255, 0)" stroke-width="30"></line></g><g transform="translate(239.60000610351562,570.6000061035156) scale(0.45)"><rect id="d26a8cf4-ec51-40f6-a0e1-ce6d28e17088" class="node" x="-100" y="-60" width="200" height="120" transform="translate(0,0)" fill="#F0EEC0" stroke="#F3F033" stroke-width="5"></rect><text id="d26a8cf4-ec51-40f6-a0e1-ce6d28e17088" class="noselect node" x="0" fill="black" alignment-baseline="center" text-anchor="middle" font-size="20px" y="0">Freiheit</text></g><g transform="translate(366,500.20001220703125) scale(0.45)"><rect id="c6297b13-4a74-45b0-bd4c-04cff2dcc899" class="node" x="-100" y="-60" width="200" height="120" transform="translate(0,0)" fill="#F0EEC0" stroke="#F3F033" stroke-width="5"></rect><text id="c6297b13-4a74-45b0-bd4c-04cff2dcc899" class="noselect node" x="0" fill="black" alignment-baseline="center" text-anchor="middle" font-size="20px" y="0">sdf</text></g><g transform="translate(297,370.20001220703125) scale(0.45)"><rect id="4c6d59d7-49e1-4bf4-8f75-d03e2d51d089" class="node" x="-100" y="-60" width="200" height="120" transform="translate(0,0)" fill="#F0EEC0" stroke="#F3F033" stroke-width="5"></rect><text id="4c6d59d7-49e1-4bf4-8f75-d03e2d51d089" class="noselect node" x="0" fill="black" alignment-baseline="center" text-anchor="middle" font-size="20px" y="0">sdf</text></g><g transform="translate(100,452.20001220703125) scale(0.45)"><rect id="05ed5b4e-5ac3-4213-b946-afbb61635efd" class="node" x="-100" y="-60" width="200" height="120" transform="translate(0,0)" fill="#F0EEC0" stroke="#F3F033" stroke-width="5"></rect><text id="05ed5b4e-5ac3-4213-b946-afbb61635efd" class="noselect node" x="0" fill="black" alignment-baseline="center" text-anchor="middle" font-size="20px" y="0">f</text></g><g transform="translate(341,701.2000122070312) scale(0.45)"><rect id="b18d0640-9653-43a4-8632-0a083371421f" class="node" x="-100" y="-60" width="200" height="120" transform="translate(0,0)" fill="#F0EEC0" stroke="#F3F033" stroke-width="5"></rect><text id="b18d0640-9653-43a4-8632-0a083371421f" class="noselect node" x="0" fill="black" alignment-baseline="center" text-anchor="middle" font-size="20px" y="0">ksdf</text></g><g transform="translate(478,601.2000122070312) scale(0.45)"><rect id="12b71773-f086-46de-8932-dc863e78ab6e" class="node" x="-100" y="-60" width="200" height="120" transform="translate(0,0)" fill="#F0EEC0" stroke="#F3F033" stroke-width="5"></rect><text id="12b71773-f086-46de-8932-dc863e78ab6e" class="noselect node" x="0" fill="black" alignment-baseline="center" text-anchor="middle" font-size="20px" y="0">ksdf</text></g><g transform="translate(479,420.20001220703125) scale(0.45)"><rect id="21b319a8-cf63-4f71-92fb-a0ee93ec0353" class="node" x="-100" y="-60" width="200" height="120" transform="translate(0,0)" fill="#F0EEC0" stroke="#F3F033" stroke-width="5"></rect><text id="21b319a8-cf63-4f71-92fb-a0ee93ec0353" class="noselect node" x="0" fill="black" alignment-baseline="center" text-anchor="middle" font-size="20px" y="0">dfd</text></g><g transform="translate(422,241.20001220703125) scale(0.45)"><rect id="ebcd138a-9ce8-490f-945d-043fd5d8059c" class="node" x="-100" y="-60" width="200" height="120" transform="translate(0,0)" fill="#F0EEC0" stroke="#F3F033" stroke-width="5"></rect><text id="ebcd138a-9ce8-490f-945d-043fd5d8059c" class="noselect node" x="0" fill="black" alignment-baseline="center" text-anchor="middle" font-size="20px" y="0">sdff</text></g><g transform="translate(559,707.2000122070312) scale(0.45)"><rect id="7b70d4ea-bd53-4ef4-8476-5458adc4bfaa" class="node" x="-100" y="-60" width="200" height="120" transform="translate(0,0)" fill="#F0EEC0" stroke="#F3F033" stroke-width="5"></rect><text id="7b70d4ea-bd53-4ef4-8476-5458adc4bfaa" class="noselect node" x="0" fill="black" alignment-baseline="center" text-anchor="middle" font-size="20px" y="0">sdfdsf</text></g><g transform="translate(701,592.2000122070312) scale(0.45)"><rect id="c8a3d2bd-c3e0-4c38-8c52-283eff895634" class="node" x="-100" y="-60" width="200" height="120" transform="translate(0,0)" fill="#F0EEC0" stroke="#F3F033" stroke-width="5"></rect><text id="c8a3d2bd-c3e0-4c38-8c52-283eff895634" class="noselect node" x="0" fill="black" alignment-baseline="center" text-anchor="middle" font-size="20px" y="0">sdfdsf</text></g><g transform="translate(648,451.20001220703125) scale(0.45)"><rect id="468dca5c-bf5f-409d-aa7d-d275c8835521" class="node" x="-100" y="-60" width="200" height="120" transform="translate(0,0)" fill="#F0EEC0" stroke="#F3F033" stroke-width="5"></rect><text id="468dca5c-bf5f-409d-aa7d-d275c8835521" class="noselect node" x="0" fill="black" alignment-baseline="center" text-anchor="middle" font-size="20px" y="0">sdfdf</text></g><g transform="translate(594,286.20001220703125) scale(0.45)"><rect id="b6385c36-69dd-4ed9-b7db-8a8581084d32" class="node" x="-100" y="-60" width="200" height="120" transform="translate(0,0)" fill="#F0EEC0" stroke="#F3F033" stroke-width="5"></rect><text id="b6385c36-69dd-4ed9-b7db-8a8581084d32" class="noselect node" x="0" fill="black" alignment-baseline="center" text-anchor="middle" font-size="20px" y="0">sdffsdf</text></g><g transform="translate(427,809.2000122070312) scale(0.45)"><rect id="f49f7d11-b7ca-47a4-9d7b-dbe4e0168a3f" class="node" x="-100" y="-60" width="200" height="120" transform="translate(0,0)" fill="#F0EEC0" stroke="#F3F033" stroke-width="5"></rect><text id="f49f7d11-b7ca-47a4-9d7b-dbe4e0168a3f" class="noselect node" x="0" fill="black" alignment-baseline="center" text-anchor="middle" font-size="20px" y="0">sdfsdf</text></g><g transform="translate(622,822.2000122070312) scale(0.45)"><rect id="6f79a197-5f54-4e3d-afe0-de511e4552ef" class="node" x="-100" y="-60" width="200" height="120" transform="translate(0,0)" fill="#F0EEC0" stroke="#F3F033" stroke-width="5"></rect><text id="6f79a197-5f54-4e3d-afe0-de511e4552ef" class="noselect node" x="0" fill="black" alignment-baseline="center" text-anchor="middle" font-size="20px" y="0">sdf</text></g><g transform="translate(746,703.2000122070312) scale(0.45)"><rect id="95fa1238-cab2-4c3d-a4e1-9d9b390c1967" class="node" x="-100" y="-60" width="200" height="120" transform="translate(0,0)" fill="#F0EEC0" stroke="#F3F033" stroke-width="5"></rect><text id="95fa1238-cab2-4c3d-a4e1-9d9b390c1967" class="noselect node" x="0" fill="black" alignment-baseline="center" text-anchor="middle" font-size="20px" y="0">sdf</text></g><g transform="translate(780,349.20001220703125) scale(0.45)"><rect id="7fe0f154-0f18-4196-a7c9-6b50f7d38bc0" class="node" x="-100" y="-60" width="200" height="120" transform="translate(0,0)" fill="#F0EEC0" stroke="#F3F033" stroke-width="5"></rect><text id="7fe0f154-0f18-4196-a7c9-6b50f7d38bc0" class="noselect node" x="0" fill="black" alignment-baseline="center" text-anchor="middle" font-size="20px" y="0">df</text></g></svg>