<?xml version="1.0" standalone="no"?>
<svg id="CAMSVG" xmlns="http://www.w3.org/2000/svg" height="1400px" width="2400px"><rect id="background" x="0" y="0" width="100%" height="100%" fill="white"></rect><marker id="arrowRight" markerWidth="30" markerHeight="15" refX="30" refY="7.5" orient="auto" markerUnits="userSpaceOnUse"><polygon points="30 0, 30 15, 0 7.5" fill="#8c8c8c"></polygon></marker><marker id="arrowLeft" markerWidth="30" markerHeight="15" refX="0" refY="7.5" orient="auto" markerUnits="userSpaceOnUse"><polygon points="0 0, 30 7.5, 0 15" fill="#8c8c8c"></polygon></marker><g><line class="connector" id="9d3022e6-6f34-43c7-bcd8-055116456820" transform="translate(290,306) scale(1,1) " x1="-48.65685137053342" y1="-27.913667365200745" x2="-141.3431486294666" y2="-81.08633263479925" stroke="#808080" stroke-width="3" stroke-linecap="butt"></line><line transform="translate(290,306) " class="outer-connector" id="9d3022e6-6f34-43c7-bcd8-055116456820" x1="0" y1="0" x2="-158.69113007829483" y2="-91.03859567649543" stroke="rgba(255, 255, 255, 0)" stroke-width="30"></line></g><g><line class="connector" id="908a855f-c9b3-4612-9df4-6afb1d19dfc0" transform="translate(274,127) scale(1,1) " x1="3.582267093393768" y1="40.076613107342745" x2="12.417732906606247" y2="138.92338689265725" stroke="#808080" stroke-width="3" stroke-linecap="butt"></line><line transform="translate(274,127) " class="outer-connector" id="908a855f-c9b3-4612-9df4-6afb1d19dfc0" x1="0" y1="0" x2="14.198343228447127" y2="158.84396486825207" stroke="rgba(255, 255, 255, 0)" stroke-width="30"></line></g><g><line class="connector" id="e8f985b7-d8ec-49cb-9453-6352e192868b" transform="translate(441,100) scale(1,1) " x1="-58.851842833258594" y1="9.514968601784323" x2="-108.14815716674143" y2="17.48503139821568" stroke="#808080" stroke-width="3" stroke-linecap="butt"></line><line transform="translate(441,100) " class="outer-connector" id="e8f985b7-d8ec-49cb-9453-6352e192868b" x1="0" y1="0" x2="-127.89177914214925" y2="20.67711399304209" stroke="rgba(255, 255, 255, 0)" stroke-width="30"></line></g><g><line class="connector" id="fedd018e-7cfa-4849-8516-0cd7208d373d" transform="translate(448,234) scale(1,1) " x1="-2.0909574975898604" y1="-40.02690066814875" x2="-4.909042502410142" y2="-93.97309933185127" stroke="#808080" stroke-width="3" stroke-linecap="butt"></line><line transform="translate(448,234) " class="outer-connector" id="fedd018e-7cfa-4849-8516-0cd7208d373d" x1="0" y1="0" x2="-5.952395991765001" y2="-113.94586612807285" stroke="rgba(255, 255, 255, 0)" stroke-width="30"></line></g><g><line class="connector" id="fcf61a3b-5fc1-46d7-8f8a-91b07b98e055" transform="translate(290,306) scale(1,1) " x1="52.17024417120284" y1="-23.773782153965854" x2="105.82975582879716" y2="-48.22621784603415" stroke="#808080" stroke-width="3" stroke-linecap="butt"></line><line transform="translate(290,306) " class="outer-connector" id="fcf61a3b-5fc1-46d7-8f8a-91b07b98e055" x1="0" y1="0" x2="124.02918763396754" y2="-56.519629807883945" stroke="rgba(255, 255, 255, 0)" stroke-width="30"></line></g><g><line class="connector" id="95412c57-edeb-4269-b985-6ac701aa4f6e" transform="translate(290,306) scale(1,1) " x1="55.522431333366264" y1="18.389595091306028" x2="101.47756866663374" y2="33.61040490869398" stroke="#808080" stroke-width="3" stroke-linecap="butt"></line><line transform="translate(290,306) " class="outer-connector" id="95412c57-edeb-4269-b985-6ac701aa4f6e" x1="0" y1="0" x2="120.46329276253708" y2="39.8986702143435" stroke="rgba(255, 255, 255, 0)" stroke-width="30"></line></g><g transform="translate(290,306) scale(0.45)"><rect id="0d5de85b-5865-4525-bdce-9269149b8dcf" class="node" x="-100" y="-60" width="200" height="120" transform="translate(0,0)" fill="#F0EEC0" stroke="#F3F033" stroke-width="5"></rect><text id="0d5de85b-5865-4525-bdce-9269149b8dcf" class="noselect node" x="0" fill="black" alignment-baseline="center" text-anchor="middle" font-size="20px" y="0">Freiheit</text></g><g transform="translate(448,234) scale(0.45)"><rect id="1c93d395-4df1-4eb1-a56c-5124927568bd" class="node" x="-100" y="-60" width="200" height="120" transform="translate(0,0)" fill="#F0EEC0" stroke="#F3F033" stroke-width="5"></rect><text id="1c93d395-4df1-4eb1-a56c-5124927568bd" class="noselect node" x="0" fill="black" alignment-baseline="center" text-anchor="middle" font-size="20px" y="0">skdfjsdf</text></g><g transform="translate(447,358) scale(0.45)"><rect id="aff67a30-0120-4eaf-b587-eede41dbaaf1" class="node" x="-100" y="-60" width="200" height="120" transform="translate(0,0)" fill="#F0EEC0" stroke="#F3F033" stroke-width="5"></rect><text id="aff67a30-0120-4eaf-b587-eede41dbaaf1" class="noselect node" x="0" fill="black" alignment-baseline="center" text-anchor="middle" font-size="20px" y="0">sdflkdsjflkdsjf</text></g><g transform="translate(274,127) scale(0.45)"><rect id="aa303bab-c5b0-4d34-a089-137a641fc548" class="node" x="-100" y="-60" width="200" height="120" transform="translate(0,0)" fill="#F0EEC0" stroke="#F3F033" stroke-width="5"></rect><text id="aa303bab-c5b0-4d34-a089-137a641fc548" class="noselect node" x="0" fill="black" alignment-baseline="center" text-anchor="middle" font-size="20px" y="0">flksdjflksd</text></g><g transform="translate(441,100) scale(0.45)"><rect id="e224da4d-488d-49d2-9abb-2a6072a2f880" class="node" x="-100" y="-60" width="200" height="120" transform="translate(0,0)" fill="#F0EEC0" stroke="#F3F033" stroke-width="5"></rect><text id="e224da4d-488d-49d2-9abb-2a6072a2f880" class="noselect node" x="0" fill="black" alignment-baseline="center" text-anchor="middle" font-size="20px" y="0">flkdsjfksdf</text></g><g transform="translate(100,197) scale(0.45)"><rect id="da1f45d7-d2f3-4348-8d2b-e7268abb16fc" class="node" x="-100" y="-60" width="200" height="120" transform="translate(0,0)" fill="#F0EEC0" stroke="#F3F033" stroke-width="5"></rect><text id="da1f45d7-d2f3-4348-8d2b-e7268abb16fc" class="noselect node" x="0" fill="black" alignment-baseline="center" text-anchor="middle" font-size="20px" y="0">dnf,mdsnf</text></g></svg>