<?xml version="1.0" standalone="no"?>
<svg id="CAMSVG" xmlns="http://www.w3.org/2000/svg" height="1400px" width="2400px"><rect id="background" x="0" y="0" width="100%" height="100%" fill="white"></rect><marker id="arrowRight" markerWidth="30" markerHeight="15" refX="30" refY="7.5" orient="auto" markerUnits="userSpaceOnUse"><polygon points="30 0, 30 15, 0 7.5" fill="#8c8c8c"></polygon></marker><marker id="arrowLeft" markerWidth="30" markerHeight="15" refX="0" refY="7.5" orient="auto" markerUnits="userSpaceOnUse"><polygon points="0 0, 30 7.5, 0 15" fill="#8c8c8c"></polygon></marker><g><line class="connector" id="7e5a0977-7848-45b2-a0c0-846670a9b8ba" transform="translate(243,100) scale(1,1) " x1="-52.203399658694075" y1="23.728818026679132" x2="-90.79660034130592" y2="41.27118197332088" stroke="#808080" stroke-width="3" stroke-linecap="butt"></line><line transform="translate(243,100) " class="outer-connector" id="7e5a0977-7848-45b2-a0c0-846670a9b8ba" x1="0" y1="0" x2="-109.00392989055801" y2="49.54724085934456" stroke="rgba(255, 255, 255, 0)" stroke-width="30"></line></g><g><line class="connector" id="2e437ba8-b6cb-4856-80df-f5241d59b3d0" transform="translate(277,290.6666717529297) scale(1,1) " x1="51.81417406425982" y1="-24.248577687074246" x2="99.1858259357402" y2="-46.41809406585544" stroke="#808080" stroke-width="3" stroke-linecap="butt"></line><line transform="translate(277,290.6666717529297) " class="outer-connector" id="2e437ba8-b6cb-4856-80df-f5241d59b3d0" x1="0" y1="0" x2="117.30028352522159" y2="-54.89550087683721" stroke="rgba(255, 255, 255, 0)" stroke-width="30"></line></g><g><line class="connector" id="31894c10-6038-4c81-a6cc-74565fcd18d8" transform="translate(277,290.6666717529297) scale(1,1) " x1="-7.180815115098985" y1="-40.26888583732512" x2="-26.81918488490102" y2="-150.39778591560457" stroke="#808080" stroke-width="3" stroke-linecap="butt"></line><line transform="translate(277,290.6666717529297) " class="outer-connector" id="31894c10-6038-4c81-a6cc-74565fcd18d8" x1="0" y1="0" x2="-30.330231987998214" y2="-170.08718784252537" stroke="rgba(255, 255, 255, 0)" stroke-width="30"></line></g><g><line class="connector" id="0dc01116-91f4-4a07-afc5-360a0d836836" transform="translate(277,290.6666717529297) scale(1,1) " x1="30.69673062444297" y1="-38.68833803371386" x2="106.30326937555702" y2="-133.9783337192158" stroke="#808080" stroke-width="3" stroke-linecap="butt"></line><line transform="translate(277,290.6666717529297) " class="outer-connector" id="0dc01116-91f4-4a07-afc5-360a0d836836" x1="0" y1="0" x2="118.73436432773708" y2="-149.64574825671636" stroke="rgba(255, 255, 255, 0)" stroke-width="30"></line></g><g><line class="connector" id="1392f918-78fb-4c67-bb58-a0f2814dc908" transform="translate(277,290.6666717529297) scale(1,1) " x1="58.796593211197795" y1="9.737798671949292" x2="100.20340678880221" y2="16.59552957512102" stroke="#808080" stroke-width="3" stroke-linecap="butt"></line><line transform="translate(277,290.6666717529297) " class="outer-connector" id="1392f918-78fb-4c67-bb58-a0f2814dc908" x1="0" y1="0" x2="119.93462904235646" y2="19.863383363289213" stroke="rgba(255, 255, 255, 0)" stroke-width="30"></line></g><g transform="translate(277,290.6666717529297) scale(0.45)"><rect id="c645e88d-c02e-4faf-91bb-9e99fe7918e6" class="node" x="-100" y="-60" width="200" height="120" transform="translate(0,0)" fill="#F0EEC0" stroke="#F3F033" stroke-width="5"></rect><text id="c645e88d-c02e-4faf-91bb-9e99fe7918e6" class="noselect node" x="0" fill="black" alignment-baseline="center" text-anchor="middle" font-size="20px" y="0">Freiheit</text></g><g transform="translate(100,165) scale(0.45)"><rect id="e77c9bd7-128e-445f-9d12-eefd30552352" class="node" x="-100" y="-60" width="200" height="120" transform="translate(0,0)" fill="#F0EEC0" stroke="#F3F033" stroke-width="5"></rect><text id="e77c9bd7-128e-445f-9d12-eefd30552352" class="noselect node" x="0" fill="black" alignment-baseline="center" text-anchor="middle" font-size="20px" y="0">2</text></g><g transform="translate(243,100) scale(0.45)"><rect id="261490e7-14ec-440c-b265-963b09b0c98d" class="node" x="-100" y="-60" width="200" height="120" transform="translate(0,0)" fill="#F0EEC0" stroke="#F3F033" stroke-width="5"></rect><text id="261490e7-14ec-440c-b265-963b09b0c98d" class="noselect node" x="0" fill="black" alignment-baseline="center" text-anchor="middle" font-size="20px" y="0">3</text></g><g transform="translate(414,118) scale(0.45)"><rect id="d902c303-ba0a-4d00-a01c-479c24265dd3" class="node" x="-100" y="-60" width="200" height="120" transform="translate(0,0)" fill="#F0EEC0" stroke="#F3F033" stroke-width="5"></rect><text id="d902c303-ba0a-4d00-a01c-479c24265dd3" class="noselect node" x="0" fill="black" alignment-baseline="center" text-anchor="middle" font-size="20px" y="0">4</text></g><g transform="translate(428,220) scale(0.45)"><rect id="69836528-91dd-478b-90b7-ddbc57860e15" class="node" x="-100" y="-60" width="200" height="120" transform="translate(0,0)" fill="#F0EEC0" stroke="#F3F033" stroke-width="5"></rect><text id="69836528-91dd-478b-90b7-ddbc57860e15" class="noselect node" x="0" fill="black" alignment-baseline="center" text-anchor="middle" font-size="20px" y="0">5</text></g><g transform="translate(436,317) scale(0.45)"><rect id="f75309c2-dc07-4bd0-bab0-2bf69f525d2b" class="node" x="-100" y="-60" width="200" height="120" transform="translate(0,0)" fill="#F0EEC0" stroke="#F3F033" stroke-width="5"></rect><text id="f75309c2-dc07-4bd0-bab0-2bf69f525d2b" class="noselect node" x="0" fill="black" alignment-baseline="center" text-anchor="middle" font-size="20px" y="0">1</text></g></svg>