<?xml version="1.0" standalone="no"?>
<svg id="CAMSVG" xmlns="http://www.w3.org/2000/svg" height="1400px" width="2400px"><rect id="background" x="0" y="0" width="100%" height="100%" fill="white"></rect><marker id="arrowRight" markerWidth="30" markerHeight="15" refX="30" refY="7.5" orient="auto" markerUnits="userSpaceOnUse"><polygon points="30 0, 30 15, 0 7.5" fill="#8c8c8c"></polygon></marker><marker id="arrowLeft" markerWidth="30" markerHeight="15" refX="0" refY="7.5" orient="auto" markerUnits="userSpaceOnUse"><polygon points="0 0, 30 7.5, 0 15" fill="#8c8c8c"></polygon></marker><g><line class="connector" id="61fc0cff-90c0-4810-9434-1c6c704e9386" transform="translate(635,430) scale(1,1) " x1="-38.14461035375595" y1="35.699443023386976" x2="-117.85538964624408" y2="110.30055697661302" stroke="#808080" stroke-width="6" stroke-linecap="butt"></line><line transform="translate(635,430) " class="outer-connector" id="61fc0cff-90c0-4810-9434-1c6c704e9386" x1="0" y1="0" x2="-132.4578047407578" y2="123.96691982147843" stroke="rgba(255, 255, 255, 0)" stroke-width="30"></line></g><g><line class="connector" id="e862af9a-6dab-4194-9d24-d838009fb829" transform="translate(369,252) scale(1,1) " x1="13.78892006417799" y1="40.61463727994246" x2="96.21107993582197" y2="283.3853627200575" stroke="#808080" stroke-width="6" stroke-dasharray="20,10"></line><line transform="translate(369,252) " class="outer-connector" id="e862af9a-6dab-4194-9d24-d838009fb829" x1="0" y1="0" x2="102.64075081390997" y2="302.3236660336986" stroke="rgba(255, 255, 255, 0)" stroke-width="30"></line></g><g><line class="connector" id="6050779c-7b33-4162-9ecd-f7b907e83ed3" transform="translate(479,576) scale(1,1) " x1="-59.9987469086061" y1="-0.31661607867338304" x2="-319.00125309139395" y2="-1.6833839213266166" stroke="#808080" stroke-width="6" stroke-linecap="butt"></line><line transform="translate(479,576) " class="outer-connector" id="6050779c-7b33-4162-9ecd-f7b907e83ed3" x1="0" y1="0" x2="-339.0009746251858" y2="-1.7889233489455711" stroke="rgba(255, 255, 255, 0)" stroke-width="30"></line></g><g><line class="connector" id="ef5f6dde-8f27-487f-8fb4-3fa16219f821" transform="translate(479,576) scale(1,1) " x1="15.108030474623419" y1="40.64272986835313" x2="55.8919695253766" y2="150.35727013164686" stroke="#808080" stroke-width="3" stroke-dasharray="20,10"></line><line transform="translate(479,576) " class="outer-connector" id="ef5f6dde-8f27-487f-8fb4-3fa16219f821" x1="0" y1="0" x2="62.86062850584967" y2="169.10394429038425" stroke="rgba(255, 255, 255, 0)" stroke-width="30"></line></g><g><line class="connector" id="b7ca5ab4-d80e-4b95-9422-e0c867a4f626" transform="translate(919,588) scale(1,1) " x1="-59.96655224865277" y1="-1.6354514249632572" x2="-380.03344775134724" y2="-10.364548575036743" stroke="#808080" stroke-width="9" stroke-linecap="butt"></line><line transform="translate(919,588) " class="outer-connector" id="b7ca5ab4-d80e-4b95-9422-e0c867a4f626" x1="0" y1="0" x2="-400.02601388155483" y2="-10.909800378587859" stroke="rgba(255, 255, 255, 0)" stroke-width="30"></line></g><g><line class="connector" id="98dd6a93-0e9d-46b7-ac8a-dd3a65930117" transform="translate(479,576) scale(1,1) " x1="52.75108575819844" y1="-22.96645910561021" x2="388.2489142418016" y2="-169.0335408943898" stroke="#808080" stroke-width="3" stroke-dasharray="20,10"></line><line transform="translate(479,576) " class="outer-connector" id="98dd6a93-0e9d-46b7-ac8a-dd3a65930117" x1="0" y1="0" x2="406.5863466612488" y2="-177.01718494095186" stroke="rgba(255, 255, 255, 0)" stroke-width="30"></line></g><g><line class="connector" id="e75d0b8a-e8c5-494a-9a56-c83252bab704" transform="translate(479,576) scale(1,1) " x1="44.46921401011128" y1="31.66014693111184" x2="139.5307859898887" y2="99.33985306888817" stroke="#808080" stroke-width="6" stroke-linecap="butt"></line><line transform="translate(479,576) " class="outer-connector" id="e75d0b8a-e8c5-494a-9a56-c83252bab704" x1="0" y1="0" x2="155.82338467696033" y2="110.93947496022722" stroke="rgba(255, 255, 255, 0)" stroke-width="30"></line></g><g><line class="connector" id="a3b47872-cb8b-4483-ab8b-8d7411b7f8b6" transform="translate(207,704) scale(1,1) " x1="51.73855379945792" y1="-24.347554729156666" x2="220.2614462005421" y2="-103.65244527084334" stroke="#808080" stroke-width="9" stroke-dasharray="20,10"></line><line transform="translate(207,704) " class="outer-connector" id="a3b47872-cb8b-4483-ab8b-8d7411b7f8b6" x1="0" y1="0" x2="238.357820244562" y2="-112.16838599744094" stroke="rgba(255, 255, 255, 0)" stroke-width="30"></line></g><g transform="translate(479,576) scale(0.45)"><rect id="fa9225f8-006a-42da-a20a-be9a1b800e76" class="node" x="-100" y="-60" width="200" height="120" transform="translate(0,0)" fill="#F0EEC0" stroke="#F3F033" stroke-width="5"></rect><text id="fa9225f8-006a-42da-a20a-be9a1b800e76" class="noselect node" x="0" fill="black" alignment-baseline="center" text-anchor="middle" font-size="20px" y="0">Freiheit</text></g><g transform="translate(635,430) scale(0.45)"><ellipse id="8ea57e3c-ace1-4dab-b664-91933d267c49" class="node" null="cy" rx="100" ry="70" transform="translate(0,0)" fill="#B9F1B9" stroke="#22AA22" stroke-width="6" opacity="1"></ellipse><text id="8ea57e3c-ace1-4dab-b664-91933d267c49" class="noselect node" x="0" fill="black" alignment-baseline="center" text-anchor="middle" font-size="20px" y="-20"> <tspan dy="1.1em" x="0">Entscheidungsfreiheit</tspan>  <tspan dy="1.1em" x="0"></tspan></text></g><g transform="translate(369,252) scale(0.45)"><polygon id="da330ee3-f21f-4280-9b9e-404bf2718300" class="node" points="-100,0 -60,-60 60,-60 100,0 60,60 -60,60" transform="translate(0,0)" fill="#EB8989" stroke="#E04848" stroke-width="9"></polygon><text id="da330ee3-f21f-4280-9b9e-404bf2718300" class="noselect node" x="0" fill="black" alignment-baseline="center" text-anchor="middle" font-size="20px" y="0">Krieg</text></g><g transform="translate(100,574) scale(0.45)"><ellipse id="d873fc35-39d3-47da-94c1-2ffa084333fd" class="node" null="cy" rx="100" ry="70" transform="translate(0,0)" fill="#B9F1B9" stroke="#22AA22" stroke-width="9" opacity="1"></ellipse><text id="d873fc35-39d3-47da-94c1-2ffa084333fd" class="noselect node" x="0" fill="black" alignment-baseline="center" text-anchor="middle" font-size="20px" y="0">Bildung </text></g><g transform="translate(550,767) scale(0.45)"><g><polygon id="e182d646-4a47-481b-8098-ec7f06de76bf" class="node" points="-100,0 -60,-60 60,-60 100,0 60,60 -60,60" transform="translate(0,0)" fill="rgb(247, 151, 226)" stroke="rgb(142, 19, 146)" stroke-width="5"></polygon><ellipse id="e182d646-4a47-481b-8098-ec7f06de76bf" class="node" null="cy" rx="90" ry="55" transform="translate(0,0)" fill="rgb(247, 151, 226)" stroke="rgb(142, 19, 146)" stroke-width="3"></ellipse></g><text id="e182d646-4a47-481b-8098-ec7f06de76bf" class="noselect node" x="0" fill="black" alignment-baseline="center" text-anchor="middle" font-size="20px" y="0">Meinungsfreiheit</text></g><g transform="translate(919,588) scale(0.45)"><rect id="de10526f-7e4b-464a-ace1-361fc66066da" class="node" x="-100" y="-60" width="200" height="120" transform="translate(0,0)" fill="#F0EEC0" stroke="#F3F033" stroke-width="5"></rect><text id="de10526f-7e4b-464a-ace1-361fc66066da" class="noselect node" x="0" fill="black" alignment-baseline="center" text-anchor="middle" font-size="20px" y="0">Lebensstil </text></g><g transform="translate(920,384) scale(0.45)"><g><polygon id="b8a7256f-d2a0-4678-82ba-c1305ff462e7" class="node" points="-100,0 -60,-60 60,-60 100,0 60,60 -60,60" transform="translate(0,0)" fill="rgb(247, 151, 226)" stroke="rgb(142, 19, 146)" stroke-width="5"></polygon><ellipse id="b8a7256f-d2a0-4678-82ba-c1305ff462e7" class="node" null="cy" rx="90" ry="55" transform="translate(0,0)" fill="rgb(247, 151, 226)" stroke="rgb(142, 19, 146)" stroke-width="3"></ellipse></g><text id="b8a7256f-d2a0-4678-82ba-c1305ff462e7" class="noselect node" x="0" fill="black" alignment-baseline="center" text-anchor="middle" font-size="20px" y="-20">Freiheit  <tspan dy="1.1em" x="0">ist</tspan>  <tspan dy="1.1em" x="0">subjektiv</tspan></text></g><g transform="translate(663,707) scale(0.45)"><ellipse id="4cb6912b-066b-4604-b864-7c8d01e7c6ee" class="node" null="cy" rx="100" ry="70" transform="translate(0,0)" fill="#B9F1B9" stroke="#22AA22" stroke-width="9" opacity="1"></ellipse><text id="4cb6912b-066b-4604-b864-7c8d01e7c6ee" class="noselect node" x="0" fill="black" alignment-baseline="center" text-anchor="middle" font-size="20px" y="-20"> <tspan dy="1.1em" x="0">finanziell</tspan>  <tspan dy="1.1em" x="0">Freiheit</tspan> </text></g><g transform="translate(207,704) scale(0.45)"><polygon id="bd5b15d5-73c0-422f-83d1-0313eee008d7" class="node" points="-100,0 -60,-60 60,-60 100,0 60,60 -60,60" transform="translate(0,0)" fill="#EB8989" stroke="#E04848" stroke-width="9"></polygon><text id="bd5b15d5-73c0-422f-83d1-0313eee008d7" class="noselect node" x="0" fill="black" alignment-baseline="center" text-anchor="middle" font-size="20px" y="-20">Alle  <tspan dy="1.1em" x="0">Formen</tspan> der  <tspan dy="1.1em" x="0">Gewalt</tspan> </text></g></svg>