<?xml version="1.0" standalone="no"?>
<svg id="CAMSVG" xmlns="http://www.w3.org/2000/svg" height="1400px" width="2400px"><rect id="background" x="0" y="0" width="100%" height="100%" fill="white"></rect><marker id="arrowRight" markerWidth="30" markerHeight="15" refX="30" refY="7.5" orient="auto" markerUnits="userSpaceOnUse"><polygon points="30 0, 30 15, 0 7.5" fill="#8c8c8c"></polygon></marker><marker id="arrowLeft" markerWidth="30" markerHeight="15" refX="0" refY="7.5" orient="auto" markerUnits="userSpaceOnUse"><polygon points="0 0, 30 7.5, 0 15" fill="#8c8c8c"></polygon></marker><g><line class="connector" id="f5d9fc11-fbdc-485a-b7f2-64f6577b8074" transform="translate(289,374) scale(1,1) " x1="7.814855903120933" y1="40.308204131886946" x2="11.185144096879053" y2="57.691795868113054" stroke="#808080" stroke-width="3" stroke-linecap="butt"></line><line transform="translate(289,374) " class="outer-connector" id="f5d9fc11-fbdc-485a-b7f2-64f6577b8074" x1="0" y1="0" x2="14.991811604199532" y2="77.32618616902921" stroke="rgba(255, 255, 255, 0)" stroke-width="30"></line></g><g><line class="connector" id="565b518c-e8b7-4428-80b5-1ec47e78d736" transform="translate(303,165) scale(1,1) " x1="-2.6823615294291576" y1="40.04382568933533" x2="-11.317638470570826" y2="168.95617431066466" stroke="#808080" stroke-width="3" stroke-linecap="butt"></line><line transform="translate(303,165) " class="outer-connector" id="565b518c-e8b7-4428-80b5-1ec47e78d736" x1="0" y1="0" x2="-12.654355769300482" y2="188.91145398455743" stroke="rgba(255, 255, 255, 0)" stroke-width="30"></line></g><g><line class="connector" id="92684a2e-11f7-43a7-a242-dbe7403e14bf" transform="translate(303,165) scale(1,1) " x1="48.84250750712795" y1="27.721423179721267" x2="99.15749249287207" y2="56.27857682027874" stroke="#808080" stroke-width="3" stroke-linecap="butt"></line><line transform="translate(303,165) " class="outer-connector" id="92684a2e-11f7-43a7-a242-dbe7403e14bf" x1="0" y1="0" x2="116.551210797596" y2="66.15068720944637" stroke="rgba(255, 255, 255, 0)" stroke-width="30"></line></g><g><line class="connector" id="a35185d0-9493-48ba-b89a-a971d0914b42" transform="translate(590,171) scale(1,1) " x1="-49.03705882636197" y1="27.5171984781024" x2="-89.96294117363803" y2="50.4828015218976" stroke="#808080" stroke-width="3" stroke-linecap="butt"></line><line transform="translate(590,171) " class="outer-connector" id="a35185d0-9493-48ba-b89a-a971d0914b42" x1="0" y1="0" x2="-107.40449595249073" y2="60.2701488078725" stroke="rgba(255, 255, 255, 0)" stroke-width="30"></line></g><g><line class="connector" id="fd94dbd9-645f-400a-8900-bcdfc03c062d" transform="translate(451,249) scale(1,1) " x1="6.353589099910211" y1="40.21882205693459" x2="14.24641700360541" y2="90.18117183954979" stroke="#808080" stroke-width="3" stroke-linecap="butt"></line><line transform="translate(451,249) " class="outer-connector" id="fd94dbd9-645f-400a-8900-bcdfc03c062d" x1="0" y1="0" x2="17.367225407808082" y2="109.9361852514475" stroke="rgba(255, 255, 255, 0)" stroke-width="30"></line></g><g><line class="connector" id="c6b80835-a679-4478-b1b8-13bd374f6cc6" transform="translate(645,243) scale(1,1) " x1="-59.956994669613316" y1="1.8543400413282467" x2="-134.0430053303867" y2="4.145659958671754" stroke="#808080" stroke-width="3" stroke-linecap="butt"></line><line transform="translate(645,243) " class="outer-connector" id="c6b80835-a679-4478-b1b8-13bd374f6cc6" x1="0" y1="0" x2="-154.03344687724805" y2="4.76392103744066" stroke="rgba(255, 255, 255, 0)" stroke-width="30"></line></g><g><line class="connector" id="ca50a5b8-42e0-4de2-9325-021782a49878" transform="translate(471.6000061035156,379.3999938964844) scale(1,1) " x1="56.62014166469962" y1="-16.092661751303826" x2="134.77985223178476" y2="-38.30733214518055" stroke="#808080" stroke-width="3" stroke-linecap="butt"></line><line transform="translate(471.6000061035156,379.3999938964844) " class="outer-connector" id="ca50a5b8-42e0-4de2-9325-021782a49878" x1="0" y1="0" x2="154.01789880266523" y2="-43.77519865202166" stroke="rgba(255, 255, 255, 0)" stroke-width="30"></line></g><g><line class="connector" id="36e841d7-040f-4e72-a84d-6f392ae2e081" transform="translate(471.6000061035156,379.3999938964844) scale(1,1) " x1="53.62551108405188" y1="21.665323291545242" x2="155.7744828124325" y2="62.93468281197039" stroke="#808080" stroke-width="3" stroke-linecap="butt"></line><line transform="translate(471.6000061035156,379.3999938964844) " class="outer-connector" id="36e841d7-040f-4e72-a84d-6f392ae2e081" x1="0" y1="0" x2="174.31825473390347" y2="70.42657996319082" stroke="rgba(255, 255, 255, 0)" stroke-width="30"></line></g><g><line class="connector" id="29294d4d-a03e-4b9e-9b91-173f7397f05f" transform="translate(471.6000061035156,379.3999938964844) scale(1,1) " x1="9.804946453471443" y1="40.43028249368178" x2="22.595047443012934" y2="93.16972360983385" stroke="#808080" stroke-width="3" stroke-linecap="butt"></line><line transform="translate(471.6000061035156,379.3999938964844) " class="outer-connector" id="29294d4d-a03e-4b9e-9b91-173f7397f05f" x1="0" y1="0" x2="27.308712448997873" y2="112.60632213455914" stroke="rgba(255, 255, 255, 0)" stroke-width="30"></line></g><g><line class="connector" id="f5033b89-03a7-4d94-8e67-b640f6a53435" transform="translate(645,243) scale(1,1) " x1="41.107393190480664" y1="-34.009713790685446" x2="97.89260680951932" y2="-80.99028620931455" stroke="#808080" stroke-width="3" stroke-linecap="butt"></line><line transform="translate(645,243) " class="outer-connector" id="f5033b89-03a7-4d94-8e67-b640f6a53435" x1="0" y1="0" x2="113.30237074927246" y2="-93.73937148321103" stroke="rgba(255, 255, 255, 0)" stroke-width="30"></line></g><g><line class="connector" id="c986d221-448b-4ccd-8784-10e173b8fa4f" transform="translate(892,298) scale(1,1) " x1="-25.361500237386977" y1="-39.920880003294315" x2="-82.63849976261301" y2="-130.07911999670566" stroke="#808080" stroke-width="3" stroke-linecap="butt"></line><line transform="translate(892,298) " class="outer-connector" id="c986d221-448b-4ccd-8784-10e173b8fa4f" x1="0" y1="0" x2="-93.36315559750331" y2="-146.96052269977372" stroke="rgba(255, 255, 255, 0)" stroke-width="30"></line></g><g><line class="connector" id="61d60d37-d10a-4dfd-9702-1bdb289af544" transform="translate(681,464) scale(1,1) " x1="42.26891555622951" y1="-33.25421792575402" x2="168.73108444377047" y2="-132.74578207424597" stroke="#808080" stroke-width="3" stroke-linecap="butt"></line><line transform="translate(681,464) " class="outer-connector" id="61d60d37-d10a-4dfd-9702-1bdb289af544" x1="0" y1="0" x2="184.4496930421922" y2="-145.11208078200903" stroke="rgba(255, 255, 255, 0)" stroke-width="30"></line></g><g><line class="connector" id="7e58f8a5-aa3f-46f1-9e81-114c0803e957" transform="translate(681,464) scale(1,1) " x1="57.20111293520115" y1="-14.699727346476273" x2="121.79888706479883" y2="-31.300272653523724" stroke="#808080" stroke-width="3" stroke-linecap="butt"></line><line transform="translate(681,464) " class="outer-connector" id="7e58f8a5-aa3f-46f1-9e81-114c0803e957" x1="0" y1="0" x2="141.16949124311458" y2="-36.27819328035346" stroke="rgba(255, 255, 255, 0)" stroke-width="30"></line></g><g><line class="connector" id="bb536830-97ef-430c-8022-05ac7922413a" transform="translate(100,100) scale(1,1) " x1="55.789730219976605" y1="17.863706720682163" x2="147.21026978002342" y2="47.13629327931783" stroke="#808080" stroke-width="3" stroke-linecap="butt"></line><line transform="translate(100,100) " class="outer-connector" id="bb536830-97ef-430c-8022-05ac7922413a" x1="0" y1="0" x2="166.25766296230805" y2="53.23521227857153" stroke="rgba(255, 255, 255, 0)" stroke-width="30"></line></g><g><line class="connector" id="26c25255-b2e9-4f82-9df2-0db58c1184c3" transform="translate(129,271) scale(1,1) " x1="-6.825540324360283" y1="-40.24715156777962" x2="-22.174459675639703" y2="-130.7528484322204" stroke="#808080" stroke-width="3" stroke-linecap="butt"></line><line transform="translate(129,271) " class="outer-connector" id="26c25255-b2e9-4f82-9df2-0db58c1184c3" x1="0" y1="0" x2="-25.51852413423662" y2="-150.47129748118843" stroke="rgba(255, 255, 255, 0)" stroke-width="30"></line></g><g><line class="connector" id="3984a997-cf92-4a52-b3d0-d73b3710bd87" transform="translate(289,374) scale(1,1) " x1="-46.52586825286313" y1="-29.951027687780645" x2="-113.47413174713687" y2="-73.04897231221936" stroke="#808080" stroke-width="3" stroke-linecap="butt"></line><line transform="translate(289,374) " class="outer-connector" id="3984a997-cf92-4a52-b3d0-d73b3710bd87" x1="0" y1="0" x2="-130.2908679980749" y2="-83.87474627376072" stroke="rgba(255, 255, 255, 0)" stroke-width="30"></line></g><g transform="translate(471.6000061035156,379.3999938964844) scale(0.45)"><rect id="0ef3fbd9-c798-4671-9d6b-f37f829fea56" class="node" x="-100" y="-60" width="200" height="120" transform="translate(0,0)" fill="#F0EEC0" stroke="#F3F033" stroke-width="5"></rect><text id="0ef3fbd9-c798-4671-9d6b-f37f829fea56" class="noselect node" x="0" fill="black" alignment-baseline="center" text-anchor="middle" font-size="20px" y="0">Freiheit</text></g><g transform="translate(451,249) scale(0.45)"><rect id="3aa1ca3e-2a05-46b5-98a5-90b2837017fa" class="node" x="-100" y="-60" width="200" height="120" transform="translate(0,0)" fill="#F0EEC0" stroke="#F3F033" stroke-width="5"></rect><text id="3aa1ca3e-2a05-46b5-98a5-90b2837017fa" class="noselect node" x="0" fill="black" alignment-baseline="center" text-anchor="middle" font-size="20px" y="0">rkfs</text></g><g transform="translate(645,243) scale(0.45)"><rect id="d735dfc5-985a-412a-8c6b-735cddbefd0d" class="node" x="-100" y="-60" width="200" height="120" transform="translate(0,0)" fill="#F0EEC0" stroke="#F3F033" stroke-width="5"></rect><text id="d735dfc5-985a-412a-8c6b-735cddbefd0d" class="noselect node" x="0" fill="black" alignment-baseline="center" text-anchor="middle" font-size="20px" y="0">utoueqrtjer</text></g><g transform="translate(590,171) scale(0.45)"><rect id="bf6ca277-1987-4c3a-8bc6-e70fe6125f8c" class="node" x="-100" y="-60" width="200" height="120" transform="translate(0,0)" fill="#F0EEC0" stroke="#F3F033" stroke-width="5"></rect><text id="bf6ca277-1987-4c3a-8bc6-e70fe6125f8c" class="noselect node" x="0" fill="black" alignment-baseline="center" text-anchor="middle" font-size="20px" y="0">sdofj</text></g><g transform="translate(303,165) scale(0.45)"><rect id="eb9880f9-05c7-4296-b75e-776298d1223f" class="node" x="-100" y="-60" width="200" height="120" transform="translate(0,0)" fill="#F0EEC0" stroke="#F3F033" stroke-width="5"></rect><text id="eb9880f9-05c7-4296-b75e-776298d1223f" class="noselect node" x="0" fill="black" alignment-baseline="center" text-anchor="middle" font-size="20px" y="0">öajr</text></g><g transform="translate(289,374) scale(0.45)"><rect id="c9c5d9a8-5e8a-4d57-9c1a-5c9415710728" class="node" x="-100" y="-60" width="200" height="120" transform="translate(0,0)" fill="#F0EEC0" stroke="#F3F033" stroke-width="5"></rect><text id="c9c5d9a8-5e8a-4d57-9c1a-5c9415710728" class="noselect node" x="0" fill="black" alignment-baseline="center" text-anchor="middle" font-size="20px" y="0">slkd</text></g><g transform="translate(663,325) scale(0.45)"><rect id="3249d7f4-9e79-4ea6-81d4-e1ba9df774cc" class="node" x="-100" y="-60" width="200" height="120" transform="translate(0,0)" fill="#F0EEC0" stroke="#F3F033" stroke-width="5"></rect><text id="3249d7f4-9e79-4ea6-81d4-e1ba9df774cc" class="noselect node" x="0" fill="black" alignment-baseline="center" text-anchor="middle" font-size="20px" y="0">weh</text></g><g transform="translate(681,464) scale(0.45)"><rect id="2fa1e33f-b293-4657-bbcc-a0e7dfe33429" class="node" x="-100" y="-60" width="200" height="120" transform="translate(0,0)" fill="#F0EEC0" stroke="#F3F033" stroke-width="5"></rect><text id="2fa1e33f-b293-4657-bbcc-a0e7dfe33429" class="noselect node" x="0" fill="black" alignment-baseline="center" text-anchor="middle" font-size="20px" y="0">lifdk</text></g><g transform="translate(504,513) scale(0.45)"><rect id="b5cf51e8-24c4-49d5-9a13-32a648a422f4" class="node" x="-100" y="-60" width="200" height="120" transform="translate(0,0)" fill="#F0EEC0" stroke="#F3F033" stroke-width="5"></rect><text id="b5cf51e8-24c4-49d5-9a13-32a648a422f4" class="noselect node" x="0" fill="black" alignment-baseline="center" text-anchor="middle" font-size="20px" y="0">lksjdf</text></g><g transform="translate(308,472) scale(0.45)"><rect id="438535a9-a4f2-4738-92e7-7f95f118ecf7" class="node" x="-100" y="-60" width="200" height="120" transform="translate(0,0)" fill="#F0EEC0" stroke="#F3F033" stroke-width="5"></rect><text id="438535a9-a4f2-4738-92e7-7f95f118ecf7" class="noselect node" x="0" fill="black" alignment-baseline="center" text-anchor="middle" font-size="20px" y="0">lksjf</text></g><g transform="translate(892,298) scale(0.45)"><rect id="991cecb7-ae4a-43d2-ab0c-a004cc5edc04" class="node" x="-100" y="-60" width="200" height="120" transform="translate(0,0)" fill="#F0EEC0" stroke="#F3F033" stroke-width="5"></rect><text id="991cecb7-ae4a-43d2-ab0c-a004cc5edc04" class="noselect node" x="0" fill="black" alignment-baseline="center" text-anchor="middle" font-size="20px" y="0">dsmf,</text></g><g transform="translate(860,418) scale(0.45)"><rect id="87478e7e-04eb-4dc7-86e6-912ee1731f45" class="node" x="-100" y="-60" width="200" height="120" transform="translate(0,0)" fill="#F0EEC0" stroke="#F3F033" stroke-width="5"></rect><text id="87478e7e-04eb-4dc7-86e6-912ee1731f45" class="noselect node" x="0" fill="black" alignment-baseline="center" text-anchor="middle" font-size="20px" y="0">aslnfmsdmf</text></g><g transform="translate(784,128) scale(0.45)"><rect id="d9c82b7b-266d-43d0-8c53-deaa513c1e4f" class="node" x="-100" y="-60" width="200" height="120" transform="translate(0,0)" fill="#F0EEC0" stroke="#F3F033" stroke-width="5"></rect><text id="d9c82b7b-266d-43d0-8c53-deaa513c1e4f" class="noselect node" x="0" fill="black" alignment-baseline="center" text-anchor="middle" font-size="20px" y="0">mdsnf.ds</text></g><g transform="translate(129,271) scale(0.45)"><rect id="dfc40d23-f1a7-4135-b706-938f6e1c55a9" class="node" x="-100" y="-60" width="200" height="120" transform="translate(0,0)" fill="#F0EEC0" stroke="#F3F033" stroke-width="5"></rect><text id="dfc40d23-f1a7-4135-b706-938f6e1c55a9" class="noselect node" x="0" fill="black" alignment-baseline="center" text-anchor="middle" font-size="20px" y="0">lsdfm.,</text></g><g transform="translate(100,100) scale(0.45)"><rect id="7e9c4261-65a0-4445-9bfa-c33889aaf4fa" class="node" x="-100" y="-60" width="200" height="120" transform="translate(0,0)" fill="#F0EEC0" stroke="#F3F033" stroke-width="5"></rect><text id="7e9c4261-65a0-4445-9bfa-c33889aaf4fa" class="noselect node" x="0" fill="black" alignment-baseline="center" text-anchor="middle" font-size="20px" y="0">.mds,f</text></g></svg>