<?xml version="1.0" standalone="no"?>
<svg id="CAMSVG" xmlns="http://www.w3.org/2000/svg" height="1400px" width="2400px"><rect id="background" x="0" y="0" width="100%" height="100%" fill="white"></rect><marker id="arrowRight" markerWidth="30" markerHeight="15" refX="30" refY="7.5" orient="auto" markerUnits="userSpaceOnUse"><polygon points="30 0, 30 15, 0 7.5" fill="#8c8c8c"></polygon></marker><marker id="arrowLeft" markerWidth="30" markerHeight="15" refX="0" refY="7.5" orient="auto" markerUnits="userSpaceOnUse"><polygon points="0 0, 30 7.5, 0 15" fill="#8c8c8c"></polygon></marker><g><line class="connector" id="ca0f849c-ae86-49db-803a-51495333ffc9" transform="translate(265,290.66666412353516) scale(1,1) " x1="10.192841877137928" y1="40.45284119989113" x2="21.807158122862084" y2="86.54715880010885" stroke="#808080" stroke-width="9" stroke-linecap="butt"></line><line transform="translate(265,290.66666412353516) " class="outer-connector" id="ca0f849c-ae86-49db-803a-51495333ffc9" x1="0" y1="0" x2="26.693793448300685" y2="105.9409927479433" stroke="rgba(255, 255, 255, 0)" stroke-width="30"></line></g><g><line class="connector" id="efb8fcae-54f6-415e-9ab4-94fb33ea8241" transform="translate(468,446.66666412353516) scale(1,1) " x1="57.99931147470172" y1="-12.492159394551141" x2="202.00068852529827" y2="-43.50784060544886" stroke="#808080" stroke-width="9" stroke-linecap="butt"></line><line transform="translate(468,446.66666412353516) " class="outer-connector" id="efb8fcae-54f6-415e-9ab4-94fb33ea8241" x1="0" y1="0" x2="221.55232414877085" y2="-47.718962124350654" stroke="rgba(255, 255, 255, 0)" stroke-width="30"></line></g><g><line class="connector" id="f94f3137-cc59-43d9-a8d9-fae4d20739ae" transform="translate(540,542.6666641235352) scale(1,1) " x1="57.94693115413289" y1="12.650386378719153" x2="84.0530688458671" y2="18.349613621280845" stroke="#808080" stroke-width="3" stroke-linecap="butt"></line><line transform="translate(540,542.6666641235352) " class="outer-connector" id="f94f3137-cc59-43d9-a8d9-fae4d20739ae" x1="0" y1="0" x2="103.5928628646345" y2="22.61534330143429" stroke="rgba(255, 255, 255, 0)" stroke-width="30"></line></g><g><line class="connector" id="8041e52a-2afc-47b5-a4d8-be926e103b06" transform="translate(728,390.66666412353516) scale(1,1) " x1="-10.168117178578656" y1="40.451422688693356" x2="-35.83188282142134" y2="142.54857731130664" stroke="#808080" stroke-width="3" stroke-linecap="butt"></line><line transform="translate(728,390.66666412353516) " class="outer-connector" id="8041e52a-2afc-47b5-a4d8-be926e103b06" x1="0" y1="0" x2="-40.707530690469866" y2="161.94517644252144" stroke="rgba(255, 255, 255, 0)" stroke-width="30"></line></g><g><line class="connector" id="17acbc32-e6e1-4503-bcad-2d4b9988d9c7" transform="translate(396,547.6666641235352) scale(1,1) " x1="59.94580777784105" y1="-2.0814516589528145" x2="84.05419222215896" y2="-2.9185483410471864" stroke="#808080" stroke-width="3" stroke-linecap="butt"></line><line transform="translate(396,547.6666641235352) " class="outer-connector" id="17acbc32-e6e1-4503-bcad-2d4b9988d9c7" x1="0" y1="0" x2="104.04214678568405" y2="-3.6125745411695855" stroke="rgba(255, 255, 255, 0)" stroke-width="30"></line></g><g><line class="connector" id="46f15367-7c25-4f19-b281-59584157d78c" transform="translate(468,446.66666412353516) scale(1,1) " x1="-28.072320748459383" y1="39.37922771658885" x2="-43.927679251540624" y2="61.62077228341114" stroke="#808080" stroke-width="3" stroke-linecap="butt"></line><line transform="translate(468,446.66666412353516) " class="outer-connector" id="46f15367-7c25-4f19-b281-59584157d78c" x1="0" y1="0" x2="-55.53718529117202" y2="77.90632936678297" stroke="rgba(255, 255, 255, 0)" stroke-width="30"></line></g><g><line class="connector" id="551cb3c3-3316-4b30-9575-34527ce6531f" transform="translate(297,417.66666412353516) scale(1,1) " x1="29.681627163769534" y1="38.975874053434744" x2="69.31837283623048" y2="91.02412594656528" stroke="#808080" stroke-width="3" stroke-linecap="butt"></line><line transform="translate(297,417.66666412353516) " class="outer-connector" id="551cb3c3-3316-4b30-9575-34527ce6531f" x1="0" y1="0" x2="81.43554913991083" y2="106.9355695776607" stroke="rgba(255, 255, 255, 0)" stroke-width="30"></line></g><g><line class="connector" id="88ac9764-1c11-4f61-b640-2d76b9599b7b" transform="translate(297,417.66666412353516) scale(1,1) " x1="-59.971537001556385" y1="-1.5087179119888399" x2="-99.02846299844362" y2="-2.49128208801116" stroke="#808080" stroke-width="3" stroke-linecap="butt"></line><line transform="translate(297,417.66666412353516) " class="outer-connector" id="88ac9764-1c11-4f61-b640-2d76b9599b7b" x1="0" y1="0" x2="-119.02213713737524" y2="-2.994267600940258" stroke="rgba(255, 255, 255, 0)" stroke-width="30"></line></g><g><line class="connector" id="8e374d18-d096-4e20-9684-0182f6eb617c" transform="translate(436,348.66666412353516) scale(1,1) " x1="13.256405922955228" y1="40.59774313905038" x2="18.743594077044776" y2="57.40225686094961" stroke="#808080" stroke-width="3" stroke-linecap="butt"></line><line transform="translate(436,348.66666412353516) " class="outer-connector" id="8e374d18-d096-4e20-9684-0182f6eb617c" x1="0" y1="0" x2="24.951629711271586" y2="76.41436599076921" stroke="rgba(255, 255, 255, 0)" stroke-width="30"></line></g><g><line class="connector" id="ba92bb67-9a64-46e2-8c0c-6fa479b9932f" transform="translate(831,476.66666412353516) scale(1,1) " x1="-46.305631474591245" y1="30.145276866009063" x2="-102.69436852540876" y2="66.85472313399093" stroke="#808080" stroke-width="3" stroke-linecap="butt"></line><line transform="translate(831,476.66666412353516) " class="outer-connector" id="ba92bb67-9a64-46e2-8c0c-6fa479b9932f" x1="0" y1="0" x2="-119.45552637705138" y2="77.76634938640257" stroke="rgba(255, 255, 255, 0)" stroke-width="30"></line></g><g><line class="connector" id="ee3a0f2e-d3bd-430e-948d-26a928c720cf" transform="translate(636,256.66666412353516) scale(1,1) " x1="-33.410999510421156" y1="37.78624944630963" x2="-134.58900048957886" y2="152.21375055369035" stroke="#808080" stroke-width="3" stroke-linecap="butt"></line><line transform="translate(636,256.66666412353516) " class="outer-connector" id="ee3a0f2e-d3bd-430e-948d-26a928c720cf" x1="0" y1="0" x2="-147.83707480878056" y2="167.1966917480256" stroke="rgba(255, 255, 255, 0)" stroke-width="30"></line></g><g><line class="connector" id="45e3df8e-af0e-4d9e-82c9-92288c8c149e" transform="translate(540,542.6666641235352) scale(1,1) " x1="41.642640164996045" y1="-33.668517580209574" x2="146.35735983500396" y2="-118.33148241979046" stroke="#808080" stroke-width="9" stroke-linecap="butt"></line><line transform="translate(540,542.6666641235352) " class="outer-connector" id="45e3df8e-af0e-4d9e-82c9-92288c8c149e" x1="0" y1="0" x2="161.9099603738333" y2="-130.9059254086312" stroke="rgba(255, 255, 255, 0)" stroke-width="30"></line></g><g><line class="connector" id="11f38870-072f-4056-b5d5-80fe3aa7bafb" transform="translate(828,631.6666641235352) scale(1,1) " x1="0.7742659110461346" y1="-40.00373873738378" x2="2.2257340889538533" y2="-114.9962612626162" stroke="#808080" stroke-width="3" stroke-linecap="butt"></line><line transform="translate(828,631.6666641235352) " class="outer-connector" id="11f38870-072f-4056-b5d5-80fe3aa7bafb" x1="0" y1="0" x2="2.6127583783928925" y2="-134.99251621696664" stroke="rgba(255, 255, 255, 0)" stroke-width="30"></line></g><g><line class="connector" id="3bf7442c-619d-4ff0-877e-90ba3e24113b" transform="translate(828,631.6666641235352) scale(1,1) " x1="-53.80978444617669" y1="-21.37648971149485" x2="-92.19021555382332" y2="-36.62351028850516" stroke="#808080" stroke-width="3" stroke-linecap="butt"></line><line transform="translate(828,631.6666641235352) " class="outer-connector" id="3bf7442c-619d-4ff0-877e-90ba3e24113b" x1="0" y1="0" x2="-110.77725727474196" y2="-44.007403574897495" stroke="rgba(255, 255, 255, 0)" stroke-width="30"></line></g><g><line class="connector" id="aca0b646-b23c-49d0-b5c5-283c7909470e" transform="translate(242,589.6666641235352) scale(1,1) " x1="12.978651386544016" y1="-40.587782517919486" x2="42.02134861345597" y2="-131.41221748208054" stroke="#808080" stroke-width="3" stroke-linecap="butt"></line><line transform="translate(242,589.6666641235352) " class="outer-connector" id="aca0b646-b23c-49d0-b5c5-283c7909470e" x1="0" y1="0" x2="48.1128443526821" y2="-150.46198597566044" stroke="rgba(255, 255, 255, 0)" stroke-width="30"></line></g><g><line class="connector" id="01998e11-061a-4e64-aaf6-36a03bb47a9f" transform="translate(168,519.6666641235352) scale(1,1) " x1="42.15428214398829" y1="-33.331292858037244" x2="86.84571785601173" y2="-68.66870714196276" stroke="#808080" stroke-width="3" stroke-linecap="butt"></line><line transform="translate(168,519.6666641235352) " class="outer-connector" id="01998e11-061a-4e64-aaf6-36a03bb47a9f" x1="0" y1="0" x2="102.53402968742942" y2="-81.0734188226186" stroke="rgba(255, 255, 255, 0)" stroke-width="30"></line></g><g><line class="connector" id="1c9455ad-ea73-43fe-bb78-773d37524ccc" transform="translate(265,290.66666412353516) scale(1,1) " x1="55.3254162782703" y1="18.76534587216186" x2="115.67458372172969" y2="39.23465412783815" stroke="#808080" stroke-width="3" stroke-linecap="butt"></line><line transform="translate(265,290.66666412353516) " class="outer-connector" id="1c9455ad-ea73-43fe-bb78-773d37524ccc" x1="0" y1="0" x2="134.61475943621795" y2="45.6588072941558" stroke="rgba(255, 255, 255, 0)" stroke-width="30"></line></g><g><line class="connector" id="1ca9dedb-91bf-4752-95ec-c4305e617cbc" transform="translate(636,256.66666412353516) scale(1,1) " x1="-59.62501205668398" y1="5.464286819210931" x2="-311.37498794331606" y2="28.535713180789074" stroke="#808080" stroke-width="3" stroke-linecap="butt"></line><line transform="translate(636,256.66666412353516) " class="outer-connector" id="1ca9dedb-91bf-4752-95ec-c4305e617cbc" x1="0" y1="0" x2="-331.2915266960741" y2="30.36094853818469" stroke="rgba(255, 255, 255, 0)" stroke-width="30"></line></g><g><line class="connector" id="7a6f611e-e75a-4636-bd50-8a3e8fc2f8c0" transform="translate(540,542.6666641235352) scale(1,1) " x1="2.237743240338541" y1="40.030740188278386" x2="6.762256759661449" y2="120.96925981172161" stroke="#808080" stroke-width="3" stroke-linecap="butt"></line><line transform="translate(540,542.6666641235352) " class="outer-connector" id="7a6f611e-e75a-4636-bd50-8a3e8fc2f8c0" x1="0" y1="0" x2="7.878526438340756" y2="140.93808406365144" stroke="rgba(255, 255, 255, 0)" stroke-width="30"></line></g><g><line class="connector" id="b4c577fb-29f5-4dc2-bef6-df8fa48995b7" transform="translate(389,649.6666641235352) scale(1,1) " x1="44.56925909651096" y1="-31.582190220706433" x2="106.43074090348905" y2="-75.41780977929355" stroke="#808080" stroke-width="3" stroke-linecap="butt"></line><line transform="translate(389,649.6666641235352) " class="outer-connector" id="b4c577fb-29f5-4dc2-bef6-df8fa48995b7" x1="0" y1="0" x2="122.74910635762969" y2="-86.98115483620114" stroke="rgba(255, 255, 255, 0)" stroke-width="30"></line></g><g><line class="connector" id="e2214176-eb47-457e-9072-7bc454af289f" transform="translate(822,289.66666412353516) scale(1,1) " x1="-58.624070469123296" y1="-10.40104476065091" x2="-127.3759295308767" y2="-22.598955239349095" stroke="#808080" stroke-width="3" stroke-linecap="butt"></line><line transform="translate(822,289.66666412353516) " class="outer-connector" id="e2214176-eb47-457e-9072-7bc454af289f" x1="0" y1="0" x2="-147.0683948518095" y2="-26.09277973177266" stroke="rgba(255, 255, 255, 0)" stroke-width="30"></line></g><g><line class="connector" id="563803c1-f6f1-4ee3-9ec4-6978a4d0d882" transform="translate(702,711.6666641235352) scale(1,1) " x1="-35.44353822159081" y1="-36.975049132400294" x2="-126.55646177840917" y2="-132.0249508675997" stroke="#808080" stroke-width="3" stroke-linecap="butt"></line><line transform="translate(702,711.6666641235352) " class="outer-connector" id="563803c1-f6f1-4ee3-9ec4-6978a4d0d882" x1="0" y1="0" x2="-140.39642446266313" y2="-146.46293663080291" stroke="rgba(255, 255, 255, 0)" stroke-width="30"></line></g><g><line class="connector" id="a50a5159-8a15-494f-9502-2221f0b60046" transform="translate(702,711.6666641235352) scale(1,1) " x1="-5.824355987527699" y1="-40.18805631394112" x2="-14.175644012472302" y2="-97.81194368605887" stroke="#808080" stroke-width="3" stroke-linecap="butt"></line><line transform="translate(702,711.6666641235352) " class="outer-connector" id="a50a5159-8a15-494f-9502-2221f0b60046" x1="0" y1="0" x2="-17.044225458850146" y2="-117.60515566606598" stroke="rgba(255, 255, 255, 0)" stroke-width="30"></line></g><g><line class="connector" id="2b6538d9-4cfb-4139-92d6-cb8e7968082e" transform="translate(828,631.6666641235352) scale(1,1) " x1="-46.79411389629748" y1="29.710548505585695" x2="-79.20588610370251" y2="50.28945149441429" stroke="#808080" stroke-width="3" stroke-linecap="butt"></line><line transform="translate(828,631.6666641235352) " class="outer-connector" id="2b6538d9-4cfb-4139-92d6-cb8e7968082e" x1="0" y1="0" x2="-96.0901424086586" y2="61.00961422771973" stroke="rgba(255, 255, 255, 0)" stroke-width="30"></line></g><g><line class="connector" id="32ccf303-bb24-43e6-8992-c5790348c7a8" transform="translate(297,417.66666412353516) scale(1,1) " x1="-44.811860508106285" y1="-31.39104949298816" x2="-152.1881394918937" y2="-106.60895050701184" stroke="#808080" stroke-width="3" stroke-linecap="butt"></line><line transform="translate(297,417.66666412353516) " class="outer-connector" id="32ccf303-bb24-43e6-8992-c5790348c7a8" x1="0" y1="0" x2="-168.5688705328872" y2="-118.08377732760626" stroke="rgba(255, 255, 255, 0)" stroke-width="30"></line></g><g><line class="connector" id="bd223953-41d8-4630-966b-7039b8a5ee63" transform="translate(728,390.66666412353516) scale(1,1) " x1="59.77150093381401" y1="-4.269392923843857" x2="94.22849906618598" y2="-6.730607076156141" stroke="#808080" stroke-width="3" stroke-linecap="butt"></line><line transform="translate(728,390.66666412353516) " class="outer-connector" id="bd223953-41d8-4630-966b-7039b8a5ee63" x1="0" y1="0" x2="114.17767306280068" y2="-8.155548075914334" stroke="rgba(255, 255, 255, 0)" stroke-width="30"></line></g><g transform="translate(396,547.6666641235352) scale(0.45)"><g><polygon id="1d7e9052-477f-4675-adde-11af556599ee" class="node" points="-100,0 -60,-60 60,-60 100,0 60,60 -60,60" transform="translate(0,0)" fill="rgb(247, 151, 226)" stroke="rgb(142, 19, 146)" stroke-width="5"></polygon><ellipse id="1d7e9052-477f-4675-adde-11af556599ee" class="node" null="cy" rx="90" ry="55" transform="translate(0,0)" fill="rgb(247, 151, 226)" stroke="rgb(142, 19, 146)" stroke-width="3"></ellipse></g><text id="1d7e9052-477f-4675-adde-11af556599ee" class="noselect node" x="0" fill="black" alignment-baseline="center" text-anchor="middle" font-size="20px" y="0">Freiheit</text></g><g transform="translate(297,417.66666412353516) scale(0.45)"><rect id="0c5240cd-6903-4260-9cb7-06ecf785d98e" class="node" x="-100" y="-60" width="200" height="120" transform="translate(0,0)" fill="#F0EEC0" stroke="#F3F033" stroke-width="5"></rect><text id="0c5240cd-6903-4260-9cb7-06ecf785d98e" class="noselect node" x="0" fill="black" alignment-baseline="center" text-anchor="middle" font-size="20px" y="0">Politische Freiheit</text></g><g transform="translate(468,446.66666412353516) scale(0.45)"><rect id="688ed642-3533-4c88-bbc8-3bae1a30067a" class="node" x="-100" y="-60" width="200" height="120" transform="translate(0,0)" fill="#F0EEC0" stroke="#F3F033" stroke-width="5"></rect><text id="688ed642-3533-4c88-bbc8-3bae1a30067a" class="noselect node" x="0" fill="black" alignment-baseline="center" text-anchor="middle" font-size="20px" y="-20"> <tspan dy="1.1em" x="0">Gesellschaftliche</tspan>  <tspan dy="1.1em" x="0">Freiheit</tspan></text></g><g transform="translate(540,542.6666641235352) scale(0.45)"><rect id="ccc5d589-4f00-4fde-85dc-62cd5e2b5ce6" class="node" x="-100" y="-60" width="200" height="120" transform="translate(0,0)" fill="#F0EEC0" stroke="#F3F033" stroke-width="5"></rect><text id="ccc5d589-4f00-4fde-85dc-62cd5e2b5ce6" class="noselect node" x="0" fill="black" alignment-baseline="center" text-anchor="middle" font-size="20px" y="0">Private Freiheit</text></g><g transform="translate(265,290.66666412353516) scale(0.45)"><ellipse id="5a43e728-914f-4952-9bac-a8288ffeb3a7" class="node" null="cy" rx="100" ry="70" transform="translate(0,0)" fill="#B9F1B9" stroke="#22AA22" stroke-width="9" opacity="1"></ellipse><text id="5a43e728-914f-4952-9bac-a8288ffeb3a7" class="noselect node" x="0" fill="black" alignment-baseline="center" text-anchor="middle" font-size="20px" y="0">keine Verfolgung</text></g><g transform="translate(728,390.66666412353516) scale(0.45)"><ellipse id="eaa408b6-4556-48de-bd9e-d927eeb847d5" class="node" null="cy" rx="100" ry="70" transform="translate(0,0)" fill="#B9F1B9" stroke="#22AA22" stroke-width="9" opacity="1"></ellipse><text id="eaa408b6-4556-48de-bd9e-d927eeb847d5" class="noselect node" x="0" fill="black" alignment-baseline="center" text-anchor="middle" font-size="20px" y="-20">freie  <tspan dy="1.1em" x="0">Wahl</tspan> des  <tspan dy="1.1em" x="0">Lebensmodells</tspan></text></g><g transform="translate(138,413.66666412353516) scale(0.45)"><ellipse id="00509e6d-8d2c-469f-97dd-281afe203455" class="node" null="cy" rx="100" ry="70" transform="translate(0,0)" fill="#B9F1B9" stroke="#22AA22" stroke-width="9" opacity="1"></ellipse><text id="00509e6d-8d2c-469f-97dd-281afe203455" class="noselect node" x="0" fill="black" alignment-baseline="center" text-anchor="middle" font-size="20px" y="0">politische Rechte</text></g><g transform="translate(436,348.66666412353516) scale(0.45)"><ellipse id="b2c708cc-c413-4c88-bfcd-faba7a9dc19a" class="node" null="cy" rx="100" ry="70" transform="translate(0,0)" fill="#B9F1B9" stroke="#22AA22" stroke-width="6" opacity="1"></ellipse><text id="b2c708cc-c413-4c88-bfcd-faba7a9dc19a" class="noselect node" x="0" fill="black" alignment-baseline="center" text-anchor="middle" font-size="20px" y="0">Religionsfreiheit</text></g><g transform="translate(831,476.66666412353516) scale(0.45)"><g><polygon id="e347b9fe-c19f-4b6b-bf95-7d660539fa53" class="node" points="-100,0 -60,-60 60,-60 100,0 60,60 -60,60" transform="translate(0,0)" fill="rgb(247, 151, 226)" stroke="rgb(142, 19, 146)" stroke-width="5"></polygon><ellipse id="e347b9fe-c19f-4b6b-bf95-7d660539fa53" class="node" null="cy" rx="90" ry="55" transform="translate(0,0)" fill="rgb(247, 151, 226)" stroke="rgb(142, 19, 146)" stroke-width="3"></ellipse></g><text id="e347b9fe-c19f-4b6b-bf95-7d660539fa53" class="noselect node" x="0" fill="black" alignment-baseline="center" text-anchor="middle" font-size="20px" y="-20"> <tspan dy="1.1em" x="0">Pluralität</tspan> der  <tspan dy="1.1em" x="0">Möglichkeiten</tspan></text></g><g transform="translate(682,573.6666641235352) scale(0.45)"><rect id="fcc17b11-bb95-4dbc-b400-f846d5ebf22d" class="node" x="-100" y="-60" width="200" height="120" transform="translate(0,0)" fill="#F0EEC0" stroke="#F3F033" stroke-width="5"></rect><text id="fcc17b11-bb95-4dbc-b400-f846d5ebf22d" class="noselect node" x="0" fill="black" alignment-baseline="center" text-anchor="middle" font-size="20px" y="0">Wahl des Berufs</text></g><g transform="translate(636,256.66666412353516) scale(0.45)"><ellipse id="da25d380-ba83-449f-b0d0-9b2f6e98f7e5" class="node" null="cy" rx="100" ry="70" transform="translate(0,0)" fill="#B9F1B9" stroke="#22AA22" stroke-width="9" opacity="1"></ellipse><text id="da25d380-ba83-449f-b0d0-9b2f6e98f7e5" class="noselect node" x="0" fill="black" alignment-baseline="center" text-anchor="middle" font-size="20px" y="0">Meinungsfreiheit</text></g><g transform="translate(682,573.6666641235352) scale(0.45)"><g><polygon id="352d263e-0ec7-46ba-983e-f38b35815b01" class="node" points="-100,0 -60,-60 60,-60 100,0 60,60 -60,60" transform="translate(0,0)" fill="rgb(247, 151, 226)" stroke="rgb(142, 19, 146)" stroke-width="5"></polygon><ellipse id="352d263e-0ec7-46ba-983e-f38b35815b01" class="node" null="cy" rx="90" ry="55" transform="translate(0,0)" fill="rgb(247, 151, 226)" stroke="rgb(142, 19, 146)" stroke-width="3"></ellipse></g><text id="352d263e-0ec7-46ba-983e-f38b35815b01" class="noselect node" x="0" fill="black" alignment-baseline="center" text-anchor="middle" font-size="20px" y="0">Wahl des Berufs</text></g><g transform="translate(242,589.6666641235352) scale(0.45)"><ellipse id="f150897a-0a51-4bf2-a9f0-03d6b057e2de" class="node" null="cy" rx="100" ry="70" transform="translate(0,0)" fill="#B9F1B9" stroke="#22AA22" stroke-width="6" opacity="1"></ellipse><text id="f150897a-0a51-4bf2-a9f0-03d6b057e2de" class="noselect node" x="0" fill="black" alignment-baseline="center" text-anchor="middle" font-size="20px" y="-20"> <tspan dy="1.1em" x="0">politische</tspan>  <tspan dy="1.1em" x="0">Mitbestimmung</tspan></text></g><g transform="translate(828,631.6666641235352) scale(0.45)"><polygon id="6eb068ea-9905-4028-97f4-be6486dc0508" class="node" points="-100,0 -60,-60 60,-60 100,0 60,60 -60,60" transform="translate(0,0)" fill="#EB8989" stroke="#E04848" stroke-width="3"></polygon><text id="6eb068ea-9905-4028-97f4-be6486dc0508" class="noselect node" x="0" fill="black" alignment-baseline="center" text-anchor="middle" font-size="20px" y="0">Unsicherheit</text></g><g transform="translate(549,703.6666641235352) scale(0.45)"><ellipse id="3cbaa472-2ec7-436b-92b4-fddb33bddddb" class="node" null="cy" rx="100" ry="70" transform="translate(0,0)" fill="#B9F1B9" stroke="#22AA22" stroke-width="3" opacity="1"></ellipse><text id="3cbaa472-2ec7-436b-92b4-fddb33bddddb" class="noselect node" x="0" fill="black" alignment-baseline="center" text-anchor="middle" font-size="20px" y="0">Reisen</text></g><g transform="translate(168,519.6666641235352) scale(0.45)"><ellipse id="0765489f-f765-4502-b16b-cc0a63412f21" class="node" null="cy" rx="100" ry="70" transform="translate(0,0)" fill="#B9F1B9" stroke="#22AA22" stroke-width="9" opacity="1"></ellipse><text id="0765489f-f765-4502-b16b-cc0a63412f21" class="noselect node" x="0" fill="black" alignment-baseline="center" text-anchor="middle" font-size="20px" y="0">Freie Wahlen</text></g><g transform="translate(100,279.66666412353516) scale(0.45)"><ellipse id="de1e834a-7eaf-4147-bf23-0a90c769e761" class="node" null="cy" rx="100" ry="70" transform="translate(0,0)" fill="#B9F1B9" stroke="#22AA22" stroke-width="6" opacity="1"></ellipse><text id="de1e834a-7eaf-4147-bf23-0a90c769e761" class="noselect node" x="0" fill="black" alignment-baseline="center" text-anchor="middle" font-size="20px" y="0">Chancengleichheit</text></g><g transform="translate(389,649.6666641235352) scale(0.45)"><ellipse id="cde1373b-51ef-49c0-b303-260a3281f046" class="node" null="cy" rx="100" ry="70" transform="translate(0,0)" fill="#B9F1B9" stroke="#22AA22" stroke-width="3" opacity="1"></ellipse><text id="cde1373b-51ef-49c0-b303-260a3281f046" class="noselect node" x="0" fill="black" alignment-baseline="center" text-anchor="middle" font-size="20px" y="-20">keine  <tspan dy="1.1em" x="0">Verpflichtungen</tspan></text></g><g transform="translate(702,711.6666641235352) scale(0.45)"><g><polygon id="32bdf5ff-6a5b-4cf5-a10e-304f32596e91" class="node" points="-100,0 -60,-60 60,-60 100,0 60,60 -60,60" transform="translate(0,0)" fill="rgb(247, 151, 226)" stroke="rgb(142, 19, 146)" stroke-width="5"></polygon><ellipse id="32bdf5ff-6a5b-4cf5-a10e-304f32596e91" class="node" null="cy" rx="90" ry="55" transform="translate(0,0)" fill="rgb(247, 151, 226)" stroke="rgb(142, 19, 146)" stroke-width="3"></ellipse></g><text id="32bdf5ff-6a5b-4cf5-a10e-304f32596e91" class="noselect node" x="0" fill="black" alignment-baseline="center" text-anchor="middle" font-size="20px" y="0">Selbstverantwortung</text></g><g transform="translate(822,289.66666412353516) scale(0.45)"><polygon id="57982f85-e4a9-47e2-92af-6c7b1df64404" class="node" points="-100,0 -60,-60 60,-60 100,0 60,60 -60,60" transform="translate(0,0)" fill="#EB8989" stroke="#E04848" stroke-width="3"></polygon><text id="57982f85-e4a9-47e2-92af-6c7b1df64404" class="noselect node" x="0" fill="black" alignment-baseline="center" text-anchor="middle" font-size="20px" y="-20">Fremde  <tspan dy="1.1em" x="0">Meinungen</tspan>  <tspan dy="1.1em" x="0">tolerieren</tspan>  <tspan dy="1.1em" x="0">müssen</tspan></text></g><g transform="translate(882,379.66666412353516) scale(0.45)"><ellipse id="caec3c9a-c67c-4cf1-a29c-20128d075f24" class="node" null="cy" rx="100" ry="70" transform="translate(0,0)" fill="#B9F1B9" stroke="#22AA22" stroke-width="6" opacity="1"></ellipse><text id="caec3c9a-c67c-4cf1-a29c-20128d075f24" class="noselect node" x="0" fill="black" alignment-baseline="center" text-anchor="middle" font-size="20px" y="-20">sexuelle  <tspan dy="1.1em" x="0">Selbstbestimmung</tspan></text></g></svg>