<?xml version="1.0" standalone="no"?>
<svg id="CAMSVG" xmlns="http://www.w3.org/2000/svg" height="1400px" width="2400px"><rect id="background" x="0" y="0" width="100%" height="100%" fill="white"></rect><marker id="arrowRight" markerWidth="30" markerHeight="15" refX="30" refY="7.5" orient="auto" markerUnits="userSpaceOnUse"><polygon points="30 0, 30 15, 0 7.5" fill="#8c8c8c"></polygon></marker><marker id="arrowLeft" markerWidth="30" markerHeight="15" refX="0" refY="7.5" orient="auto" markerUnits="userSpaceOnUse"><polygon points="0 0, 30 7.5, 0 15" fill="#8c8c8c"></polygon></marker><g><line class="connector" id="e805344c-c138-4900-899b-57a7e63da8d8" transform="translate(1240,678) scale(1,1) " x1="-56.46209669910162" y1="-16.44765425582526" x2="-173.53790330089836" y2="-50.55234574417475" stroke="#808080" stroke-width="3" stroke-linecap="butt"></line><line transform="translate(1240,678) " class="outer-connector" id="e805344c-c138-4900-899b-57a7e63da8d8" x1="0" y1="0" x2="-192.7397723253801" y2="-56.145933677393344" stroke="rgba(255, 255, 255, 0)" stroke-width="30"></line></g><g><line class="connector" id="833af7da-43a6-4f90-b608-959561febc98" transform="translate(1244,558) scale(1,1) " x1="-57.79725445259782" y1="13.090831136699506" x2="-176.20274554740217" y2="39.90916886330049" stroke="#808080" stroke-width="3" stroke-dasharray="20,10"></line><line transform="translate(1244,558) " class="outer-connector" id="833af7da-43a6-4f90-b608-959561febc98" x1="0" y1="0" x2="-195.70867272789468" y2="44.32717801101889" stroke="rgba(255, 255, 255, 0)" stroke-width="30"></line></g><g><line class="connector" id="d29d766c-8221-49f9-a925-6970fd28c9a0" transform="translate(1030,394) scale(1,1) " x1="-56.28798032229646" y1="-16.82836525099585" x2="-137.71201967770355" y2="-41.171634749004156" stroke="#808080" stroke-width="3" stroke-linecap="butt"></line><line transform="translate(1030,394) " class="outer-connector" id="d29d766c-8221-49f9-a925-6970fd28c9a0" x1="0" y1="0" x2="-156.87397385270557" y2="-46.90046640957178" stroke="rgba(255, 255, 255, 0)" stroke-width="30"></line></g><g><line class="connector" id="c575704a-deba-4db5-b78d-93a7f139b496" transform="translate(1010,611) scale(1,1) " x1="3.6941232757544706" y1="-40.08123754193597" x2="16.305876724245547" y2="-176.918762458064" stroke="#808080" stroke-width="3" stroke-linecap="butt"></line><line transform="translate(1010,611) " class="outer-connector" id="c575704a-deba-4db5-b78d-93a7f139b496" x1="0" y1="0" x2="18.141415143543682" y2="-196.83435430744876" stroke="rgba(255, 255, 255, 0)" stroke-width="30"></line></g><g><line class="connector" id="cd86865a-3ae6-48ed-a4d0-c522ae25c53b" transform="translate(787,757) scale(1,1) " x1="-53.253666578646616" y1="-22.23211323186218" x2="-152.7463334213534" y2="-63.76788676813782" stroke="#808080" stroke-width="3" stroke-linecap="butt"></line><line transform="translate(787,757) " class="outer-connector" id="cd86865a-3ae6-48ed-a4d0-c522ae25c53b" x1="0" y1="0" x2="-171.20256611616296" y2="-71.47291595140783" stroke="rgba(255, 255, 255, 0)" stroke-width="30"></line></g><g><line class="connector" id="b50798aa-9046-44f9-9b76-212e40d0d708" transform="translate(651,862) scale(1,1) " x1="42.69479470285592" y1="-32.9628929691167" x2="93.30520529714407" y2="-72.03710703088329" stroke="#808080" stroke-width="3" stroke-linecap="butt"></line><line transform="translate(651,862) " class="outer-connector" id="b50798aa-9046-44f9-9b76-212e40d0d708" x1="0" y1="0" x2="109.13602386635439" y2="-84.25943019093538" stroke="rgba(255, 255, 255, 0)" stroke-width="30"></line></g><g><line class="connector" id="a928f614-c20d-4cf9-bc0c-1e0c4b5a7606" transform="translate(787,757) scale(1,1) " x1="31.23626857194358" y1="38.52473123873042" x2="58.76373142805641" y2="72.47526876126958" stroke="#808080" stroke-width="3" stroke-linecap="butt"></line><line transform="translate(787,757) " class="outer-connector" id="a928f614-c20d-4cf9-bc0c-1e0c4b5a7606" x1="0" y1="0" x2="71.35977059648079" y2="88.01038373565964" stroke="rgba(255, 255, 255, 0)" stroke-width="30"></line></g><g><line class="connector" id="04dcc2d2-7679-4175-8f82-bc89b85fc16a" transform="translate(397,551) scale(1,1) " x1="-42.87281715166059" y1="-32.838753562974055" x2="-98.12718284833942" y2="-75.16124643702591" stroke="#808080" stroke-width="3" stroke-linecap="butt"></line><line transform="translate(397,551) " class="outer-connector" id="04dcc2d2-7679-4175-8f82-bc89b85fc16a" x1="0" y1="0" x2="-114.00474576837222" y2="-87.3227839927957" stroke="rgba(255, 255, 255, 0)" stroke-width="30"></line></g><g><line class="connector" id="b6beb9c0-7e1c-45d4-875f-6deae2fa3aae" transform="translate(1030,394) scale(1,1) " x1="23.665961164690636" y1="-40.177096860986424" x2="62.33403883530937" y2="-105.82290313901359" stroke="#808080" stroke-width="3" stroke-linecap="butt"></line><line transform="translate(1030,394) " class="outer-connector" id="b6beb9c0-7e1c-45d4-875f-6deae2fa3aae" x1="0" y1="0" x2="72.48475593688565" y2="-123.05551589285237" stroke="rgba(255, 255, 255, 0)" stroke-width="30"></line></g><g><line class="connector" id="c160a661-3d84-4ce6-96f8-d71254e8b76b" transform="translate(1030,394) scale(1,1) " x1="54.87920096004677" y1="-19.58244615754973" x2="172.12079903995325" y2="-61.417553842450275" stroke="#808080" stroke-width="3" stroke-linecap="butt"></line><line transform="translate(1030,394) " class="outer-connector" id="c160a661-3d84-4ce6-96f8-d71254e8b76b" x1="0" y1="0" x2="190.95751393925627" y2="-68.13902479770817" stroke="rgba(255, 255, 255, 0)" stroke-width="30"></line></g><g><line class="connector" id="65511e0c-2dc4-4cde-a3ef-bc759dd31d69" transform="translate(1208,429) scale(1,1) " x1="-58.32094867432732" y1="-11.467602267423912" x2="-119.67905132567266" y2="-23.532397732576086" stroke="#808080" stroke-width="3" stroke-linecap="butt"></line><line transform="translate(1208,429) " class="outer-connector" id="65511e0c-2dc4-4cde-a3ef-bc759dd31d69" x1="0" y1="0" x2="-139.30328267638376" y2="-27.391094908277708" stroke="rgba(255, 255, 255, 0)" stroke-width="30"></line></g><g><line class="connector" id="3b77af6d-17ff-4d33-b7f3-58195fd6f779" transform="translate(1208,429) scale(1,1) " x1="-38.586003856074036" y1="35.46794293841149" x2="-159.41399614392594" y2="146.5320570615885" stroke="#808080" stroke-width="3" stroke-linecap="butt"></line><line transform="translate(1208,429) " class="outer-connector" id="3b77af6d-17ff-4d33-b7f3-58195fd6f779" x1="0" y1="0" x2="-174.1385436590243" y2="160.06674215122433" stroke="rgba(255, 255, 255, 0)" stroke-width="30"></line></g><g><line class="connector" id="9ad7cf6e-ec2d-45ce-92c7-966465506afd" transform="translate(391,670) scale(1,1) " x1="-59.29743733361428" y1="7.464013090944454" x2="-83.70256266638572" y2="10.535986909055541" stroke="#808080" stroke-width="3" stroke-linecap="butt"></line><line transform="translate(391,670) " class="outer-connector" id="9ad7cf6e-ec2d-45ce-92c7-966465506afd" x1="0" y1="0" x2="-103.5459780034431" y2="13.033759468964861" stroke="rgba(255, 255, 255, 0)" stroke-width="30"></line></g><g><line class="connector" id="e2eb6952-a7b8-4567-97a8-3ad09c738450" transform="translate(1049,786) scale(1,1) " x1="16.106383763819192" y1="40.64944473725796" x2="25.893616236180808" y2="65.35055526274203" stroke="#808080" stroke-width="3" stroke-linecap="butt"></line><line transform="translate(1049,786) " class="outer-connector" id="e2eb6952-a7b8-4567-97a8-3ad09c738450" x1="0" y1="0" x2="33.26090359835985" y2="83.94418527205106" stroke="rgba(255, 255, 255, 0)" stroke-width="30"></line></g><g><line class="connector" id="da91f23b-16b7-4d3c-b690-2c6e6bc848a9" transform="translate(1049,786) scale(1,1) " x1="59.079111939635254" y1="8.533649502391759" x2="120.92088806036475" y2="17.466350497608243" stroke="#808080" stroke-width="3" stroke-linecap="butt"></line><line transform="translate(1049,786) " class="outer-connector" id="da91f23b-16b7-4d3c-b690-2c6e6bc848a9" x1="0" y1="0" x2="140.7154551972438" y2="20.325565750712997" stroke="rgba(255, 255, 255, 0)" stroke-width="30"></line></g><g><line class="connector" id="dabbaba4-6b5a-45b0-977a-0dedde2e24e6" transform="translate(489,394) scale(1,1) " x1="51.63824563181644" y1="24.477869682614287" x2="256.36175436818354" y2="121.52213031738572" stroke="#808080" stroke-width="3" stroke-linecap="butt"></line><line transform="translate(489,394) " class="outer-connector" id="dabbaba4-6b5a-45b0-977a-0dedde2e24e6" x1="0" y1="0" x2="274.4341209007697" y2="130.08890146594928" stroke="rgba(255, 255, 255, 0)" stroke-width="30"></line></g><g><line class="connector" id="16cc8595-99f3-40d0-a404-bfc6a285c2fc" transform="translate(581,671) scale(1,1) " x1="47.65936670979916" y1="-28.90452332862819" x2="168.34063329020083" y2="-102.0954766713718" stroke="#808080" stroke-width="3" stroke-linecap="butt"></line><line transform="translate(581,671) " class="outer-connector" id="16cc8595-99f3-40d0-a404-bfc6a285c2fc" x1="0" y1="0" x2="185.44139890802248" y2="-112.46677433773586" stroke="rgba(255, 255, 255, 0)" stroke-width="30"></line></g><g><line class="connector" id="a84a7ab5-9a4e-4d2d-8458-7ad85f2aedbf" transform="translate(397,551) scale(1,1) " x1="59.965992859948635" y1="-1.6490648036485875" x2="340.0340071400514" y2="-9.350935196351413" stroke="#808080" stroke-width="3" stroke-linecap="butt"></line><line transform="translate(397,551) " class="outer-connector" id="a84a7ab5-9a4e-4d2d-8458-7ad85f2aedbf" x1="0" y1="0" x2="360.0264489267055" y2="-9.9007273454844" stroke="rgba(255, 255, 255, 0)" stroke-width="30"></line></g><g><line class="connector" id="cf549d1f-c2e8-4c9f-9e63-e7cb94d07e36" transform="translate(391,670) scale(1,1) " x1="55.789730219976605" y1="-17.863706720682163" x2="350.21026978002345" y2="-112.13629327931784" stroke="#808080" stroke-width="3" stroke-linecap="butt"></line><line transform="translate(391,670) " class="outer-connector" id="cf549d1f-c2e8-4c9f-9e63-e7cb94d07e36" x1="0" y1="0" x2="369.2576629623081" y2="-118.23521227857152" stroke="rgba(255, 255, 255, 0)" stroke-width="30"></line></g><g><line class="connector" id="a9c9f407-8f2f-42ca-8911-ca3d0f3a1698" transform="translate(630,277) scale(1,1) " x1="25.350212526601418" y1="39.92278978740224" x2="141.64978747339853" y2="223.07721021259772" stroke="#808080" stroke-width="3" stroke-linecap="butt"></line><line transform="translate(630,277) " class="outer-connector" id="a9c9f407-8f2f-42ca-8911-ca3d0f3a1698" x1="0" y1="0" x2="152.3706764325949" y2="239.96100539983513" stroke="rgba(255, 255, 255, 0)" stroke-width="30"></line></g><g><line class="connector" id="39e02f71-f392-44a2-b804-316e4190a6df" transform="translate(836,336) scale(1,1) " x1="-7.704668182772197" y1="40.30134126373151" x2="-31.295331817227787" y2="163.6986587362685" stroke="#808080" stroke-width="3" stroke-linecap="butt"></line><line transform="translate(836,336) " class="outer-connector" id="39e02f71-f392-44a2-b804-316e4190a6df" x1="0" y1="0" x2="-35.050847963252785" y2="183.3428970385531" stroke="rgba(255, 255, 255, 0)" stroke-width="30"></line></g><g><line class="connector" id="f332b9b9-7d3b-41ff-8616-dd331a637b35" transform="translate(630,277) scale(1,1) " x1="56.57165469830124" y1="16.202561297086273" x2="149.42834530169876" y2="42.79743870291371" stroke="#808080" stroke-width="3" stroke-linecap="butt"></line><line transform="translate(630,277) " class="outer-connector" id="f332b9b9-7d3b-41ff-8616-dd331a637b35" x1="0" y1="0" x2="168.6552982384625" y2="48.30418735955964" stroke="rgba(255, 255, 255, 0)" stroke-width="30"></line></g><g><line class="connector" id="83e43776-e1ce-4e12-bb2b-cbcd309f8601" transform="translate(1030,394) scale(1,1) " x1="-47.04683633293719" y1="29.47999186527395" x2="-185.95316366706282" y2="116.52000813472607" stroke="#808080" stroke-width="3" stroke-linecap="butt"></line><line transform="translate(1030,394) " class="outer-connector" id="83e43776-e1ce-4e12-bb2b-cbcd309f8601" x1="0" y1="0" x2="-202.90085937831813" y2="127.13959428855986" stroke="rgba(255, 255, 255, 0)" stroke-width="30"></line></g><g><line class="connector" id="d51b79d1-f7ed-4795-9359-76b3102acb8a" transform="translate(1010,611) scale(1,1) " x1="-55.47024114279959" y1="-18.4900803809332" x2="-157.52975885720042" y2="-52.50991961906682" stroke="#808080" stroke-width="3" stroke-linecap="butt"></line><line transform="translate(1010,611) " class="outer-connector" id="d51b79d1-f7ed-4795-9359-76b3102acb8a" x1="0" y1="0" x2="-176.5034248182107" y2="-58.83447493940358" stroke="rgba(255, 255, 255, 0)" stroke-width="30"></line></g><g><line class="connector" id="9fdf2f74-9290-4344-a17c-29505f48c628" transform="translate(1049,786) scale(1,1) " x1="-37.10289589429693" y1="-36.21949361109938" x2="-214.89710410570302" y2="-209.78050638890056" stroke="#808080" stroke-width="3" stroke-linecap="butt"></line><line transform="translate(1049,786) " class="outer-connector" id="9fdf2f74-9290-4344-a17c-29505f48c628" x1="0" y1="0" x2="-229.20858822331874" y2="-223.75124088466828" stroke="rgba(255, 255, 255, 0)" stroke-width="30"></line></g><g><line class="connector" id="70a1eddd-52d1-4cd0-b7be-3ed5f01abbe0" transform="translate(787,757) scale(1,1) " x1="52.503533229666836" y1="23.315713769753362" x2="251.49646677033314" y2="111.68428623024663" stroke="#808080" stroke-width="3" stroke-linecap="butt"></line><line transform="translate(787,757) " class="outer-connector" id="70a1eddd-52d1-4cd0-b7be-3ed5f01abbe0" x1="0" y1="0" x2="269.7751763689685" y2="119.80147634806168" stroke="rgba(255, 255, 255, 0)" stroke-width="30"></line></g><g transform="translate(797,540) scale(0.45)"><rect id="c1eaa198-7a67-46b5-81b2-4f2fee628305" class="node" x="-100" y="-60" width="200" height="120" transform="translate(0,0)" fill="#F0EEC0" stroke="#F3F033" stroke-width="5"></rect><text id="c1eaa198-7a67-46b5-81b2-4f2fee628305" class="noselect node" x="0" fill="black" alignment-baseline="center" text-anchor="middle" font-size="20px" y="0">Freiheit</text></g><g transform="translate(836,336) scale(0.45)"><ellipse id="f0f3feb0-e3e7-4de4-ac0a-1d9fc6238af9" class="node" null="cy" rx="100" ry="70" transform="translate(0,0)" fill="#B9F1B9" stroke="#22AA22" stroke-width="9" opacity="1"></ellipse><text id="f0f3feb0-e3e7-4de4-ac0a-1d9fc6238af9" class="noselect node" x="0" fill="black" alignment-baseline="center" text-anchor="middle" font-size="20px" y="0">keine Zwänge</text></g><g transform="translate(1240,678) scale(0.45)"><ellipse id="6558a610-b395-46bc-8748-7353e26b8072" class="node" null="cy" rx="100" ry="70" transform="translate(0,0)" fill="#B9F1B9" stroke="#22AA22" stroke-width="6" opacity="1"></ellipse><text id="6558a610-b395-46bc-8748-7353e26b8072" class="noselect node" x="0" fill="black" alignment-baseline="center" text-anchor="middle" font-size="20px" y="0">viele Möglichkeiten</text></g><g transform="translate(1010,611) scale(0.45)"><g><polygon id="3fb7a8a5-afac-4527-970c-9d8d99a1c8e0" class="node" points="-100,0 -60,-60 60,-60 100,0 60,60 -60,60" transform="translate(0,0)" fill="rgb(247, 151, 226)" stroke="rgb(142, 19, 146)" stroke-width="5"></polygon><ellipse id="3fb7a8a5-afac-4527-970c-9d8d99a1c8e0" class="node" null="cy" rx="90" ry="55" transform="translate(0,0)" fill="rgb(247, 151, 226)" stroke="rgb(142, 19, 146)" stroke-width="3"></ellipse></g><text id="3fb7a8a5-afac-4527-970c-9d8d99a1c8e0" class="noselect node" x="0" fill="black" alignment-baseline="center" text-anchor="middle" font-size="20px" y="0">Entscheidungen</text></g><g transform="translate(1244,558) scale(0.45)"><polygon id="36df67de-b6cc-4d3c-904f-13ff1bcd1c9e" class="node" points="-100,0 -60,-60 60,-60 100,0 60,60 -60,60" transform="translate(0,0)" fill="#EB8989" stroke="#E04848" stroke-width="6"></polygon><text id="36df67de-b6cc-4d3c-904f-13ff1bcd1c9e" class="noselect node" x="0" fill="black" alignment-baseline="center" text-anchor="middle" font-size="20px" y="0">Überforderung</text></g><g transform="translate(630,277) scale(0.45)"><ellipse id="62b7a0c7-2c6f-49d5-8ed9-ba2eb38b90b3" class="node" null="cy" rx="100" ry="70" transform="translate(0,0)" fill="#B9F1B9" stroke="#22AA22" stroke-width="9" opacity="1"></ellipse><text id="62b7a0c7-2c6f-49d5-8ed9-ba2eb38b90b3" class="noselect node" x="0" fill="black" alignment-baseline="center" text-anchor="middle" font-size="20px" y="0">Autonomie</text></g><g transform="translate(1030,394) scale(0.45)"><ellipse id="06eae4ff-87ec-4940-8d4c-e31c9e52f7a2" class="node" null="cy" rx="100" ry="70" transform="translate(0,0)" fill="#B9F1B9" stroke="#22AA22" stroke-width="9" opacity="1"></ellipse><text id="06eae4ff-87ec-4940-8d4c-e31c9e52f7a2" class="noselect node" x="0" fill="black" alignment-baseline="center" text-anchor="middle" font-size="20px" y="0">Selbstbestimmung</text></g><g transform="translate(787,757) scale(0.45)"><ellipse id="607d6c2b-6e4c-4db9-9d04-eaeaa8d38365" class="node" null="cy" rx="100" ry="70" transform="translate(0,0)" fill="#B9F1B9" stroke="#22AA22" stroke-width="9" opacity="1"></ellipse><text id="607d6c2b-6e4c-4db9-9d04-eaeaa8d38365" class="noselect node" x="0" fill="black" alignment-baseline="center" text-anchor="middle" font-size="20px" y="0">Menschenrecht</text></g><g transform="translate(581,671) scale(0.45)"><ellipse id="f306071c-2dc1-4de9-9301-1e62cda69c35" class="node" null="cy" rx="100" ry="70" transform="translate(0,0)" fill="#B9F1B9" stroke="#22AA22" stroke-width="9" opacity="1"></ellipse><text id="f306071c-2dc1-4de9-9301-1e62cda69c35" class="noselect node" x="0" fill="black" alignment-baseline="center" text-anchor="middle" font-size="20px" y="0">moderne Demokratie</text></g><g transform="translate(651,862) scale(0.45)"><ellipse id="bd74c755-9d75-41cb-8b05-82fe9757bdbf" class="node" null="cy" rx="100" ry="70" transform="translate(0,0)" fill="#B9F1B9" stroke="#22AA22" stroke-width="3" opacity="1"></ellipse><text id="bd74c755-9d75-41cb-8b05-82fe9757bdbf" class="noselect node" x="0" fill="black" alignment-baseline="center" text-anchor="middle" font-size="20px" y="0">Meinungsfreiheit</text></g><g transform="translate(877,868) scale(0.45)"><ellipse id="f65ae166-192b-44c8-b6b5-7065accb117a" class="node" null="cy" rx="100" ry="70" transform="translate(0,0)" fill="#B9F1B9" stroke="#22AA22" stroke-width="3" opacity="1"></ellipse><text id="f65ae166-192b-44c8-b6b5-7065accb117a" class="noselect node" x="0" fill="black" alignment-baseline="center" text-anchor="middle" font-size="20px" y="0">Religionsfreiheit</text></g><g transform="translate(397,551) scale(0.45)"><ellipse id="c7b58df5-fd69-499e-8a7b-1a597f3bbd92" class="node" null="cy" rx="100" ry="70" transform="translate(0,0)" fill="#B9F1B9" stroke="#22AA22" stroke-width="9" opacity="1"></ellipse><text id="c7b58df5-fd69-499e-8a7b-1a597f3bbd92" class="noselect node" x="0" fill="black" alignment-baseline="center" text-anchor="middle" font-size="20px" y="0">Freiheitsgefühl</text></g><g transform="translate(256,443) scale(0.45)"><ellipse id="21030a88-188c-4208-8941-deb74a966313" class="node" null="cy" rx="100" ry="70" transform="translate(0,0)" fill="#B9F1B9" stroke="#22AA22" stroke-width="9" opacity="1"></ellipse><text id="21030a88-188c-4208-8941-deb74a966313" class="noselect node" x="0" fill="black" alignment-baseline="center" text-anchor="middle" font-size="20px" y="0">auf Reisen</text></g><g transform="translate(1116,248) scale(0.45)"><ellipse id="1184ec82-a977-4b5a-a839-e5e89cb44410" class="node" null="cy" rx="100" ry="70" transform="translate(0,0)" fill="#B9F1B9" stroke="#22AA22" stroke-width="9" opacity="1"></ellipse><text id="1184ec82-a977-4b5a-a839-e5e89cb44410" class="noselect node" x="0" fill="black" alignment-baseline="center" text-anchor="middle" font-size="20px" y="0">tun, was man möchte</text></g><g transform="translate(1257,313) scale(0.45)"><ellipse id="cbd91cdf-ffe6-4cb1-bfda-c4cf16624a7a" class="node" null="cy" rx="100" ry="70" transform="translate(0,0)" fill="#B9F1B9" stroke="#22AA22" stroke-width="9" opacity="1"></ellipse><text id="cbd91cdf-ffe6-4cb1-bfda-c4cf16624a7a" class="noselect node" x="0" fill="black" alignment-baseline="center" text-anchor="middle" font-size="20px" y="-20">lassen,  <tspan dy="1.1em" x="0">was</tspan> man  <tspan dy="1.1em" x="0">nicht</tspan> </text></g><g transform="translate(1208,429) scale(0.45)"><ellipse id="a02b0854-8a44-4436-b291-f8c3b40e7b40" class="node" null="cy" rx="100" ry="70" transform="translate(0,0)" fill="#B9F1B9" stroke="#22AA22" stroke-width="9" opacity="1"></ellipse><text id="a02b0854-8a44-4436-b291-f8c3b40e7b40" class="noselect node" x="0" fill="black" alignment-baseline="center" text-anchor="middle" font-size="20px" y="0">Handlungsfreiheit</text></g><g transform="translate(391,670) scale(0.45)"><rect id="c2892551-ba4e-4208-9d97-9e8d632977c4" class="node" x="-100" y="-60" width="200" height="120" transform="translate(0,0)" fill="#F0EEC0" stroke="#F3F033" stroke-width="5"></rect><text id="c2892551-ba4e-4208-9d97-9e8d632977c4" class="noselect node" x="0" fill="black" alignment-baseline="center" text-anchor="middle" font-size="20px" y="0">Symbol Schwalbe</text></g><g transform="translate(248,688) scale(0.45)"><ellipse id="1aad7b94-7377-4bbd-84ab-70a4ea716e4a" class="node" null="cy" rx="100" ry="70" transform="translate(0,0)" fill="#B9F1B9" stroke="#22AA22" stroke-width="3" opacity="1"></ellipse><text id="1aad7b94-7377-4bbd-84ab-70a4ea716e4a" class="noselect node" x="0" fill="black" alignment-baseline="center" text-anchor="middle" font-size="20px" y="0">Tattoo</text></g><g transform="translate(1049,786) scale(0.45)"><polygon id="25424180-f5de-459a-a777-73e5fcdea1f5" class="node" points="-100,0 -60,-60 60,-60 100,0 60,60 -60,60" transform="translate(0,0)" fill="#EB8989" stroke="#E04848" stroke-width="3"></polygon><text id="25424180-f5de-459a-a777-73e5fcdea1f5" class="noselect node" x="0" fill="black" alignment-baseline="center" text-anchor="middle" font-size="20px" y="0">Grenzen</text></g><g transform="translate(1229,812) scale(0.45)"><ellipse id="ba7fbb19-ab82-4e88-9d84-607f0bd90228" class="node" null="cy" rx="100" ry="70" transform="translate(0,0)" fill="#B9F1B9" stroke="#22AA22" stroke-width="3" opacity="1"></ellipse><text id="ba7fbb19-ab82-4e88-9d84-607f0bd90228" class="noselect node" x="0" fill="black" alignment-baseline="center" text-anchor="middle" font-size="20px" y="0">Moralische Normen </text></g><g transform="translate(1091,892) scale(0.45)"><ellipse id="7479a188-43f5-4f53-b7bf-481e74410b82" class="node" null="cy" rx="100" ry="70" transform="translate(0,0)" fill="#B9F1B9" stroke="#22AA22" stroke-width="3" opacity="1"></ellipse><text id="7479a188-43f5-4f53-b7bf-481e74410b82" class="noselect node" x="0" fill="black" alignment-baseline="center" text-anchor="middle" font-size="20px" y="0">Gesetze</text></g><g transform="translate(489,394) scale(0.45)"><rect id="558a6168-5ce7-452e-b621-0f7dc7212c96" class="node" x="-100" y="-60" width="200" height="120" transform="translate(0,0)" fill="#F0EEC0" stroke="#F3F033" stroke-width="5"></rect><text id="558a6168-5ce7-452e-b621-0f7dc7212c96" class="noselect node" x="0" fill="black" alignment-baseline="center" text-anchor="middle" font-size="20px" y="0">Philosophie</text></g></svg>