<?xml version="1.0" standalone="no"?>
<svg id="CAMSVG" xmlns="http://www.w3.org/2000/svg" height="1400px" width="2400px"><rect id="background" x="0" y="0" width="100%" height="100%" fill="white"></rect><marker id="arrowRight" markerWidth="30" markerHeight="15" refX="30" refY="7.5" orient="auto" markerUnits="userSpaceOnUse"><polygon points="30 0, 30 15, 0 7.5" fill="#8c8c8c"></polygon></marker><marker id="arrowLeft" markerWidth="30" markerHeight="15" refX="0" refY="7.5" orient="auto" markerUnits="userSpaceOnUse"><polygon points="0 0, 30 7.5, 0 15" fill="#8c8c8c"></polygon></marker><g><line class="connector" id="40a4e4c6-1e89-40b4-802f-6cbf98161e8e" transform="translate(291,351.6666717529297) scale(1,1) " x1="-53.98131195772766" y1="-21.102643459372512" x2="-137.01868804227232" y2="-53.56402829355718" stroke="#808080" stroke-width="6" stroke-linecap="butt"></line><line transform="translate(291,351.6666717529297) " class="outer-connector" id="40a4e4c6-1e89-40b4-802f-6cbf98161e8e" x1="0" y1="0" x2="-155.64594061272442" y2="-60.845886687991005" stroke="rgba(255, 255, 255, 0)" stroke-width="30"></line></g><g><line class="connector" id="342e22c0-3dfe-43c0-ad6d-364d15b05f6f" transform="translate(291,351.6666717529297) scale(1,1) " x1="-6.572532259486898" y1="-40.23187491838298" x2="-15.427462674118296" y2="-94.43479683454672" stroke="#808080" stroke-width="6" stroke-linecap="butt"></line><line transform="translate(291,351.6666717529297) " class="outer-connector" id="342e22c0-3dfe-43c0-ad6d-364d15b05f6f" x1="0" y1="0" x2="-18.652042193536342" y2="-114.17313736567925" stroke="rgba(255, 255, 255, 0)" stroke-width="30"></line></g><g><line class="connector" id="7774f6df-a1fd-4f52-8f19-cd2db7e60310" transform="translate(291,351.6666717529297) scale(1,1) " x1="40.48607249537074" y1="-34.39139624395673" x2="114.51392750462927" y2="-97.27527550897294" stroke="#808080" stroke-width="9" stroke-dasharray="20,10"></line><line transform="translate(291,351.6666717529297) " class="outer-connector" id="7774f6df-a1fd-4f52-8f19-cd2db7e60310" x1="0" y1="0" x2="129.75675688149656" y2="-110.22348590994002" stroke="rgba(255, 255, 255, 0)" stroke-width="30"></line></g><g><line class="connector" id="229fb7c8-17ee-480d-836a-bd31d0b046d0" transform="translate(269.0000050663948,217) scale(1,1) " x1="59.9870761601302" y1="1.0167301335115644" x2="117.01291877347498" y2="1.9832698664884358" stroke="#808080" stroke-width="6" stroke-dasharray="20,10"></line><line transform="translate(269.0000050663948,217) " class="outer-connector" id="229fb7c8-17ee-480d-836a-bd31d0b046d0" x1="0" y1="0" x2="137.01004665439007" y2="2.322204247052959" stroke="rgba(255, 255, 255, 0)" stroke-width="30"></line></g><g><line class="connector" id="f79749ed-47ed-46e4-90fc-19add380445f" transform="translate(291,351.6666717529297) scale(1,1) " x1="58.93996407365015" y1="9.147647158957202" x2="130.06003592634985" y2="20.185681088113107" stroke="#808080" stroke-width="3" stroke-linecap="butt"></line><line transform="translate(291,351.6666717529297) " class="outer-connector" id="f79749ed-47ed-46e4-90fc-19add380445f" x1="0" y1="0" x2="149.82342300459686" y2="23.253014000494733" stroke="rgba(255, 255, 255, 0)" stroke-width="30"></line></g><g><line class="connector" id="788a9f2d-6a73-4049-80ad-fb44092d1560" transform="translate(269.0000050663948,217) scale(1,1) " x1="-44.18673239302909" y1="-31.877571375689303" x2="-95.8132669513198" y2="-69.12242862431069" stroke="#808080" stroke-width="6" stroke-dasharray="20,10"></line><line transform="translate(269.0000050663948,217) " class="outer-connector" id="788a9f2d-6a73-4049-80ad-fb44092d1560" x1="0" y1="0" x2="-112.03295928328984" y2="-80.8237781471748" stroke="rgba(255, 255, 255, 0)" stroke-width="30"></line></g><g><line class="connector" id="79f4d6f9-f29d-431d-8748-eee267984ebb" transform="translate(269.0000050663948,217) scale(1,1) " x1="8.274224712653028" y1="-40.33684437222953" x2="15.725775942998055" y2="-76.66315562777048" stroke="#808080" stroke-width="3" stroke-dasharray="20,10"></line><line transform="translate(269.0000050663948,217) " class="outer-connector" id="79f4d6f9-f29d-431d-8748-eee267984ebb" x1="0" y1="0" x2="19.744658922782516" y2="-96.25520961898842" stroke="rgba(255, 255, 255, 0)" stroke-width="30"></line></g><g><line class="connector" id="cf3221ca-d18a-478e-a95b-44f153a74272" transform="translate(291,351.6666717529297) scale(1,1) " x1="-51.11487276257384" y1="25.140414462740875" x2="-91.88512151538025" y2="45.19291378432943" stroke="#808080" stroke-width="3" stroke-linecap="butt"></line><line transform="translate(291,351.6666717529297) " class="outer-connector" id="cf3221ca-d18a-478e-a95b-44f153a74272" x1="0" y1="0" x2="-109.83184935253476" y2="54.01985889229872" stroke="rgba(255, 255, 255, 0)" stroke-width="30"></line></g><g><line class="connector" id="fc3c46a9-2334-4395-b7e5-be7e41c6ab59" transform="translate(291,351.6666717529297) scale(1,1) " x1="9.50130339628377" y1="40.41221776210443" x2="15.498690881670335" y2="65.92111048496588" stroke="#808080" stroke-width="6" stroke-linecap="butt"></line><line transform="translate(291,351.6666717529297) " class="outer-connector" id="fc3c46a9-2334-4395-b7e5-be7e41c6ab59" x1="0" y1="0" x2="20.07607492859751" y2="85.39025415609164" stroke="rgba(255, 255, 255, 0)" stroke-width="30"></line></g><g transform="translate(291,351.6666717529297) scale(0.45)"><rect id="4be60b0d-1ed4-4725-9666-1106065964c6" class="node" x="-100" y="-60" width="200" height="120" transform="translate(0,0)" fill="#F0EEC0" stroke="#F3F033" stroke-width="5"></rect><text id="4be60b0d-1ed4-4725-9666-1106065964c6" class="noselect node" x="0" fill="black" alignment-baseline="center" text-anchor="middle" font-size="20px" y="0">Freiheit</text></g><g transform="translate(100,277) scale(0.45)"><ellipse id="9788275b-1062-4568-a948-60358b47caf6" class="node" null="cy" rx="100" ry="70" transform="translate(0,0)" fill="#B9F1B9" stroke="#22AA22" stroke-width="6" opacity="1"></ellipse><text id="9788275b-1062-4568-a948-60358b47caf6" class="noselect node" x="0" fill="black" alignment-baseline="center" text-anchor="middle" font-size="20px" y="-20"> <tspan dy="1.1em" x="0">Mobilität</tspan> und  <tspan dy="1.1em" x="0">Reisen</tspan></text></g><g transform="translate(269.0000050663948,217) scale(0.45)"><g><polygon id="78bb5f36-6214-48b0-a663-6a6f70345c6c" class="node" points="-100,0 -60,-60 60,-60 100,0 60,60 -60,60" transform="translate(0,0)" fill="rgb(247, 151, 226)" stroke="rgb(142, 19, 146)" stroke-width="5"></polygon><ellipse id="78bb5f36-6214-48b0-a663-6a6f70345c6c" class="node" null="cy" rx="90" ry="55" transform="translate(0,0)" fill="rgb(247, 151, 226)" stroke="rgb(142, 19, 146)" stroke-width="3"></ellipse></g><text id="78bb5f36-6214-48b0-a663-6a6f70345c6c" class="noselect node" x="0" fill="black" alignment-baseline="center" text-anchor="middle" font-size="20px" y="0">Glaube</text></g><g transform="translate(446,220) scale(0.45)"><polygon id="b48ff8bf-6134-4a24-b591-165d9bc155ee" class="node" points="-100,0 -60,-60 60,-60 100,0 60,60 -60,60" transform="translate(0,0)" fill="#EB8989" stroke="#E04848" stroke-width="9"></polygon><text id="b48ff8bf-6134-4a24-b591-165d9bc155ee" class="noselect node" x="0" fill="black" alignment-baseline="center" text-anchor="middle" font-size="20px" y="0">Krieg</text></g><g transform="translate(480,381) scale(0.45)"><g><polygon id="58f66934-d99c-4fed-8dc3-81dc6521f68e" class="node" points="-100,0 -60,-60 60,-60 100,0 60,60 -60,60" transform="translate(0,0)" fill="rgb(247, 151, 226)" stroke="rgb(142, 19, 146)" stroke-width="5"></polygon><ellipse id="58f66934-d99c-4fed-8dc3-81dc6521f68e" class="node" null="cy" rx="90" ry="55" transform="translate(0,0)" fill="rgb(247, 151, 226)" stroke="rgb(142, 19, 146)" stroke-width="3"></ellipse></g><text id="58f66934-d99c-4fed-8dc3-81dc6521f68e" class="noselect node" x="0" fill="black" alignment-baseline="center" text-anchor="middle" font-size="20px" y="0">Gesetze</text></g><g transform="translate(129.0000057220459,116) scale(0.45)"><polygon id="2f49d300-d53d-42c1-890e-6a12ed6dceef" class="node" points="-100,0 -60,-60 60,-60 100,0 60,60 -60,60" transform="translate(0,0)" fill="#EB8989" stroke="#E04848" stroke-width="3"></polygon><text id="2f49d300-d53d-42c1-890e-6a12ed6dceef" class="noselect node" x="0" fill="black" alignment-baseline="center" text-anchor="middle" font-size="20px" y="0">Gebote</text></g><g transform="translate(293.0000057220459,100) scale(0.45)"><g><polygon id="dafa1e2d-cc59-4ccd-a257-6f013d86467f" class="node" points="-100,0 -60,-60 60,-60 100,0 60,60 -60,60" transform="translate(0,0)" fill="rgb(247, 151, 226)" stroke="rgb(142, 19, 146)" stroke-width="5"></polygon><ellipse id="dafa1e2d-cc59-4ccd-a257-6f013d86467f" class="node" null="cy" rx="90" ry="55" transform="translate(0,0)" fill="rgb(247, 151, 226)" stroke="rgb(142, 19, 146)" stroke-width="3"></ellipse></g><text id="dafa1e2d-cc59-4ccd-a257-6f013d86467f" class="noselect node" x="0" fill="black" alignment-baseline="center" text-anchor="middle" font-size="20px" y="0">Kirche</text></g><g transform="translate(148.0000057220459,422) scale(0.45)"><g><polygon id="87dca17f-e5b3-43e4-9af3-2f50fdf21279" class="node" points="-100,0 -60,-60 60,-60 100,0 60,60 -60,60" transform="translate(0,0)" fill="rgb(247, 151, 226)" stroke="rgb(142, 19, 146)" stroke-width="5"></polygon><ellipse id="87dca17f-e5b3-43e4-9af3-2f50fdf21279" class="node" null="cy" rx="90" ry="55" transform="translate(0,0)" fill="rgb(247, 151, 226)" stroke="rgb(142, 19, 146)" stroke-width="3"></ellipse></g><text id="87dca17f-e5b3-43e4-9af3-2f50fdf21279" class="noselect node" x="0" fill="black" alignment-baseline="center" text-anchor="middle" font-size="20px" y="0">Entscheidungen</text></g><g transform="translate(315.9999942779541,458) scale(0.45)"><ellipse id="964737b0-de53-4ea7-91c5-99139455f2bb" class="node" null="cy" rx="100" ry="70" transform="translate(0,0)" fill="#B9F1B9" stroke="#22AA22" stroke-width="6" opacity="1"></ellipse><text id="964737b0-de53-4ea7-91c5-99139455f2bb" class="noselect node" x="0" fill="black" alignment-baseline="center" text-anchor="middle" font-size="20px" y="0">Musik</text></g></svg>