<?xml version="1.0" standalone="no"?>
<svg id="CAMSVG" xmlns="http://www.w3.org/2000/svg" height="1400px" width="2400px"><rect id="background" x="0" y="0" width="100%" height="100%" fill="white"></rect><marker id="arrowRight" markerWidth="30" markerHeight="15" refX="30" refY="7.5" orient="auto" markerUnits="userSpaceOnUse"><polygon points="30 0, 30 15, 0 7.5" fill="#8c8c8c"></polygon></marker><marker id="arrowLeft" markerWidth="30" markerHeight="15" refX="0" refY="7.5" orient="auto" markerUnits="userSpaceOnUse"><polygon points="0 0, 30 7.5, 0 15" fill="#8c8c8c"></polygon></marker><g><line class="connector" id="2ab4a88b-bde0-417b-83c3-30a0ac6b812e" transform="translate(349,100) scale(1,1) " x1="10.839536213661177" y1="40.48885585691086" x2="23.160463786338827" y2="86.51114414308914" stroke="#808080" stroke-width="3" stroke-linecap="butt"></line><line transform="translate(349,100) " class="outer-connector" id="2ab4a88b-bde0-417b-83c3-30a0ac6b812e" x1="0" y1="0" x2="28.33265081484" y2="105.83078392601999" stroke="rgba(255, 255, 255, 0)" stroke-width="30"></line></g><g><line class="connector" id="50bde483-2610-4fa4-a1a0-0182d518796f" transform="translate(383,227) scale(1,1) " x1="-22.384724327640345" y1="40.33109814204165" x2="-93.61527567235966" y2="168.66890185795833" stroke="#808080" stroke-width="3" stroke-linecap="butt"></line><line transform="translate(383,227) " class="outer-connector" id="50bde483-2610-4fa4-a1a0-0182d518796f" x1="0" y1="0" x2="-103.32102941278117" y2="186.1559926488902" stroke="rgba(255, 255, 255, 0)" stroke-width="30"></line></g><g><line class="connector" id="dba575b1-0368-4067-87e7-a729d274c5f4" transform="translate(383,227) scale(1,1) " x1="-59.96406692466507" y1="-1.6950972982237476" x2="-223.03593307533492" y2="-6.3049027017762524" stroke="#808080" stroke-width="3" stroke-linecap="butt"></line><line transform="translate(383,227) " class="outer-connector" id="dba575b1-0368-4067-87e7-a729d274c5f4" x1="0" y1="0" x2="-243.02794675159535" y2="-6.87004796470941" stroke="rgba(255, 255, 255, 0)" stroke-width="30"></line></g><g><line class="connector" id="3b667613-cba0-4937-a420-e2d4798ec3db" transform="translate(514,502) scale(1,1) " x1="35.001361346647585" y1="-37.16193920755176" x2="45.9986386533524" y2="-48.83806079244823" stroke="#808080" stroke-width="3" stroke-linecap="butt"></line><line transform="translate(514,502) " class="outer-connector" id="3b667613-cba0-4937-a420-e2d4798ec3db" x1="0" y1="0" x2="59.71121237017832" y2="-63.39708967697947" stroke="rgba(255, 255, 255, 0)" stroke-width="30"></line></g><g><line class="connector" id="fb61a903-1d09-431b-b03e-6dc1d827ab69" transform="translate(595,416) scale(1,1) " x1="27.3226249238001" y1="39.545904494973826" x2="48.6773750761999" y2="70.45409550502616" stroke="#808080" stroke-width="3" stroke-linecap="butt"></line><line transform="translate(595,416) " class="outer-connector" id="fb61a903-1d09-431b-b03e-6dc1d827ab69" x1="0" y1="0" x2="60.04601247530689" y2="86.90870226689154" stroke="rgba(255, 255, 255, 0)" stroke-width="30"></line></g><g><line class="connector" id="737cdd54-fee2-49fc-974f-bda855a6b091" transform="translate(728,357) scale(1,1) " x1="-52.51694636521251" y1="23.29699124471834" x2="-80.4830536347875" y2="35.70300875528168" stroke="#808080" stroke-width="3" stroke-linecap="butt"></line><line transform="translate(728,357) " class="outer-connector" id="737cdd54-fee2-49fc-974f-bda855a6b091" x1="0" y1="0" x2="-98.76494852235886" y2="43.813022276835895" stroke="rgba(255, 255, 255, 0)" stroke-width="30"></line></g><g><line class="connector" id="db8487d0-807f-4f51-b15d-b9c739c131ca" transform="translate(383,227) scale(1,1) " x1="39.32939104999894" y1="35.062523153065094" x2="172.67060895000105" y2="153.9374768469349" stroke="#808080" stroke-width="3" stroke-linecap="butt"></line><line transform="translate(383,227) " class="outer-connector" id="db8487d0-807f-4f51-b15d-b9c739c131ca" x1="0" y1="0" x2="187.59935352601963" y2="167.24659347366847" stroke="rgba(255, 255, 255, 0)" stroke-width="30"></line></g><g><line class="connector" id="a717f21f-6d75-4a96-9094-b149533dd220" transform="translate(621,163) scale(1,1) " x1="-56.952147211083286" y1="15.314863115585423" x2="-181.0478527889167" y2="48.68513688441458" stroke="#808080" stroke-width="3" stroke-linecap="butt"></line><line transform="translate(621,163) " class="outer-connector" id="a717f21f-6d75-4a96-9094-b149533dd220" x1="0" y1="0" x2="-200.36173413142131" y2="53.87878564878557" stroke="rgba(255, 255, 255, 0)" stroke-width="30"></line></g><g transform="translate(383,227) scale(0.45)"><rect id="6400d5bc-2208-4af4-a7d2-fd4d9bd185cb" class="node" x="-100" y="-60" width="200" height="120" transform="translate(0,0)" fill="#F0EEC0" stroke="#F3F033" stroke-width="5"></rect><text id="6400d5bc-2208-4af4-a7d2-fd4d9bd185cb" class="noselect node" x="0" fill="black" alignment-baseline="center" text-anchor="middle" font-size="20px" y="0">Freiheit</text></g><g transform="translate(621,163) scale(0.45)"><g><polygon id="d4ba240e-9532-4c48-9562-4eac1b47b89a" class="node" points="-100,0 -60,-60 60,-60 100,0 60,60 -60,60" transform="translate(0,0)" fill="rgb(247, 151, 226)" stroke="rgb(142, 19, 146)" stroke-width="5"></polygon><ellipse id="d4ba240e-9532-4c48-9562-4eac1b47b89a" class="node" null="cy" rx="90" ry="55" transform="translate(0,0)" fill="rgb(247, 151, 226)" stroke="rgb(142, 19, 146)" stroke-width="3"></ellipse></g><text id="d4ba240e-9532-4c48-9562-4eac1b47b89a" class="noselect node" x="0" fill="black" alignment-baseline="center" text-anchor="middle" font-size="20px" y="0">Gleichheit</text></g><g transform="translate(100,219) scale(0.45)"><ellipse id="8f115439-4b92-417f-984d-c9c7b204adfd" class="node" null="cy" rx="100" ry="70" transform="translate(0,0)" fill="#B9F1B9" stroke="#22AA22" stroke-width="9" opacity="1"></ellipse><text id="8f115439-4b92-417f-984d-c9c7b204adfd" class="noselect node" x="0" fill="black" alignment-baseline="center" text-anchor="middle" font-size="20px" y="0">Chancegleichheit</text></g><g transform="translate(349,100) scale(0.45)"><ellipse id="ef9390e9-c4dc-4c1d-b021-9ca2eb55fcb2" class="node" null="cy" rx="100" ry="70" transform="translate(0,0)" fill="#B9F1B9" stroke="#22AA22" stroke-width="6" opacity="1"></ellipse><text id="ef9390e9-c4dc-4c1d-b021-9ca2eb55fcb2" class="noselect node" x="0" fill="black" alignment-baseline="center" text-anchor="middle" font-size="20px" y="0">Ungebundenheit</text></g><g transform="translate(595,416) scale(0.45)"><g><polygon id="1371d5dd-97a5-4b48-bc60-17445d2b442d" class="node" points="-100,0 -60,-60 60,-60 100,0 60,60 -60,60" transform="translate(0,0)" fill="rgb(247, 151, 226)" stroke="rgb(142, 19, 146)" stroke-width="5"></polygon><ellipse id="1371d5dd-97a5-4b48-bc60-17445d2b442d" class="node" null="cy" rx="90" ry="55" transform="translate(0,0)" fill="rgb(247, 151, 226)" stroke="rgb(142, 19, 146)" stroke-width="3"></ellipse></g><text id="1371d5dd-97a5-4b48-bc60-17445d2b442d" class="noselect node" x="0" fill="black" alignment-baseline="center" text-anchor="middle" font-size="20px" y="-20">Rechte  <tspan dy="1.1em" x="0">und</tspan>  <tspan dy="1.1em" x="0">Pflichten</tspan></text></g><g transform="translate(267,436) scale(0.45)"><ellipse id="958fa79d-52e3-4ddd-ac68-c50e14f9a413" class="node" null="cy" rx="100" ry="70" transform="translate(0,0)" fill="#B9F1B9" stroke="#22AA22" stroke-width="6" opacity="1"></ellipse><text id="958fa79d-52e3-4ddd-ac68-c50e14f9a413" class="noselect node" x="0" fill="black" alignment-baseline="center" text-anchor="middle" font-size="20px" y="0">Rücksichtnahme</text></g><g transform="translate(514,502) scale(0.45)"><ellipse id="b7a157e3-3743-4e17-a6f7-cd29428293bc" class="node" null="cy" rx="100" ry="70" transform="translate(0,0)" fill="#B9F1B9" stroke="#22AA22" stroke-width="6" opacity="1"></ellipse><text id="b7a157e3-3743-4e17-a6f7-cd29428293bc" class="noselect node" x="0" fill="black" alignment-baseline="center" text-anchor="middle" font-size="20px" y="0">Privileg</text></g><g transform="translate(728,357) scale(0.45)"><polygon id="a10b57b0-9bc7-4a65-a7d2-606b74bfa4db" class="node" points="-100,0 -60,-60 60,-60 100,0 60,60 -60,60" transform="translate(0,0)" fill="#EB8989" stroke="#E04848" stroke-width="6"></polygon><text id="a10b57b0-9bc7-4a65-a7d2-606b74bfa4db" class="noselect node" x="0" fill="black" alignment-baseline="center" text-anchor="middle" font-size="20px" y="-20"> <tspan dy="1.1em" x="0">Verantwortung</tspan> und  <tspan dy="1.1em" x="0">Aufgaben</tspan></text></g><g transform="translate(671,526) scale(0.45)"><ellipse id="358d9c22-2a8c-4861-9d05-7b1368c5020b" class="node" null="cy" rx="100" ry="70" transform="translate(0,0)" fill="#B9F1B9" stroke="#22AA22" stroke-width="6" opacity="1"></ellipse><text id="358d9c22-2a8c-4861-9d05-7b1368c5020b" class="noselect node" x="0" fill="black" alignment-baseline="center" text-anchor="middle" font-size="20px" y="0">Rechte</text></g></svg>