<?xml version="1.0" standalone="no"?>
<svg id="CAMSVG" xmlns="http://www.w3.org/2000/svg" height="1400px" width="2400px"><rect id="background" x="0" y="0" width="100%" height="100%" fill="white"></rect><marker id="arrowRight" markerWidth="30" markerHeight="15" refX="30" refY="7.5" orient="auto" markerUnits="userSpaceOnUse"><polygon points="30 0, 30 15, 0 7.5" fill="#8c8c8c"></polygon></marker><marker id="arrowLeft" markerWidth="30" markerHeight="15" refX="0" refY="7.5" orient="auto" markerUnits="userSpaceOnUse"><polygon points="0 0, 30 7.5, 0 15" fill="#8c8c8c"></polygon></marker><g><line class="connector" id="fff31808-adec-4a46-bb20-87b3f2844a46" transform="translate(705,512.2000122070312) scale(1,1) " x1="-59.946551849867205" y1="-2.0671224775816275" x2="-56.053448150132795" y2="-1.932877522418372" stroke="#808080" stroke-width="3" stroke-linecap="butt"></line><line transform="translate(705,512.2000122070312) " class="outer-connector" id="fff31808-adec-4a46-bb20-87b3f2844a46" x1="0" y1="0" x2="-76.04156813720454" y2="-2.6221230392139496" stroke="rgba(255, 255, 255, 0)" stroke-width="30"></line></g><g><line class="connector" id="5120ed31-8d9d-4641-aa7b-c40466795678" transform="translate(425,291.20001220703125) scale(1,1) " x1="55.31140887203485" y1="18.79169660396056" x2="100.68859112796514" y2="34.20830339603944" stroke="#808080" stroke-width="3" stroke-linecap="butt"></line><line transform="translate(425,291.20001220703125) " class="outer-connector" id="5120ed31-8d9d-4641-aa7b-c40466795678" x1="0" y1="0" x2="119.62552536656278" y2="40.6420054129989" stroke="rgba(255, 255, 255, 0)" stroke-width="30"></line></g><g><line class="connector" id="c35ef386-c7b3-4ca4-a3a0-06f5f65dc65c" transform="translate(229,364.20001220703125) scale(1,1) " x1="54.473377148525344" y1="-20.288553733889543" x2="141.52662285147466" y2="-52.71144626611046" stroke="#808080" stroke-width="6" stroke-dasharray="20,10"></line><line transform="translate(229,364.20001220703125) " class="outer-connector" id="c35ef386-c7b3-4ca4-a3a0-06f5f65dc65c" x1="0" y1="0" x2="160.2688784624742" y2="-59.69198024367662" stroke="rgba(255, 255, 255, 0)" stroke-width="30"></line></g><g><line class="connector" id="8a29d4b3-2bfe-49b8-a836-135a7f6c09f5" transform="translate(436,417.20001220703125) scale(1,1) " x1="-57.22046638386809" y1="-14.650650813260913" x2="-149.7795336161319" y2="-38.34934918673909" stroke="#808080" stroke-width="3" stroke-linecap="butt"></line><line transform="translate(436,417.20001220703125) " class="outer-connector" id="8a29d4b3-2bfe-49b8-a836-135a7f6c09f5" x1="0" y1="0" x2="-169.1545420059964" y2="-43.31010012713918" stroke="rgba(255, 255, 255, 0)" stroke-width="30"></line></g><g><line class="connector" id="d7bde04d-7b40-42a6-98cd-58fc260bbf93" transform="translate(415.6000061035156,552.6000061035156) scale(1,1) " x1="6.056934248198798" y1="-40.20142674546867" x2="14.343059648285575" y2="-95.19856715101571" stroke="#808080" stroke-width="3" stroke-linecap="butt"></line><line transform="translate(415.6000061035156,552.6000061035156) " class="outer-connector" id="d7bde04d-7b40-42a6-98cd-58fc260bbf93" x1="0" y1="0" x2="17.322723652488474" y2="-114.97536169467362" stroke="rgba(255, 255, 255, 0)" stroke-width="30"></line></g><g><line class="connector" id="339e060a-6c3c-4380-9ca5-836e650ef969" transform="translate(581,344.20001220703125) scale(1,1) " x1="-50.77101440740544" y1="25.560579667176533" x2="-94.22898559259455" y2="47.43942033282347" stroke="#808080" stroke-width="3" stroke-linecap="butt"></line><line transform="translate(581,344.20001220703125) " class="outer-connector" id="339e060a-6c3c-4380-9ca5-836e650ef969" x1="0" y1="0" x2="-112.09282176053155" y2="56.43293785185382" stroke="rgba(255, 255, 255, 0)" stroke-width="30"></line></g><g><line class="connector" id="b878252b-c3f4-4ef0-8ab7-1738502967fb" transform="translate(581,344.20001220703125) scale(1,1) " x1="7.8298324524335525" y1="-40.30913744030609" x2="19.17016754756643" y2="-98.6908625596939" stroke="#808080" stroke-width="3" stroke-linecap="butt"></line><line transform="translate(581,344.20001220703125) " class="outer-connector" id="b878252b-c3f4-4ef0-8ab7-1738502967fb" x1="0" y1="0" x2="22.98378012591725" y2="-118.32390509268518" stroke="rgba(255, 255, 255, 0)" stroke-width="30"></line></g><g><line class="connector" id="71bd7a11-a4f5-4bd3-9e9a-e7a866afaa1c" transform="translate(741,229.20001220703125) scale(1,1) " x1="-58.578046567243476" y1="-10.570474568525137" x2="-74.42195343275651" y2="-13.42952543147486" stroke="#808080" stroke-width="3" stroke-linecap="butt"></line><line transform="translate(741,229.20001220703125) " class="outer-connector" id="71bd7a11-a4f5-4bd3-9e9a-e7a866afaa1c" x1="0" y1="0" x2="-94.10406994432697" y2="-16.98118555386351" stroke="rgba(255, 255, 255, 0)" stroke-width="30"></line></g><g><line class="connector" id="cc5492d4-acce-48c6-9866-5551d6bcb2fa" transform="translate(581,344.20001220703125) scale(1,1) " x1="58.16016738116842" y1="11.991787088900704" x2="135.8398326188316" y2="28.008212911099296" stroke="#808080" stroke-width="3" stroke-linecap="butt"></line><line transform="translate(581,344.20001220703125) " class="outer-connector" id="cc5492d4-acce-48c6-9866-5551d6bcb2fa" x1="0" y1="0" x2="155.4277995726331" y2="32.04696898404806" stroke="rgba(255, 255, 255, 0)" stroke-width="30"></line></g><g><line class="connector" id="a3e2c571-8197-43e9-b59a-259993af21f6" transform="translate(581,344.20001220703125) scale(1,1) " x1="44.26651839140895" y1="-31.81656009382518" x2="115.73348160859106" y2="-83.18343990617483" stroke="#808080" stroke-width="3" stroke-linecap="butt"></line><line transform="translate(581,344.20001220703125) " class="outer-connector" id="a3e2c571-8197-43e9-b59a-259993af21f6" x1="0" y1="0" x2="131.97378903544532" y2="-94.85616086922633" stroke="rgba(255, 255, 255, 0)" stroke-width="30"></line></g><g><line class="connector" id="ffb48594-9488-4cb9-8e28-586bfd9d4102" transform="translate(436,417.20001220703125) scale(1,1) " x1="48.01576198247604" y1="28.558394381734114" x2="104.98423801752396" y2="62.44160561826588" stroke="#808080" stroke-width="3" stroke-linecap="butt"></line><line transform="translate(436,417.20001220703125) " class="outer-connector" id="ffb48594-9488-4cb9-8e28-586bfd9d4102" x1="0" y1="0" x2="122.17362175347671" y2="72.66535672919203" stroke="rgba(255, 255, 255, 0)" stroke-width="30"></line></g><g><line class="connector" id="487169f9-1b54-4f6f-a980-d6df81d8be4e" transform="translate(589,508.20001220703125) scale(1,1) " x1="-57.22012490810515" y1="14.651518374289006" x2="-116.17986898837923" y2="29.748475522195374" stroke="#808080" stroke-width="3" stroke-linecap="butt"></line><line transform="translate(589,508.20001220703125) " class="outer-connector" id="487169f9-1b54-4f6f-a980-d6df81d8be4e" x1="0" y1="0" x2="-135.55479967597242" y2="34.709529931386946" stroke="rgba(255, 255, 255, 0)" stroke-width="30"></line></g><g><line class="connector" id="4ece9800-ca81-47a3-a7ae-0bb2f5601119" transform="translate(642,656.2000122070312) scale(1,1) " x1="-14.551147115970917" y1="-40.63339194648484" x2="-38.448852884029066" y2="-107.36660805351518" stroke="#808080" stroke-width="3" stroke-linecap="butt"></line><line transform="translate(642,656.2000122070312) " class="outer-connector" id="4ece9800-ca81-47a3-a7ae-0bb2f5601119" x1="0" y1="0" x2="-45.19169717228144" y2="-126.1956826697671" stroke="rgba(255, 255, 255, 0)" stroke-width="30"></line></g><g><line class="connector" id="e9774525-30dc-4cce-b436-f39024bc1906" transform="translate(860,520.2000122070312) scale(1,1) " x1="-59.880423474779995" y1="-3.090602501924129" x2="-95.11957652522003" y2="-4.909397498075872" stroke="#808080" stroke-width="3" stroke-linecap="butt"></line><line transform="translate(860,520.2000122070312) " class="outer-connector" id="e9774525-30dc-4cce-b436-f39024bc1906" x1="0" y1="0" x2="-115.09299071194746" y2="-5.940283391584386" stroke="rgba(255, 255, 255, 0)" stroke-width="30"></line></g><g><line class="connector" id="ba5b238e-d3d0-4709-ad5a-bb442e9b3184" transform="translate(860,520.2000122070312) scale(1,1) " x1="-24.989022030249778" y1="-39.98243524839964" x2="-60.010977969750215" y2="-96.01756475160033" stroke="#808080" stroke-width="3" stroke-linecap="butt"></line><line transform="translate(860,520.2000122070312) " class="outer-connector" id="ba5b238e-d3d0-4709-ad5a-bb442e9b3184" x1="0" y1="0" x2="-70.61095676981381" y2="-112.97753083170208" stroke="rgba(255, 255, 255, 0)" stroke-width="30"></line></g><g><line class="connector" id="34a8e6e3-0ed2-48ef-a960-ebe6265f28f9" transform="translate(642,656.2000122070312) scale(1,1) " x1="-54.01080442392322" y1="21.05505935169888" x2="-122.98919557607681" y2="47.94494064830113" stroke="#808080" stroke-width="3" stroke-linecap="butt"></line><line transform="translate(642,656.2000122070312) " class="outer-connector" id="34a8e6e3-0ed2-48ef-a960-ebe6265f28f9" x1="0" y1="0" x2="-141.62335561079533" y2="55.209104729632074" stroke="rgba(255, 255, 255, 0)" stroke-width="30"></line></g><g><line class="connector" id="0cff2686-c553-4426-a492-e83d2535df19" transform="translate(465,725.2000122070312) scale(1,1) " x1="-59.86887630971067" y1="3.2361554762005764" x2="-125.13112369028936" y2="6.763844523799424" stroke="#808080" stroke-width="3" stroke-linecap="butt"></line><line transform="translate(465,725.2000122070312) " class="outer-connector" id="0cff2686-c553-4426-a492-e83d2535df19" x1="0" y1="0" x2="-145.10196915583953" y2="7.843349684099433" stroke="rgba(255, 255, 255, 0)" stroke-width="30"></line></g><g><line class="connector" id="6711519e-a090-4b52-b8cd-f3051d6eccc7" transform="translate(589,508.20001220703125) scale(1,1) " x1="-43.79473570241843" y1="32.172831729608355" x2="-265.2052642975816" y2="194.8271682703916" stroke="#808080" stroke-width="3" stroke-linecap="butt"></line><line transform="translate(589,508.20001220703125) " class="outer-connector" id="6711519e-a090-4b52-b8cd-f3051d6eccc7" x1="0" y1="0" x2="-281.32340847728904" y2="206.66800558040322" stroke="rgba(255, 255, 255, 0)" stroke-width="30"></line></g><g><line class="connector" id="4947d854-334b-4878-bd48-b2a0e766725a" transform="translate(415.6000061035156,552.6000061035156) scale(1,1) " x1="-29.064220878070145" y1="39.13810229240056" x2="-106.53578522544547" y2="143.46190381111504" stroke="#808080" stroke-width="3" stroke-linecap="butt"></line><line transform="translate(415.6000061035156,552.6000061035156) " class="outer-connector" id="4947d854-334b-4878-bd48-b2a0e766725a" x1="0" y1="0" x2="-118.45967480191825" y2="159.51870478042656" stroke="rgba(255, 255, 255, 0)" stroke-width="30"></line></g><g><line class="connector" id="ca5a9526-4b06-4acb-8a9a-782532175d9c" transform="translate(415.6000061035156,552.6000061035156) scale(1,1) " x1="-59.47125467603946" y1="-6.482290108704898" x2="-256.1287514274762" y2="-27.91770378777947" stroke="#808080" stroke-width="3" stroke-linecap="butt"></line><line transform="translate(415.6000061035156,552.6000061035156) " class="outer-connector" id="ca5a9526-4b06-4acb-8a9a-782532175d9c" x1="0" y1="0" x2="-276.01099250001386" y2="-30.084842438972636" stroke="rgba(255, 255, 255, 0)" stroke-width="30"></line></g><g><line class="connector" id="25bc55f8-a877-478c-ae5e-6f08a91129b8" transform="translate(100,518.2000122070312) scale(1,1) " x1="32.05145575790788" y1="-38.26297819161095" x2="96.94854424209213" y2="-115.73702180838903" stroke="#808080" stroke-width="3" stroke-linecap="butt"></line><line transform="translate(100,518.2000122070312) " class="outer-connector" id="25bc55f8-a877-478c-ae5e-6f08a91129b8" x1="0" y1="0" x2="109.79136048245856" y2="-131.06875592479545" stroke="rgba(255, 255, 255, 0)" stroke-width="30"></line></g><g transform="translate(415.6000061035156,552.6000061035156) scale(0.45)"><rect id="ee773fdb-6fbd-436a-8ce1-7edb34f63146" class="node" x="-100" y="-60" width="200" height="120" transform="translate(0,0)" fill="#F0EEC0" stroke="#F3F033" stroke-width="5"></rect><text id="ee773fdb-6fbd-436a-8ce1-7edb34f63146" class="noselect node" x="0" fill="black" alignment-baseline="center" text-anchor="middle" font-size="20px" y="0">Freiheit</text></g><g transform="translate(436,417.20001220703125) scale(0.45)"><ellipse id="6fea1f93-c518-4a59-a5b1-e20e5260fede" class="node" null="cy" rx="100" ry="70" transform="translate(0,0)" fill="#B9F1B9" stroke="#22AA22" stroke-width="3" opacity="1"></ellipse><text id="6fea1f93-c518-4a59-a5b1-e20e5260fede" class="noselect node" x="0" fill="black" alignment-baseline="center" text-anchor="middle" font-size="20px" y="0">df</text></g><g transform="translate(589,508.20001220703125) scale(0.45)"><ellipse id="923fd2c2-ab83-432c-b7ca-d38f395e2ff8" class="node" null="cy" rx="100" ry="70" transform="translate(0,0)" fill="#B9F1B9" stroke="#22AA22" stroke-width="9" opacity="1"></ellipse><text id="923fd2c2-ab83-432c-b7ca-d38f395e2ff8" class="noselect node" x="0" fill="black" alignment-baseline="center" text-anchor="middle" font-size="20px" y="0">dfg</text></g><g transform="translate(581,344.20001220703125) scale(0.45)"><g><polygon id="dd8b5c66-1a38-429f-8581-6f312efafcb4" class="node" points="-100,0 -60,-60 60,-60 100,0 60,60 -60,60" transform="translate(0,0)" fill="rgb(247, 151, 226)" stroke="rgb(142, 19, 146)" stroke-width="5"></polygon><ellipse id="dd8b5c66-1a38-429f-8581-6f312efafcb4" class="node" null="cy" rx="90" ry="55" transform="translate(0,0)" fill="rgb(247, 151, 226)" stroke="rgb(142, 19, 146)" stroke-width="3"></ellipse></g><text id="dd8b5c66-1a38-429f-8581-6f312efafcb4" class="noselect node" x="0" fill="black" alignment-baseline="center" text-anchor="middle" font-size="20px" y="0">sdfafds</text></g><g transform="translate(425,291.20001220703125) scale(0.45)"><polygon id="d0c5d1ed-2f0f-4b36-9070-e146dfb5f853" class="node" points="-100,0 -60,-60 60,-60 100,0 60,60 -60,60" transform="translate(0,0)" fill="#EB8989" stroke="#E04848" stroke-width="9"></polygon><text id="d0c5d1ed-2f0f-4b36-9070-e146dfb5f853" class="noselect node" x="0" fill="black" alignment-baseline="center" text-anchor="middle" font-size="20px" y="-20">Noch ein  <tspan dy="1.1em" x="0">testkonzept</tspan></text></g><g transform="translate(229,364.20001220703125) scale(0.45)"><ellipse id="769e16a5-e81d-4799-b9fb-61577fa8aebe" class="node" null="cy" rx="100" ry="70" transform="translate(0,0)" fill="#B9F1B9" stroke="#22AA22" stroke-width="3" opacity="1"></ellipse><text id="769e16a5-e81d-4799-b9fb-61577fa8aebe" class="noselect node" x="0" fill="black" alignment-baseline="center" text-anchor="middle" font-size="20px" y="0">Ein Testkonzept</text></g><g transform="translate(608,205.20001220703125) scale(0.45)"><rect id="37d491b8-0694-46d9-9f13-57f3bbdd5405" class="node" x="-100" y="-60" width="200" height="120" transform="translate(0,0)" fill="#F0EEC0" stroke="#F3F033" stroke-width="5"></rect><text id="37d491b8-0694-46d9-9f13-57f3bbdd5405" class="noselect node" x="0" fill="black" alignment-baseline="center" text-anchor="middle" font-size="20px" y="0">dsflsdfk</text></g><g transform="translate(642,656.2000122070312) scale(0.45)"><rect id="595ab725-96b5-4670-be33-8c48dbb617ae" class="node" x="-100" y="-60" width="200" height="120" transform="translate(0,0)" fill="#F0EEC0" stroke="#F3F033" stroke-width="5"></rect><text id="595ab725-96b5-4670-be33-8c48dbb617ae" class="noselect node" x="0" fill="black" alignment-baseline="center" text-anchor="middle" font-size="20px" y="0">sdfdfdfdöklöjrkjr</text></g><g transform="translate(775,384.20001220703125) scale(0.45)"><rect id="76baf342-efa1-4806-8d87-b4ff02376a8d" class="node" x="-100" y="-60" width="200" height="120" transform="translate(0,0)" fill="#F0EEC0" stroke="#F3F033" stroke-width="5"></rect><text id="76baf342-efa1-4806-8d87-b4ff02376a8d" class="noselect node" x="0" fill="black" alignment-baseline="center" text-anchor="middle" font-size="20px" y="0">afkdjsdf2347234</text></g><g transform="translate(705,512.2000122070312) scale(0.45)"><polygon id="e5f7f89a-4364-4708-9693-8dceb3e023d8" class="node" points="-100,0 -60,-60 60,-60 100,0 60,60 -60,60" transform="translate(0,0)" fill="#EB8989" stroke="#E04848" stroke-width="3"></polygon><text id="e5f7f89a-4364-4708-9693-8dceb3e023d8" class="noselect node" x="0" fill="black" alignment-baseline="center" text-anchor="middle" font-size="20px" y="0">sdlkslkfd</text></g><g transform="translate(741,229.20001220703125) scale(0.45)"><rect id="e7210bc2-a08b-49d6-9777-74f9e015f979" class="node" x="-100" y="-60" width="200" height="120" transform="translate(0,0)" fill="#F0EEC0" stroke="#F3F033" stroke-width="5"></rect><text id="e7210bc2-a08b-49d6-9777-74f9e015f979" class="noselect node" x="0" fill="black" alignment-baseline="center" text-anchor="middle" font-size="20px" y="-20"> <tspan dy="1.1em" x="0">sdjflksjfdagn</tspan>  <tspan dy="1.1em" x="0">ierq9843zjb</tspan></text></g><g transform="translate(860,520.2000122070312) scale(0.45)"><g><polygon id="2c94bcb7-4e10-4ed7-a7c0-4b26f2b36f0e" class="node" points="-100,0 -60,-60 60,-60 100,0 60,60 -60,60" transform="translate(0,0)" fill="rgb(247, 151, 226)" stroke="rgb(142, 19, 146)" stroke-width="5"></polygon><ellipse id="2c94bcb7-4e10-4ed7-a7c0-4b26f2b36f0e" class="node" null="cy" rx="90" ry="55" transform="translate(0,0)" fill="rgb(247, 151, 226)" stroke="rgb(142, 19, 146)" stroke-width="3"></ellipse></g><text id="2c94bcb7-4e10-4ed7-a7c0-4b26f2b36f0e" class="noselect node" x="0" fill="black" alignment-baseline="center" text-anchor="middle" font-size="20px" y="-20">fgksndf  <tspan dy="1.1em" x="0">lreqhtoiuo43u4</tspan></text></g><g transform="translate(280,735.2000122070312) scale(0.45)"><rect id="962861de-3e8c-487a-957f-192c7c421a18" class="node" x="-100" y="-60" width="200" height="120" transform="translate(0,0)" fill="#F0EEC0" stroke="#F3F033" stroke-width="5"></rect><text id="962861de-3e8c-487a-957f-192c7c421a18" class="noselect node" x="0" fill="black" alignment-baseline="center" text-anchor="middle" font-size="20px" y="0">kjdflkdsf</text></g><g transform="translate(465,725.2000122070312) scale(0.45)"><rect id="8c8b2ba9-bcbc-4677-b7d7-5788ec00a9d0" class="node" x="-100" y="-60" width="200" height="120" transform="translate(0,0)" fill="#F0EEC0" stroke="#F3F033" stroke-width="5"></rect><text id="8c8b2ba9-bcbc-4677-b7d7-5788ec00a9d0" class="noselect node" x="0" fill="black" alignment-baseline="center" text-anchor="middle" font-size="20px" y="0">sfnm,mdsnf</text></g><g transform="translate(100,518.2000122070312) scale(0.45)"><polygon id="8d5dd7be-76b7-408d-b426-9b3b64033c0c" class="node" points="-100,0 -60,-60 60,-60 100,0 60,60 -60,60" transform="translate(0,0)" fill="#EB8989" stroke="#E04848" stroke-width="6"></polygon><text id="8d5dd7be-76b7-408d-b426-9b3b64033c0c" class="noselect node" x="0" fill="black" alignment-baseline="center" text-anchor="middle" font-size="20px" y="0">dsfölsdkfl</text></g></svg>