<?xml version="1.0" standalone="no"?>
<svg id="CAMSVG" xmlns="http://www.w3.org/2000/svg" height="1400px" width="2400px"><rect id="background" x="0" y="0" width="100%" height="100%" fill="white"></rect><marker id="arrowRight" markerWidth="30" markerHeight="15" refX="30" refY="7.5" orient="auto" markerUnits="userSpaceOnUse"><polygon points="30 0, 30 15, 0 7.5" fill="#8c8c8c"></polygon></marker><marker id="arrowLeft" markerWidth="30" markerHeight="15" refX="0" refY="7.5" orient="auto" markerUnits="userSpaceOnUse"><polygon points="0 0, 30 7.5, 0 15" fill="#8c8c8c"></polygon></marker><g><line class="connector" id="55c36f1b-ac5d-4ad8-b6d5-838a0064621a" transform="translate(530,310.6666717529297) scale(1,1) " x1="7.071360142578588" y1="-40.26215962171225" x2="29.92863985742142" y2="-170.40451213121744" stroke="#808080" stroke-width="6" stroke-linecap="butt"></line><line transform="translate(530,310.6666717529297) " class="outer-connector" id="55c36f1b-ac5d-4ad8-b6d5-838a0064621a" x1="0" y1="0" x2="33.388342690914364" y2="-190.10300081192392" stroke="rgba(255, 255, 255, 0)" stroke-width="30"></line></g><g><line class="connector" id="07bd12f1-6545-472a-a597-e93fb0396aae" transform="translate(530,310.6666717529297) scale(1,1) " x1="58.40845274306599" y1="-11.171016769496584" x2="185.59154725693404" y2="-35.495654983433106" stroke="#808080" stroke-width="6" stroke-linecap="butt"></line><line transform="translate(530,310.6666717529297) " class="outer-connector" id="07bd12f1-6545-472a-a597-e93fb0396aae" x1="0" y1="0" x2="205.23549427678142" y2="-39.252694440429664" stroke="rgba(255, 255, 255, 0)" stroke-width="30"></line></g><g><line class="connector" id="a4caf18f-bd46-49fb-b9f0-8cd02ac4060d" transform="translate(530,310.6666717529297) scale(1,1) " x1="24.579321346753954" y1="40.046681275082996" x2="82.42067865324601" y2="134.28664697198732" stroke="#808080" stroke-width="9" stroke-linecap="butt"></line><line transform="translate(530,310.6666717529297) " class="outer-connector" id="a4caf18f-bd46-49fb-b9f0-8cd02ac4060d" x1="0" y1="0" x2="92.88261752364609" y2="151.3321107401578" stroke="rgba(255, 255, 255, 0)" stroke-width="30"></line></g><g><line class="connector" id="c74708ae-6118-4148-9baa-cf8be4227d1f" transform="translate(514,559) scale(1,1) " x1="47.807154009443295" y1="-28.76202761543743" x2="75.1928459905567" y2="-45.23797238456257" stroke="#808080" stroke-width="3" stroke-linecap="butt"></line><line transform="translate(514,559) " class="outer-connector" id="c74708ae-6118-4148-9baa-cf8be4227d1f" x1="0" y1="0" x2="92.33039846825868" y2="-55.54836981017188" stroke="rgba(255, 255, 255, 0)" stroke-width="30"></line></g><g><line class="connector" id="51c3cb75-b7a8-4663-b076-f080014fc540" transform="translate(785,489) scale(1,1) " x1="-59.96715178559724" y1="-1.6207338320431683" x2="-88.03284821440276" y2="-2.379266167956831" stroke="#808080" stroke-width="9" stroke-linecap="butt"></line><line transform="translate(785,489) " class="outer-connector" id="51c3cb75-b7a8-4663-b076-f080014fc540" x1="0" y1="0" x2="-108.02554761185982" y2="-2.91960939491513" stroke="rgba(255, 255, 255, 0)" stroke-width="30"></line></g><g><line class="connector" id="dec8ebe6-d576-4706-8995-313103ad1a24" transform="translate(201,187) scale(1,1) " x1="15.122949491055191" y1="40.64292675721083" x2="48.877050508944805" y2="131.35707324278917" stroke="#808080" stroke-width="6" stroke-linecap="butt"></line><line transform="translate(201,187) " class="outer-connector" id="dec8ebe6-d576-4706-8995-313103ad1a24" x1="0" y1="0" x2="55.85172474937317" y2="150.1015102639404" stroke="rgba(255, 255, 255, 0)" stroke-width="30"></line></g><g><line class="connector" id="b76a33c2-0a43-4da9-afb7-53747196bf9c" transform="translate(530,310.6666717529297) scale(1,1) " x1="-58.548254303666575" y1="10.678611296422885" x2="-206.45174569633346" y2="37.65471695064745" stroke="#808080" stroke-width="9" stroke-linecap="butt"></line><line transform="translate(530,310.6666717529297) " class="outer-connector" id="b76a33c2-0a43-4da9-afb7-53747196bf9c" x1="0" y1="0" x2="-226.1271610358357" y2="41.24331433933275" stroke="rgba(255, 255, 255, 0)" stroke-width="30"></line></g><g><line class="connector" id="f93aa0e5-f607-476c-be4b-043dd3acc299" transform="translate(100,362) scale(1,1) " x1="59.985128575805945" y1="-1.0906387013782899" x2="105.01487142419407" y2="-1.9093612986217103" stroke="#808080" stroke-width="6" stroke-linecap="butt"></line><line transform="translate(100,362) " class="outer-connector" id="f93aa0e5-f607-476c-be4b-043dd3acc299" x1="0" y1="0" x2="125.01156645846054" y2="-2.2729375719720095" stroke="rgba(255, 255, 255, 0)" stroke-width="30"></line></g><g><line class="connector" id="8f60b271-7e09-4497-94e9-c0df25deb555" transform="translate(215,465) scale(1,1) " x1="19.14141325330837" y1="-40.57979609701376" x2="30.858586746691618" y2="-65.42020390298626" stroke="#808080" stroke-width="6" stroke-linecap="butt"></line><line transform="translate(215,465) " class="outer-connector" id="8f60b271-7e09-4497-94e9-c0df25deb555" x1="0" y1="0" x2="39.39096026095115" y2="-83.50883575321646" stroke="rgba(255, 255, 255, 0)" stroke-width="30"></line></g><g><line class="connector" id="1983eeee-0dcd-4197-8fdd-5d580768cb08" transform="translate(530,310.6666717529297) scale(1,1) " x1="-35.45308011633454" y1="-36.97095064416254" x2="-73.54691988366545" y2="-76.69572110876715" stroke="#808080" stroke-width="6" stroke-linecap="butt"></line><line transform="translate(530,310.6666717529297) " class="outer-connector" id="1983eeee-0dcd-4197-8fdd-5d580768cb08" x1="0" y1="0" x2="-87.38962331106208" y2="-91.131079151474" stroke="rgba(255, 255, 255, 0)" stroke-width="30"></line></g><g><line class="connector" id="2d989a8a-67b3-47d5-b4b0-82681af9b67a" transform="translate(530,310.6666717529297) scale(1,1) " x1="-55.47024036466884" y1="-18.490081873955237" x2="-105.52975963533116" y2="-35.176589878974454" stroke="#808080" stroke-width="9" stroke-linecap="butt"></line><line transform="translate(530,310.6666717529297) " class="outer-connector" id="2d989a8a-67b3-47d5-b4b0-82681af9b67a" x1="0" y1="0" x2="-124.50342541651835" y2="-41.50114573878046" stroke="rgba(255, 255, 255, 0)" stroke-width="30"></line></g><g><line class="connector" id="e6133ab3-c398-4e88-bfe9-5b2859101961" transform="translate(421,197) scale(1,1) " x1="-32.906560337640826" y1="37.96910808189326" x2="-19.093439662359174" y2="22.030891918106743" stroke="#808080" stroke-width="3" stroke-linecap="butt"></line><line transform="translate(421,197) " class="outer-connector" id="e6133ab3-c398-4e88-bfe9-5b2859101961" x1="0" y1="0" x2="-32.19205043071601" y2="37.14467357390309" stroke="rgba(255, 255, 255, 0)" stroke-width="30"></line></g><g transform="translate(530,310.6666717529297) scale(0.45)"><rect id="fe755e25-5b33-4927-b06d-31d715694baf" class="node" x="-100" y="-60" width="200" height="120" transform="translate(0,0)" fill="#F0EEC0" stroke="#F3F033" stroke-width="5"></rect><text id="fe755e25-5b33-4927-b06d-31d715694baf" class="noselect node" x="0" fill="black" alignment-baseline="center" text-anchor="middle" font-size="20px" y="0">Freiheit</text></g><g transform="translate(567,100) scale(0.45)"><ellipse id="79449abf-ad99-420d-8cd8-c1c564d9747e" class="node" null="cy" rx="100" ry="70" transform="translate(0,0)" fill="#B9F1B9" stroke="#22AA22" stroke-width="6" opacity="1"></ellipse><text id="79449abf-ad99-420d-8cd8-c1c564d9747e" class="noselect node" x="0" fill="black" alignment-baseline="center" text-anchor="middle" font-size="20px" y="0">Rechte</text></g><g transform="translate(637,485) scale(0.45)"><ellipse id="22043fe1-11d0-44e3-af12-424fe4e5dfbc" class="node" null="cy" rx="100" ry="70" transform="translate(0,0)" fill="#B9F1B9" stroke="#22AA22" stroke-width="9" opacity="1"></ellipse><text id="22043fe1-11d0-44e3-af12-424fe4e5dfbc" class="noselect node" x="0" fill="black" alignment-baseline="center" text-anchor="middle" font-size="20px" y="-20">Freie  <tspan dy="1.1em" x="0">Bewgungsmögichkeiten</tspan></text></g><g transform="translate(774,264) scale(0.45)"><ellipse id="55791982-6a85-415b-8c3d-94caf896e2f5" class="node" null="cy" rx="100" ry="70" transform="translate(0,0)" fill="#B9F1B9" stroke="#22AA22" stroke-width="6" opacity="1"></ellipse><text id="55791982-6a85-415b-8c3d-94caf896e2f5" class="noselect node" x="0" fill="black" alignment-baseline="center" text-anchor="middle" font-size="20px" y="-20"> <tspan dy="1.1em" x="0">Bildungsmöglichkeiten</tspan></text></g><g transform="translate(785,489) scale(0.45)"><ellipse id="a39e064e-4460-436f-baba-f66d2c82dd30" class="node" null="cy" rx="100" ry="70" transform="translate(0,0)" fill="#B9F1B9" stroke="#22AA22" stroke-width="9" opacity="1"></ellipse><text id="a39e064e-4460-436f-baba-f66d2c82dd30" class="noselect node" x="0" fill="black" alignment-baseline="center" text-anchor="middle" font-size="20px" y="-20"> <tspan dy="1.1em" x="0">Innerhalb</tspan>  <tspan dy="1.1em" x="0">Deutschlands</tspan></text></g><g transform="translate(265,359) scale(0.45)"><ellipse id="b4154061-fd58-472f-99f3-4e5247d13612" class="node" null="cy" rx="100" ry="70" transform="translate(0,0)" fill="#B9F1B9" stroke="#22AA22" stroke-width="9" opacity="1"></ellipse><text id="b4154061-fd58-472f-99f3-4e5247d13612" class="noselect node" x="0" fill="black" alignment-baseline="center" text-anchor="middle" font-size="20px" y="-20">freie  <tspan dy="1.1em" x="0">Meinungsäußerung</tspan></text></g><g transform="translate(514,559) scale(0.45)"><ellipse id="bc06a3cd-6bbf-4ff8-9671-1e8aebd727d7" class="node" null="cy" rx="100" ry="70" transform="translate(0,0)" fill="#B9F1B9" stroke="#22AA22" stroke-width="9" opacity="1"></ellipse><text id="bc06a3cd-6bbf-4ff8-9671-1e8aebd727d7" class="noselect node" x="0" fill="black" alignment-baseline="center" text-anchor="middle" font-size="20px" y="-20"> <tspan dy="1.1em" x="0">außerhalb</tspan>  <tspan dy="1.1em" x="0">Deutschlands</tspan></text></g><g transform="translate(100,362) scale(0.45)"><ellipse id="92253a74-d658-4f9c-899e-478e3bf46d51" class="node" null="cy" rx="100" ry="70" transform="translate(0,0)" fill="#B9F1B9" stroke="#22AA22" stroke-width="6" opacity="1"></ellipse><text id="92253a74-d658-4f9c-899e-478e3bf46d51" class="noselect node" x="0" fill="black" alignment-baseline="center" text-anchor="middle" font-size="20px" y="-20">Freundes  <tspan dy="1.1em" x="0">und</tspan>  <tspan dy="1.1em" x="0">Familienkreis</tspan></text></g><g transform="translate(201,187) scale(0.45)"><ellipse id="47ca0992-5926-4dea-8fd9-d08a4aa0f117" class="node" null="cy" rx="100" ry="70" transform="translate(0,0)" fill="#B9F1B9" stroke="#22AA22" stroke-width="9" opacity="1"></ellipse><text id="47ca0992-5926-4dea-8fd9-d08a4aa0f117" class="noselect node" x="0" fill="black" alignment-baseline="center" text-anchor="middle" font-size="20px" y="0">politisch</text></g><g transform="translate(421,197) scale(0.45)"><ellipse id="e0715d52-d55d-4715-8eaa-7e26d21c2649" class="node" null="cy" rx="100" ry="70" transform="translate(0,0)" fill="#B9F1B9" stroke="#22AA22" stroke-width="6" opacity="1"></ellipse><text id="e0715d52-d55d-4715-8eaa-7e26d21c2649" class="noselect node" x="0" fill="black" alignment-baseline="center" text-anchor="middle" font-size="20px" y="-20"> <tspan dy="1.1em" x="0">Persönlichkeitsentfaltung</tspan></text></g><g transform="translate(215,465) scale(0.45)"><ellipse id="c75aee0d-5116-49d0-a220-d84d0d058b44" class="node" null="cy" rx="100" ry="70" transform="translate(0,0)" fill="#B9F1B9" stroke="#22AA22" stroke-width="6" opacity="1"></ellipse><text id="c75aee0d-5116-49d0-a220-d84d0d058b44" class="noselect node" x="0" fill="black" alignment-baseline="center" text-anchor="middle" font-size="20px" y="0">Arbeit</text></g><g transform="translate(369,257) scale(0.45)"><ellipse id="63b1214d-9e16-4e45-b6fe-e8c143e3d105" class="node" null="cy" rx="100" ry="70" transform="translate(0,0)" fill="#B9F1B9" stroke="#22AA22" stroke-width="9" opacity="1"></ellipse><text id="63b1214d-9e16-4e45-b6fe-e8c143e3d105" class="noselect node" x="0" fill="black" alignment-baseline="center" text-anchor="middle" font-size="20px" y="-20"> <tspan dy="1.1em" x="0">Freiheits</tspan>  <tspan dy="1.1em" x="0">sexueller</tspan>  <tspan dy="1.1em" x="0">Orientierung</tspan></text></g></svg>