<?xml version="1.0" standalone="no"?>
<svg id="CAMSVG" xmlns="http://www.w3.org/2000/svg" height="1400px" width="2400px"><rect id="background" x="0" y="0" width="100%" height="100%" fill="white"></rect><marker id="arrowRight" markerWidth="30" markerHeight="15" refX="30" refY="7.5" orient="auto" markerUnits="userSpaceOnUse"><polygon points="30 0, 30 15, 0 7.5" fill="#8c8c8c"></polygon></marker><marker id="arrowLeft" markerWidth="30" markerHeight="15" refX="0" refY="7.5" orient="auto" markerUnits="userSpaceOnUse"><polygon points="0 0, 30 7.5, 0 15" fill="#8c8c8c"></polygon></marker><g><line class="connector" id="4725d042-f4ee-431e-877a-311a41f299aa" transform="translate(205,100) scale(1,1) " x1="-23.66283029352068" y1="40.177513935873655" x2="-72.33716970647932" y2="122.82248606412635" stroke="#808080" stroke-width="6" stroke-dasharray="20,10"></line><line transform="translate(205,100) " class="outer-connector" id="4725d042-f4ee-431e-877a-311a41f299aa" x1="0" y1="0" x2="-82.48681156444195" y2="140.05573213545873" stroke="rgba(255, 255, 255, 0)" stroke-width="30"></line></g><g><line class="connector" id="c39d00a2-3b26-45e7-abe3-1032757e136d" transform="translate(109,263) scale(1,1) " x1="51.95229453562518" y1="-24.066136439296955" x2="84.04770546437483" y2="-38.93386356070304" stroke="#808080" stroke-width="6" stroke-linecap="butt"></line><line transform="translate(109,263) " class="outer-connector" id="c39d00a2-3b26-45e7-abe3-1032757e136d" x1="0" y1="0" x2="102.1951589770916" y2="-47.340404526152724" stroke="rgba(255, 255, 255, 0)" stroke-width="30"></line></g><g><line class="connector" id="69813c6b-f828-4631-b0e3-7ee5ce43c8ce" transform="translate(109,263) scale(1,1) " x1="58.147946121160004" y1="12.030609542308966" x2="115.85205387884" y2="23.969390457691034" stroke="#808080" stroke-width="6" stroke-linecap="butt"></line><line transform="translate(109,263) " class="outer-connector" id="69813c6b-f828-4631-b0e3-7ee5ce43c8ce" x1="0" y1="0" x2="135.43726226898207" y2="28.02150253841008" stroke="rgba(255, 255, 255, 0)" stroke-width="30"></line></g><g><line class="connector" id="63394b2b-bc8b-4d00-a4cb-7da53225640c" transform="translate(100,404) scale(1,1) " x1="28.00169939835919" y1="-39.39549432596741" x2="116.99830060164082" y2="-164.6045056740326" stroke="#808080" stroke-width="6" stroke-dasharray="20,10"></line><line transform="translate(100,404) " class="outer-connector" id="63394b2b-bc8b-4d00-a4cb-7da53225640c" x1="0" y1="0" x2="128.58523789958218" y2="-180.9061278035501" stroke="rgba(255, 255, 255, 0)" stroke-width="30"></line></g><g transform="translate(109,263) scale(0.45)"><ellipse id="1b0c3478-7cad-4548-9961-521316d74e8a" class="node" null="cy" rx="100" ry="70" transform="translate(0,0)" fill="#B9F1B9" stroke="#22AA22" stroke-width="9" opacity="1"></ellipse><text id="1b0c3478-7cad-4548-9961-521316d74e8a" class="noselect node" x="0" fill="black" alignment-baseline="center" text-anchor="middle" font-size="20px" y="0">Freiheit</text></g><g transform="translate(205,100) scale(0.45)"><g><polygon id="49c0e337-f86b-41e8-ac52-a56f5661453f" class="node" points="-100,0 -60,-60 60,-60 100,0 60,60 -60,60" transform="translate(0,0)" fill="rgb(247, 151, 226)" stroke="rgb(142, 19, 146)" stroke-width="5"></polygon><ellipse id="49c0e337-f86b-41e8-ac52-a56f5661453f" class="node" null="cy" rx="90" ry="55" transform="translate(0,0)" fill="rgb(247, 151, 226)" stroke="rgb(142, 19, 146)" stroke-width="3"></ellipse></g><text id="49c0e337-f86b-41e8-ac52-a56f5661453f" class="noselect node" x="0" fill="black" alignment-baseline="center" text-anchor="middle" font-size="20px" y="0">kjh</text></g><g transform="translate(245,200) scale(0.45)"><polygon id="28a9a4e1-2336-41c3-aba6-c845805e6c4c" class="node" points="-100,0 -60,-60 60,-60 100,0 60,60 -60,60" transform="translate(0,0)" fill="#EB8989" stroke="#E04848" stroke-width="6"></polygon><text id="28a9a4e1-2336-41c3-aba6-c845805e6c4c" class="noselect node" x="0" fill="black" alignment-baseline="center" text-anchor="middle" font-size="20px" y="0">kk</text></g><g transform="translate(283,299) scale(0.45)"><ellipse id="e9b95542-fb0c-4a3e-95a9-23f3031eceab" class="node" null="cy" rx="100" ry="70" transform="translate(0,0)" fill="#B9F1B9" stroke="#22AA22" stroke-width="6" opacity="1"></ellipse><text id="e9b95542-fb0c-4a3e-95a9-23f3031eceab" class="noselect node" x="0" fill="black" alignment-baseline="center" text-anchor="middle" font-size="20px" y="0">jklh</text></g><g transform="translate(100,404) scale(0.45)"><g><polygon id="e07f6e9b-ddb3-4191-9b9d-f04855402054" class="node" points="-100,0 -60,-60 60,-60 100,0 60,60 -60,60" transform="translate(0,0)" fill="rgb(247, 151, 226)" stroke="rgb(142, 19, 146)" stroke-width="5"></polygon><ellipse id="e07f6e9b-ddb3-4191-9b9d-f04855402054" class="node" null="cy" rx="90" ry="55" transform="translate(0,0)" fill="rgb(247, 151, 226)" stroke="rgb(142, 19, 146)" stroke-width="3"></ellipse></g><text id="e07f6e9b-ddb3-4191-9b9d-f04855402054" class="noselect node" x="0" fill="black" alignment-baseline="center" text-anchor="middle" font-size="20px" y="0">ll</text></g></svg>