<?xml version="1.0" standalone="no"?>
<svg id="CAMSVG" xmlns="http://www.w3.org/2000/svg" height="1400px" width="2400px"><rect id="background" x="0" y="0" width="100%" height="100%" fill="white"></rect><marker id="arrowRight" markerWidth="30" markerHeight="15" refX="30" refY="7.5" orient="auto" markerUnits="userSpaceOnUse"><polygon points="30 0, 30 15, 0 7.5" fill="#8c8c8c"></polygon></marker><marker id="arrowLeft" markerWidth="30" markerHeight="15" refX="0" refY="7.5" orient="auto" markerUnits="userSpaceOnUse"><polygon points="0 0, 30 7.5, 0 15" fill="#8c8c8c"></polygon></marker><g><line class="connector" id="cdb27201-e8bd-4997-acd1-7878ebbb7e10" transform="translate(193.39999389648438,117) scale(1,1) " x1="59.49103467625593" y1="-6.360676663499063" x2="99.50896532374406" y2="-10.639323336500938" stroke="#808080" stroke-width="3" stroke-linecap="butt"></line><line transform="translate(193.39999389648438,117) " class="outer-connector" id="cdb27201-e8bd-4997-acd1-7878ebbb7e10" x1="0" y1="0" x2="119.39562107687183" y2="-12.765569549099506" stroke="rgba(255, 255, 255, 0)" stroke-width="30"></line></g><g><line class="connector" id="42b56ca6-eae6-4dc5-824f-a817425c782b" transform="translate(100,269.3999938964844) scale(1,1) " x1="24.54613694600289" y1="-40.05172767890209" x2="68.85385695048149" y2="-112.34826621758228" stroke="#808080" stroke-width="3" stroke-linecap="butt"></line><line transform="translate(100,269.3999938964844) " class="outer-connector" id="42b56ca6-eae6-4dc5-824f-a817425c782b" x1="0" y1="0" x2="79.30457315349223" y2="-129.4006130016507" stroke="rgba(255, 255, 255, 0)" stroke-width="30"></line></g><g><line class="connector" id="0e25aac4-add6-4ef6-8f22-599fc302a924" transform="translate(338.3999938964844,285) scale(1,1) " x1="-59.80808456042299" y1="-3.913617902974016" x2="-178.59190933606138" y2="-11.686388200541609" stroke="#808080" stroke-width="3" stroke-linecap="butt"></line><line transform="translate(338.3999938964844,285) " class="outer-connector" id="0e25aac4-add6-4ef6-8f22-599fc302a924" x1="0" y1="0" x2="-198.5492273047075" y2="-12.992320625421899" stroke="rgba(255, 255, 255, 0)" stroke-width="30"></line></g><g><line class="connector" id="bbb3691b-ed29-4d7e-bea0-23208fea8e58" transform="translate(294.3999938964844,465) scale(1,1) " x1="9.884095459122282" y1="-40.43493596913661" x2="34.11590454087771" y2="-139.56506403086337" stroke="#808080" stroke-width="3" stroke-linecap="butt"></line><line transform="translate(294.3999938964844,465) " class="outer-connector" id="bbb3691b-ed29-4d7e-bea0-23208fea8e58" x1="0" y1="0" x2="38.86496635041751" y2="-158.99304416079892" stroke="rgba(255, 255, 255, 0)" stroke-width="30"></line></g><g><line class="connector" id="5c99047b-a3b7-46b8-b290-c486d5ea65c2" transform="translate(526.3999938964844,404) scale(1,1) " x1="-57.077999917000305" y1="15.007577564383698" x2="-174.9220000829997" y2="45.99242243561629" stroke="#808080" stroke-width="3" stroke-linecap="butt"></line><line transform="translate(526.3999938964844,404) " class="outer-connector" id="5c99047b-a3b7-46b8-b290-c486d5ea65c2" x1="0" y1="0" x2="-194.26457035592952" y2="51.07818444703319" stroke="rgba(255, 255, 255, 0)" stroke-width="30"></line></g><g transform="translate(100,269.3999938964844) scale(0.45)"><rect id="bf1c0240-ebe2-4e05-93bf-7a1f22693fb4" class="node" x="-100" y="-60" width="200" height="120" transform="translate(0,0)" fill="#F0EEC0" stroke="#F3F033" stroke-width="5"></rect><text id="bf1c0240-ebe2-4e05-93bf-7a1f22693fb4" class="noselect node" x="0" fill="black" alignment-baseline="center" text-anchor="middle" font-size="20px" y="0">Freiheit</text></g><g transform="translate(193.39999389648438,117) scale(0.45)"><rect id="6b5af0b5-2836-4a0e-95fd-98a0a1c18a30" class="node" x="-100" y="-60" width="200" height="120" transform="translate(0,0)" fill="#F0EEC0" stroke="#F3F033" stroke-width="5"></rect><text id="6b5af0b5-2836-4a0e-95fd-98a0a1c18a30" class="noselect node" x="0" fill="black" alignment-baseline="center" text-anchor="middle" font-size="20px" y="0">dfdf</text></g><g transform="translate(338.3999938964844,285) scale(0.45)"><rect id="2b94c0a4-90ef-41ca-9d9e-77c985d71c40" class="node" x="-100" y="-60" width="200" height="120" transform="translate(0,0)" fill="#F0EEC0" stroke="#F3F033" stroke-width="5"></rect><text id="2b94c0a4-90ef-41ca-9d9e-77c985d71c40" class="noselect node" x="0" fill="black" alignment-baseline="center" text-anchor="middle" font-size="20px" y="0">fgf</text></g><g transform="translate(294.3999938964844,465) scale(0.45)"><rect id="f38591f0-6979-4956-a2f3-1d90e7fd75f4" class="node" x="-100" y="-60" width="200" height="120" transform="translate(0,0)" fill="#F0EEC0" stroke="#F3F033" stroke-width="5"></rect><text id="f38591f0-6979-4956-a2f3-1d90e7fd75f4" class="noselect node" x="0" fill="black" alignment-baseline="center" text-anchor="middle" font-size="20px" y="0">dffg</text></g><g transform="translate(526.3999938964844,404) scale(0.45)"><rect id="7700abc8-2950-4b1f-b061-b4d8b8ed7077" class="node" x="-100" y="-60" width="200" height="120" transform="translate(0,0)" fill="#F0EEC0" stroke="#F3F033" stroke-width="5"></rect><text id="7700abc8-2950-4b1f-b061-b4d8b8ed7077" class="noselect node" x="0" fill="black" alignment-baseline="center" text-anchor="middle" font-size="20px" y="0">gfdg</text></g><g transform="translate(352.3999938964844,100) scale(0.45)"><rect id="1c3bdeef-0bb8-4c64-b29c-b100ba17639d" class="node" x="-100" y="-60" width="200" height="120" transform="translate(0,0)" fill="#F0EEC0" stroke="#F3F033" stroke-width="5"></rect><text id="1c3bdeef-0bb8-4c64-b29c-b100ba17639d" class="noselect node" x="0" fill="black" alignment-baseline="center" text-anchor="middle" font-size="20px" y="0">dffdg</text></g></svg>