<?xml version="1.0" standalone="no"?>
<svg id="CAMSVG" xmlns="http://www.w3.org/2000/svg" height="1400px" width="2400px"><rect id="background" x="0" y="0" width="100%" height="100%" fill="white"></rect><marker id="arrowRight" markerWidth="30" markerHeight="15" refX="30" refY="7.5" orient="auto" markerUnits="userSpaceOnUse"><polygon points="30 0, 30 15, 0 7.5" fill="#8c8c8c"></polygon></marker><marker id="arrowLeft" markerWidth="30" markerHeight="15" refX="0" refY="7.5" orient="auto" markerUnits="userSpaceOnUse"><polygon points="0 0, 30 7.5, 0 15" fill="#8c8c8c"></polygon></marker><g><line class="connector" id="4b49667a-c6b8-491a-bda8-73feed048946" transform="translate(459.5,373) scale(1,1) " x1="46.80504839528444" y1="-29.700653939217325" x2="129.69495160471556" y2="-82.29934606078268" stroke="#808080" stroke-width="9" stroke-dasharray="20,10"></line><line transform="translate(459.5,373) " class="outer-connector" id="4b49667a-c6b8-491a-bda8-73feed048946" x1="0" y1="0" x2="146.581956202287" y2="-93.0151790065504" stroke="rgba(255, 255, 255, 0)" stroke-width="30"></line></g><g><line class="connector" id="14133c5c-8e93-4f37-8e3e-f41404301461" transform="translate(459.5,373) scale(1,1) " x1="56.76458995512569" y1="15.759834743325387" x2="137.7354100448743" y2="38.240165256674615" stroke="#808080" stroke-width="6" stroke-linecap="butt"></line><line transform="translate(459.5,373) " class="outer-connector" id="14133c5c-8e93-4f37-8e3e-f41404301461" x1="0" y1="0" x2="157.00647781048986" y2="43.590487412681" stroke="rgba(255, 255, 255, 0)" stroke-width="30"></line></g><g><line class="connector" id="a0eb18ac-f943-4909-95ba-222dd245aee6" transform="translate(388,530) scale(1,1) " x1="18.49299563702128" y1="-40.606997412760016" x2="53.00700436297871" y2="-116.39300258723998" stroke="#808080" stroke-width="9" stroke-linecap="butt"></line><line transform="translate(388,530) " class="outer-connector" id="a0eb18ac-f943-4909-95ba-222dd245aee6" x1="0" y1="0" x2="61.29616304304605" y2="-134.5943719966186" stroke="rgba(255, 255, 255, 0)" stroke-width="30"></line></g><g><line class="connector" id="35cf9f4d-03d4-4349-8ee5-e2f712a80aff" transform="translate(544,612) scale(1,1) " x1="-50.108264479388474" y1="-26.33895953403753" x2="-105.89173552061152" y2="-55.661040465962465" stroke="#808080" stroke-width="3" stroke-linecap="butt"></line><line transform="translate(544,612) " class="outer-connector" id="35cf9f4d-03d4-4349-8ee5-e2f712a80aff" x1="0" y1="0" x2="-123.59502081930768" y2="-64.96661350758481" stroke="rgba(255, 255, 255, 0)" stroke-width="30"></line></g><g><line class="connector" id="055deebb-840f-4fae-9794-272fce288be8" transform="translate(459.5,373) scale(1,1) " x1="-44.69611893282138" y1="-31.482613335714795" x2="-149.80388106717865" y2="-105.51738666428521" stroke="#808080" stroke-width="9" stroke-linecap="butt"></line><line transform="translate(459.5,373) " class="outer-connector" id="055deebb-840f-4fae-9794-272fce288be8" x1="0" y1="0" x2="-166.1548789816087" y2="-117.03454200761126" stroke="rgba(255, 255, 255, 0)" stroke-width="30"></line></g><g><line class="connector" id="15ef409b-ab9e-4ad1-80a5-b2a9b9270769" transform="translate(343,100) scale(1,1) " x1="-23.08514617119536" y1="40.251024093366276" x2="-54.91485382880463" y2="95.74897590663373" stroke="#808080" stroke-width="3" stroke-linecap="butt"></line><line transform="translate(343,100) " class="outer-connector" id="15ef409b-ab9e-4ad1-80a5-b2a9b9270769" x1="0" y1="0" x2="-64.8650961890113" y2="113.09811643212227" stroke="rgba(255, 255, 255, 0)" stroke-width="30"></line></g><g><line class="connector" id="0f3993f7-6d24-4c15-81be-b72a02eeaf6d" transform="translate(100,117) scale(1,1) " x1="44.19317696068352" y1="31.872654898917197" x2="120.80682303931651" y2="87.1273451010828" stroke="#808080" stroke-width="3" stroke-linecap="butt"></line><line transform="translate(100,117) " class="outer-connector" id="0f3993f7-6d24-4c15-81be-b72a02eeaf6d" x1="0" y1="0" x2="137.02818118998502" y2="98.82638522186795" stroke="rgba(255, 255, 255, 0)" stroke-width="30"></line></g><g><line class="connector" id="08361300-eeee-42f1-abf2-0a26c93365fa" transform="translate(192,578) scale(1,1) " x1="57.44454001261127" y1="-14.068050615333371" x2="138.55545998738876" y2="-33.93194938466663" stroke="#808080" stroke-width="3" stroke-linecap="butt"></line><line transform="translate(192,578) " class="outer-connector" id="08361300-eeee-42f1-abf2-0a26c93365fa" x1="0" y1="0" x2="157.98140622002822" y2="-38.689323972251806" stroke="rgba(255, 255, 255, 0)" stroke-width="30"></line></g><g><line class="connector" id="315955c0-33e1-49e8-9bb7-d163784410c4" transform="translate(459.5,373) scale(1,1) " x1="19.170318725732205" y1="-40.57841784746429" x2="109.32968127426776" y2="-231.4215821525357" stroke="#808080" stroke-width="3" stroke-dasharray="20,10"></line><line transform="translate(459.5,373) " class="outer-connector" id="315955c0-33e1-49e8-9bb7-d163784410c4" x1="0" y1="0" x2="117.87282733977568" y2="-249.50512868808553" stroke="rgba(255, 255, 255, 0)" stroke-width="30"></line></g><g><line class="connector" id="2f5e3990-451c-420c-8e6e-57575a4d14c6" transform="translate(327,642) scale(1,1) " x1="21.98837677085361" y1="-40.372101612059076" x2="39.0116232291464" y2="-71.62789838794092" stroke="#808080" stroke-width="3" stroke-linecap="butt"></line><line transform="translate(327,642) " class="outer-connector" id="2f5e3990-451c-420c-8e6e-57575a4d14c6" x1="0" y1="0" x2="48.577676540760955" y2="-89.1917995502496" stroke="rgba(255, 255, 255, 0)" stroke-width="30"></line></g><g><line class="connector" id="ee06c80d-6c44-49eb-a4bd-e88b626b7fa1" transform="translate(459.5,373) scale(1,1) " x1="-60" y1="0" x2="-225.5" y2="0" stroke="#808080" stroke-width="9" stroke-linecap="butt"></line><line transform="translate(459.5,373) " class="outer-connector" id="ee06c80d-6c44-49eb-a4bd-e88b626b7fa1" x1="0" y1="0" x2="-245.5" y2="0" stroke="rgba(255, 255, 255, 0)" stroke-width="30"></line></g><g><line class="connector" id="3ed38c1b-589b-4aca-ae76-9fcc974375e2" transform="translate(388,530) scale(1,1) " x1="-43.823859428645704" y1="-32.15114920699709" x2="-170.1761405713543" y2="-124.84885079300292" stroke="#808080" stroke-width="3" stroke-linecap="butt"></line><line transform="translate(388,530) " class="outer-connector" id="3ed38c1b-589b-4aca-ae76-9fcc974375e2" x1="0" y1="0" x2="-186.30184451795583" y2="-136.6793906042947" stroke="rgba(255, 255, 255, 0)" stroke-width="30"></line></g><g><line class="connector" id="485a142f-0963-4c58-917a-6809fbba9faa" transform="translate(265,236) scale(1,1) " x1="-26.39297344393775" y1="39.73447650351067" x2="-64.60702655606227" y2="97.26552349648935" stroke="#808080" stroke-width="3" stroke-linecap="butt"></line><line transform="translate(265,236) " class="outer-connector" id="485a142f-0963-4c58-917a-6809fbba9faa" x1="0" y1="0" x2="-75.67295234171304" y2="113.92521396499654" stroke="rgba(255, 255, 255, 0)" stroke-width="30"></line></g><g transform="translate(459.5,373) scale(0.45)"><rect id="89a7c659-791a-4e1c-b554-54bef68993a6" class="node" x="-100" y="-60" width="200" height="120" transform="translate(0,0)" fill="#F0EEC0" stroke="#F3F033" stroke-width="5"></rect><text id="89a7c659-791a-4e1c-b554-54bef68993a6" class="noselect node" x="0" fill="black" alignment-baseline="center" text-anchor="middle" font-size="20px" y="0">Freiheit</text></g><g transform="translate(636,261) scale(0.45)"><polygon id="149cd24b-ea6f-46b3-ae20-f50da1cdef76" class="node" points="-100,0 -60,-60 60,-60 100,0 60,60 -60,60" transform="translate(0,0)" fill="#EB8989" stroke="#E04848" stroke-width="9"></polygon><text id="149cd24b-ea6f-46b3-ae20-f50da1cdef76" class="noselect node" x="0" fill="black" alignment-baseline="center" text-anchor="middle" font-size="20px" y="0">Krieg</text></g><g transform="translate(654,427) scale(0.45)"><rect id="50a84ace-9234-495b-a4a8-6343b201ba63" class="node" x="-100" y="-60" width="200" height="120" transform="translate(0,0)" fill="#F0EEC0" stroke="#F3F033" stroke-width="5"></rect><text id="50a84ace-9234-495b-a4a8-6343b201ba63" class="noselect node" x="0" fill="black" alignment-baseline="center" text-anchor="middle" font-size="20px" y="0">Symbol: Taube</text></g><g transform="translate(388,530) scale(0.45)"><ellipse id="eddf9bee-14fc-4dfc-b850-1b2e1474ebc5" class="node" null="cy" rx="100" ry="70" transform="translate(0,0)" fill="#B9F1B9" stroke="#22AA22" stroke-width="9" opacity="1"></ellipse><text id="eddf9bee-14fc-4dfc-b850-1b2e1474ebc5" class="noselect node" x="0" fill="black" alignment-baseline="center" text-anchor="middle" font-size="20px" y="0">Menschenrecht</text></g><g transform="translate(544,612) scale(0.45)"><ellipse id="f495fc77-5e31-4b64-a387-6eb54320f1b4" class="node" null="cy" rx="100" ry="70" transform="translate(0,0)" fill="#B9F1B9" stroke="#22AA22" stroke-width="9" opacity="1"></ellipse><text id="f495fc77-5e31-4b64-a387-6eb54320f1b4" class="noselect node" x="0" fill="black" alignment-baseline="center" text-anchor="middle" font-size="20px" y="0">Gerechtigkeit</text></g><g transform="translate(265,236) scale(0.45)"><ellipse id="5d5daaa9-879a-4c66-bf1f-13702e28d0c2" class="node" null="cy" rx="100" ry="70" transform="translate(0,0)" fill="#B9F1B9" stroke="#22AA22" stroke-width="9" opacity="1"></ellipse><text id="5d5daaa9-879a-4c66-bf1f-13702e28d0c2" class="noselect node" x="0" fill="black" alignment-baseline="center" text-anchor="middle" font-size="20px" y="-20"> <tspan dy="1.1em" x="0">Selbstverwirklichung</tspan></text></g><g transform="translate(343,100) scale(0.45)"><ellipse id="9c33a477-fbcf-4dea-a711-3f964424817a" class="node" null="cy" rx="100" ry="70" transform="translate(0,0)" fill="#B9F1B9" stroke="#22AA22" stroke-width="6" opacity="1"></ellipse><text id="9c33a477-fbcf-4dea-a711-3f964424817a" class="noselect node" x="0" fill="black" alignment-baseline="center" text-anchor="middle" font-size="20px" y="0">Bildung</text></g><g transform="translate(100,117) scale(0.45)"><ellipse id="83fb9f7a-1591-4520-b874-c2870acd7266" class="node" null="cy" rx="100" ry="70" transform="translate(0,0)" fill="#B9F1B9" stroke="#22AA22" stroke-width="6" opacity="1"></ellipse><text id="83fb9f7a-1591-4520-b874-c2870acd7266" class="noselect node" x="0" fill="black" alignment-baseline="center" text-anchor="middle" font-size="20px" y="0">Sexualität</text></g><g transform="translate(192,578) scale(0.45)"><ellipse id="6a0c5805-2674-48c4-843f-e2f3e14fb07a" class="node" null="cy" rx="100" ry="70" transform="translate(0,0)" fill="#B9F1B9" stroke="#22AA22" stroke-width="9" opacity="1"></ellipse><text id="6a0c5805-2674-48c4-843f-e2f3e14fb07a" class="noselect node" x="0" fill="black" alignment-baseline="center" text-anchor="middle" font-size="20px" y="0">Meinungsfreiheit</text></g><g transform="translate(588,101) scale(0.45)"><g><polygon id="866334d8-f19c-4195-bd72-98a7175e4264" class="node" points="-100,0 -60,-60 60,-60 100,0 60,60 -60,60" transform="translate(0,0)" fill="rgb(247, 151, 226)" stroke="rgb(142, 19, 146)" stroke-width="5"></polygon><ellipse id="866334d8-f19c-4195-bd72-98a7175e4264" class="node" null="cy" rx="90" ry="55" transform="translate(0,0)" fill="rgb(247, 151, 226)" stroke="rgb(142, 19, 146)" stroke-width="3"></ellipse></g><text id="866334d8-f19c-4195-bd72-98a7175e4264" class="noselect node" x="0" fill="black" alignment-baseline="center" text-anchor="middle" font-size="20px" y="0">Freiheitsentzug</text></g><g transform="translate(327,642) scale(0.45)"><ellipse id="c81dad9f-815f-44e6-b395-8e5a25d28097" class="node" null="cy" rx="100" ry="70" transform="translate(0,0)" fill="#B9F1B9" stroke="#22AA22" stroke-width="9" opacity="1"></ellipse><text id="c81dad9f-815f-44e6-b395-8e5a25d28097" class="noselect node" x="0" fill="black" alignment-baseline="center" text-anchor="middle" font-size="20px" y="-20"> <tspan dy="1.1em" x="0">Entscheidungsfreiheit</tspan></text></g><g transform="translate(174,373) scale(0.45)"><ellipse id="9fcb17c3-15f4-4d07-b886-1be517380ea2" class="node" null="cy" rx="100" ry="70" transform="translate(0,0)" fill="#B9F1B9" stroke="#22AA22" stroke-width="9" opacity="1"></ellipse><text id="9fcb17c3-15f4-4d07-b886-1be517380ea2" class="noselect node" x="0" fill="black" alignment-baseline="center" text-anchor="middle" font-size="20px" y="0">für alle</text></g></svg>